<svg version="1.1" id="Layer_1" xmlns="http://www.w3.org/2000/svg" xmlns:xlink="http://www.w3.org/1999/xlink" x="0px" y="0px"
	 width="100%" viewBox="0 0 600 600" enable-background="new 0 0 600 600" xml:space="preserve">
<path fill="#FFFFFF" opacity="1.000000" stroke="none" 
	d="
M601.000000,222.000000 
	C601.000000,348.666656 601.000000,474.833344 601.000000,601.000000 
	C401.000000,601.000000 201.000000,601.000000 1.000000,601.000000 
	C1.000000,401.000000 1.000000,201.000000 1.000000,1.000000 
	C201.000000,1.000000 401.000000,1.000000 601.000000,1.000000 
	C601.000000,74.500000 601.000000,148.000000 601.000000,222.000000 
M511.011963,212.034882 
	C511.008545,174.391998 511.108887,136.748672 510.956146,99.106392 
	C510.884247,81.386993 498.913239,63.573120 481.271637,58.045876 
	C461.022247,51.701588 440.613068,45.869450 420.313782,39.681942 
	C388.482422,29.979288 356.711731,20.076361 324.848328,10.480811 
	C319.158447,8.767324 313.188690,7.703178 307.270264,7.085684 
	C294.191528,5.721127 281.822357,8.989792 269.383514,12.877026 
	C235.163406,23.571066 200.762039,33.685688 166.422180,43.995625 
	C152.869553,48.064560 139.308487,52.107502 125.718369,56.048885 
	C104.433647,62.221840 90.890823,79.529564 90.957214,101.537865 
	C91.069267,138.678558 90.923454,175.820007 90.069283,213.015854 
	C87.660126,213.363235 85.245544,213.676849 82.842735,214.063675 
	C70.630424,216.029617 58.456692,218.277634 46.202663,219.932220 
	C26.963945,222.529877 12.781850,239.739868 16.745979,257.454193 
	C21.676607,279.487457 24.937891,301.891174 29.075788,324.105957 
	C32.257710,341.188385 35.712276,358.219879 38.986107,375.285431 
	C41.779850,389.848450 53.800617,402.052704 69.369759,400.986084 
	C76.556458,400.493744 83.725044,399.736938 90.990555,400.000488 
	C91.723396,407.153290 91.765297,414.459106 93.309151,421.432343 
	C99.865349,451.045380 115.397797,475.851929 136.152512,497.421173 
	C145.021576,506.638275 154.899353,514.943909 164.752914,523.141907 
	C183.471237,538.715149 204.083145,551.651062 225.667206,562.681946 
	C246.432663,573.294495 268.012024,582.348572 289.450562,591.584106 
	C294.373962,593.705017 299.640869,596.630249 305.718079,594.042664 
	C318.581329,588.565735 331.891052,584.045593 344.440521,577.945618 
	C362.428894,569.201965 380.135345,559.809326 397.533203,549.937805 
	C417.773071,538.453735 436.542633,524.668396 453.470551,508.729156 
	C463.745148,499.054596 473.296722,488.418945 481.972351,477.279846 
	C499.794617,454.397003 510.390900,428.509247 511.961578,399.022339 
	C515.665894,399.544708 519.359924,400.158813 523.076355,400.573242 
	C537.744995,402.208893 551.567444,401.514465 559.919434,383.539520 
	C562.316528,378.380463 562.964294,372.361694 564.107361,366.675476 
	C567.819214,348.210144 571.459534,329.729736 574.993408,311.229553 
	C578.469177,293.033783 581.242554,274.684570 585.336426,256.632263 
	C588.605408,242.217316 578.317688,227.090759 566.617004,223.252090 
	C556.830688,220.041458 546.354980,218.882721 536.146606,217.023727 
	C527.831543,215.509521 519.460327,214.303772 511.011963,212.034882 
z"/>
<path fill="#535454" opacity="1.000000" stroke="none" 
	d="
M90.901840,399.100037 
	C83.725044,399.736938 76.556458,400.493744 69.369759,400.986084 
	C53.800617,402.052704 41.779850,389.848450 38.986107,375.285431 
	C35.712276,358.219879 32.257710,341.188385 29.075788,324.105957 
	C24.937891,301.891174 21.676607,279.487457 16.745979,257.454193 
	C12.781850,239.739868 26.963945,222.529877 46.202663,219.932220 
	C58.456692,218.277634 70.630424,216.029617 82.842735,214.063675 
	C85.245544,213.676849 87.660126,213.363235 90.930679,213.039719 
	C98.838356,212.215057 105.884651,211.366516 113.390213,210.553314 
	C125.418098,209.310760 136.958115,207.600983 148.560486,206.832764 
	C189.861282,204.098160 231.153931,200.582260 272.506104,199.481201 
	C308.553253,198.521393 344.728119,199.441116 380.751770,201.334198 
	C416.918549,203.234818 452.968109,207.364944 489.445740,210.598816 
	C496.919586,211.440155 504.016785,212.200699 511.113983,212.961243 
	C519.460327,214.303772 527.831543,215.509521 536.146606,217.023727 
	C546.354980,218.882721 556.830688,220.041458 566.617004,223.252090 
	C578.317688,227.090759 588.605408,242.217316 585.336426,256.632263 
	C581.242554,274.684570 578.469177,293.033783 574.993408,311.229553 
	C571.459534,329.729736 567.819214,348.210144 564.107361,366.675476 
	C562.964294,372.361694 562.316528,378.380463 559.919434,383.539520 
	C551.567444,401.514465 537.744995,402.208893 523.076355,400.573242 
	C519.359924,400.158813 515.665894,399.544708 511.300201,398.741272 
	C503.764099,397.355408 496.889343,396.250580 489.606567,395.060425 
	C487.736481,394.666687 486.288452,394.232635 484.810394,394.068665 
	C462.883392,391.636169 440.987061,388.838074 419.013031,386.942352 
	C395.037231,384.873962 371.008087,383.152588 346.965759,382.208618 
	C326.393158,381.400909 305.767487,381.718201 285.168121,381.886688 
	C266.872620,382.036346 248.579590,382.611328 230.288605,383.113220 
	C224.314835,383.277161 218.339615,383.670410 212.384659,384.185577 
	C194.531311,385.730103 176.661133,387.142120 158.848160,389.072968 
	C143.191772,390.769989 127.603661,393.096985 111.567322,395.095764 
	C104.400116,396.397156 97.650978,397.748596 90.901840,399.100037 
M568.750549,239.820831 
	C564.105957,237.451279 559.677429,234.352524 554.762268,232.896362 
	C548.586853,231.066864 542.040649,230.363068 535.606506,229.554092 
	C501.763184,225.298798 467.976044,220.405075 434.030151,217.214096 
	C404.055389,214.396408 373.916534,212.689270 343.815887,212.010895 
	C308.706726,211.219635 273.493347,210.767059 238.447449,212.558502 
	C196.423431,214.706680 154.481277,218.912628 112.596680,223.147446 
	C90.276138,225.404221 68.115585,229.380081 45.952587,233.006409 
	C32.998161,235.126007 26.890743,244.872345 29.509754,257.781189 
	C30.699823,263.646881 31.797895,269.531433 32.913387,275.412048 
	C39.052410,307.775452 45.138870,340.148895 51.341835,372.500031 
	C53.585590,384.202209 62.520397,390.399567 73.679398,388.767883 
	C99.360504,385.012787 125.029099,381.122192 150.780106,377.905731 
	C199.904648,371.769836 249.303726,368.963745 298.763214,369.396057 
	C336.020813,369.721710 373.366272,371.027374 410.476257,374.196381 
	C449.569061,377.534698 488.449188,383.448517 527.377563,388.576141 
	C539.051392,390.113831 548.111084,384.911530 550.352173,373.424591 
	C557.996643,334.241669 565.422546,295.016022 572.923950,255.805206 
	C574.012146,250.117126 573.219543,244.862976 568.750549,239.820831 
z"/>
<path fill="#012151" opacity="1.000000" stroke="none" 
	d="
M511.062988,212.498062 
	C504.016785,212.200699 496.919586,211.440155 489.618347,210.122559 
	C489.438324,173.923035 489.522278,138.280472 489.455170,102.638199 
	C489.430298,89.426430 483.093964,81.155380 470.417206,77.315140 
	C418.621124,61.624283 366.817688,45.957680 315.010895,30.302261 
	C305.509766,27.431128 296.064606,27.606136 286.527802,30.503782 
	C235.374863,46.046062 184.189255,61.480904 133.014450,76.951271 
	C118.161148,81.441498 112.517555,89.052200 112.515022,104.650673 
	C112.509605,138.128525 112.506874,171.606384 112.531181,205.084229 
	C112.532494,206.895584 112.791756,208.706741 112.930946,210.517975 
	C105.884651,211.366516 98.838356,212.215057 91.339073,213.012360 
	C90.923454,175.820007 91.069267,138.678558 90.957214,101.537865 
	C90.890823,79.529564 104.433647,62.221840 125.718369,56.048885 
	C139.308487,52.107502 152.869553,48.064560 166.422180,43.995625 
	C200.762039,33.685688 235.163406,23.571066 269.383514,12.877026 
	C281.822357,8.989792 294.191528,5.721127 307.270264,7.085684 
	C313.188690,7.703178 319.158447,8.767324 324.848328,10.480811 
	C356.711731,20.076361 388.482422,29.979288 420.313782,39.681942 
	C440.613068,45.869450 461.022247,51.701588 481.271637,58.045876 
	C498.913239,63.573120 510.884247,81.386993 510.956146,99.106392 
	C511.108887,136.748672 511.008545,174.391998 511.062988,212.498062 
z"/>
<path fill="#002050" opacity="1.000000" stroke="none" 
	d="
M490.014618,395.145752 
	C496.889343,396.250580 503.764099,397.355408 510.869568,398.778625 
	C510.390900,428.509247 499.794617,454.397003 481.972351,477.279846 
	C473.296722,488.418945 463.745148,499.054596 453.470551,508.729156 
	C436.542633,524.668396 417.773071,538.453735 397.533203,549.937805 
	C380.135345,559.809326 362.428894,569.201965 344.440521,577.945618 
	C331.891052,584.045593 318.581329,588.565735 305.718079,594.042664 
	C299.640869,596.630249 294.373962,593.705017 289.450562,591.584106 
	C268.012024,582.348572 246.432663,573.294495 225.667206,562.681946 
	C204.083145,551.651062 183.471237,538.715149 164.752914,523.141907 
	C154.899353,514.943909 145.021576,506.638275 136.152512,497.421173 
	C115.397797,475.851929 99.865349,451.045380 93.309151,421.432343 
	C91.765297,414.459106 91.723396,407.153290 90.946198,399.550262 
	C97.650978,397.748596 104.400116,396.397156 111.570869,395.534302 
	C112.343834,411.637604 115.638069,426.547668 122.243309,440.760101 
	C134.248505,466.591400 153.279663,486.662476 175.064606,504.183777 
	C211.672607,533.626953 253.022095,554.739807 296.791260,571.291077 
	C299.266205,572.226990 302.830811,572.325867 305.172516,571.252747 
	C328.267151,560.669128 351.741943,550.741089 374.071838,538.703369 
	C407.614105,520.621338 438.240540,498.387634 462.282593,468.197845 
	C479.308044,446.818909 489.772430,422.913513 490.014618,395.145752 
z"/>
<path fill="#FDFDFD" opacity="1.000000" stroke="none" 
	d="
M568.984131,240.105255 
	C573.219543,244.862976 574.012146,250.117126 572.923950,255.805206 
	C565.422546,295.016022 557.996643,334.241669 550.352173,373.424591 
	C548.111084,384.911530 539.051392,390.113831 527.377563,388.576141 
	C488.449188,383.448517 449.569061,377.534698 410.476257,374.196381 
	C373.366272,371.027374 336.020813,369.721710 298.763214,369.396057 
	C249.303726,368.963745 199.904648,371.769836 150.780106,377.905731 
	C125.029099,381.122192 99.360504,385.012787 73.679398,388.767883 
	C62.520397,390.399567 53.585590,384.202209 51.341835,372.500031 
	C45.138870,340.148895 39.052410,307.775452 32.913387,275.412048 
	C31.797895,269.531433 30.699823,263.646881 29.509754,257.781189 
	C26.890743,244.872345 32.998161,235.126007 45.952587,233.006409 
	C68.115585,229.380081 90.276138,225.404221 112.596680,223.147446 
	C154.481277,218.912628 196.423431,214.706680 238.447449,212.558502 
	C273.493347,210.767059 308.706726,211.219635 343.815887,212.010895 
	C373.916534,212.689270 404.055389,214.396408 434.030151,217.214096 
	C467.976044,220.405075 501.763184,225.298798 535.606506,229.554092 
	C542.040649,230.363068 548.586853,231.066864 554.762268,232.896362 
	C559.677429,234.352524 564.105957,237.451279 568.984131,240.105255 
M286.535217,310.938416 
	C283.210693,302.660065 283.210693,302.660065 274.916992,303.513885 
	C274.916992,315.894073 274.916992,328.288635 274.916992,340.796082 
	C276.886536,340.796082 278.476379,340.796082 280.649719,340.796082 
	C280.649719,331.785248 280.649719,322.968079 280.649719,314.150909 
	C284.841705,321.749207 287.902618,329.552399 291.253448,337.229065 
	C291.912048,338.737885 293.690308,339.757965 294.952179,341.003448 
	C296.160492,339.688507 297.845673,338.574127 298.497101,337.025024 
	C301.869720,329.005035 304.978149,320.873932 308.178650,312.781586 
	C308.463409,312.844910 308.748169,312.908264 309.032928,312.971588 
	C309.032928,322.186249 309.032928,331.400909 309.032928,340.667938 
	C311.280609,340.667938 313.147247,340.667938 314.844208,340.667938 
	C314.844208,327.935577 314.844208,315.543060 314.844208,303.500000 
	C308.396973,301.370880 305.302734,304.129242 303.882202,309.898010 
	C303.292297,312.293732 302.058014,314.529572 301.130310,316.843536 
	C299.195770,321.668915 297.270203,326.497925 294.970032,332.253662 
	C291.933899,324.585663 289.375549,318.124390 286.535217,310.938416 
M165.127029,313.345795 
	C162.815125,308.778503 159.278320,307.378815 154.162643,309.431305 
	C154.988419,321.607727 155.826157,333.960480 156.685394,346.630310 
	C159.023758,346.424866 160.784760,346.270142 162.660736,346.105316 
	C162.067276,336.632874 161.496506,327.522705 160.834595,316.957764 
	C167.568726,325.951141 173.522064,333.515564 179.014954,341.400696 
	C181.754578,345.333466 184.726959,345.641876 188.699860,343.965790 
	C187.850021,331.543304 187.014587,319.331329 186.158615,306.819366 
	C183.914017,306.982635 182.178391,307.108887 180.172745,307.254761 
	C180.791840,316.604218 181.387924,325.606171 182.086594,336.157227 
	C175.979553,327.922974 170.779739,320.911926 165.127029,313.345795 
M361.239838,323.998413 
	C361.415649,320.931427 361.591461,317.864471 361.767273,314.797485 
	C367.533722,322.594299 372.630859,330.483826 377.114960,338.707611 
	C379.368225,342.840088 382.191284,343.873413 387.175781,342.610901 
	C387.175781,330.461395 387.175781,318.113129 387.175781,305.493011 
	C385.670044,305.493011 383.963989,305.493011 382.095886,305.493011 
	C381.681427,314.777344 381.280792,323.751923 380.823547,333.994415 
	C375.497986,325.092682 370.648041,317.554657 366.412903,309.685699 
	C364.013458,305.227417 361.149567,303.312714 355.532166,305.123840 
	C355.532166,317.301727 355.532166,329.669495 355.532166,342.219452 
	C357.105255,342.149292 358.727386,342.076935 361.199463,341.966675 
	C361.199463,336.145294 361.199463,330.531555 361.239838,323.998413 
M198.102142,331.491425 
	C198.341324,335.547668 198.580505,339.603912 198.834869,343.917328 
	C204.106522,343.560760 208.772858,343.513947 213.357773,342.879120 
	C222.936539,341.552856 229.579239,333.942474 229.824356,324.442902 
	C230.068542,314.980255 225.193344,307.467224 216.822159,306.327667 
	C210.386932,305.451660 203.736969,306.153168 198.001282,306.153168 
	C198.001282,314.603241 198.001282,322.560486 198.102142,331.491425 
M288.150818,260.457306 
	C288.353851,264.099945 288.193787,267.808228 288.837860,271.371124 
	C290.059296,278.127899 294.451263,281.374756 302.058105,281.773773 
	C309.380554,282.157837 315.921753,278.736389 316.707184,272.491486 
	C317.914917,262.888916 317.781433,253.117691 318.214935,243.464539 
	C315.337128,243.464539 313.592682,243.464539 311.508759,243.464539 
	C311.508759,246.578934 311.559967,249.391418 311.498108,252.201431 
	C311.370087,258.015839 311.641357,263.897308 310.791107,269.608704 
	C310.453400,271.877258 307.908386,274.898834 305.764648,275.531219 
	C303.324402,276.251129 299.129425,275.610626 297.651123,273.886261 
	C295.631775,271.530762 294.827698,267.632965 294.622253,264.326752 
	C294.191437,257.393982 294.491547,250.415787 294.491547,243.390808 
	C292.210236,243.390808 290.440948,243.390808 288.150848,243.390808 
	C288.150848,248.903915 288.150848,254.187576 288.150818,260.457306 
M328.165192,253.567017 
	C328.165192,262.981018 328.165192,272.395050 328.165192,281.926819 
	C330.199799,281.926819 331.940277,281.926819 334.112061,281.926819 
	C334.112061,276.891541 334.112061,272.104523 334.112061,267.425385 
	C338.348419,266.204254 340.974487,267.783325 342.863342,270.984039 
	C344.299286,273.417145 346.004852,275.751190 347.037506,278.349091 
	C348.880829,282.986450 352.112335,283.031555 356.696838,281.941864 
	C352.801117,275.995239 349.219391,270.527954 345.627502,265.045135 
	C346.503326,264.510681 347.679596,263.884644 348.756409,263.118744 
	C352.230194,260.647980 353.506378,257.147552 352.886139,253.069626 
	C352.244263,248.849289 349.530396,245.897079 345.466949,245.271286 
	C339.965973,244.424118 334.334778,244.422974 328.165222,244.020081 
	C328.165222,247.358093 328.165222,249.974121 328.165192,253.567017 
M116.698311,334.794922 
	C116.766541,335.457520 116.822899,336.121582 116.904778,336.782501 
	C118.060387,346.110535 123.045967,350.536652 131.741730,349.958801 
	C141.593521,349.304138 146.577240,344.255463 146.118698,334.627197 
	C145.733170,326.531769 144.710709,318.466705 143.931046,309.960693 
	C141.616974,310.337311 139.782715,310.635834 137.719208,310.971680 
	C138.505157,319.087891 139.446442,326.679626 139.918274,334.300446 
	C140.359100,341.420502 136.623199,344.965912 130.087296,344.115906 
	C124.844940,343.434143 123.616730,339.362183 123.084923,335.112244 
	C122.160172,327.722137 121.535889,320.294403 120.741852,312.449982 
	C118.589729,312.698914 116.733803,312.913605 114.584572,313.162201 
	C115.280960,320.375549 115.934631,327.146362 116.698311,334.794922 
M245.870941,274.643433 
	C242.131592,265.593292 238.524628,256.483734 234.517456,247.553818 
	C233.878967,246.130966 231.416824,244.702332 229.845901,244.753494 
	C228.270187,244.804794 226.022186,246.373459 225.353271,247.856445 
	C223.517258,251.926971 222.345276,256.298187 220.929062,260.556610 
	C218.491806,267.885132 216.068634,275.218384 213.649948,282.518341 
	C222.946091,285.200989 220.820465,276.841797 223.491425,273.296875 
	C236.939957,271.938599 236.939957,271.938599 242.252899,282.038239 
	C244.085571,281.952454 246.038757,281.861023 248.548889,281.743530 
	C247.620300,279.353058 246.853226,277.378357 245.870941,274.643433 
M438.593994,336.848358 
	C442.690552,336.640961 446.165253,337.089905 446.458832,342.455322 
	C446.730560,347.422272 449.900421,348.022400 454.367981,346.949493 
	C450.844177,334.795288 447.491760,322.839813 443.764343,311.002441 
	C443.404633,309.860046 440.759094,308.998962 439.098724,308.849243 
	C437.864960,308.737976 435.805450,309.655457 435.314148,310.686676 
	C429.979980,321.882385 424.883179,333.191254 419.539703,344.866882 
	C422.798615,344.887451 426.426117,347.264954 427.545593,342.423431 
	C428.903870,336.548950 432.447845,335.297974 438.593994,336.848358 
M268.036224,340.757477 
	C263.530365,329.023499 259.110168,317.254669 254.371277,305.615601 
	C253.949539,304.579803 251.455048,303.939941 249.923752,303.940918 
	C248.619751,303.941711 246.504379,304.834625 246.136810,305.840454 
	C241.820343,317.652374 237.766098,329.560150 233.631836,341.473938 
	C242.888199,344.438202 240.934875,335.850922 243.831512,332.003326 
	C246.863953,332.003326 250.061020,332.363464 253.138779,331.911407 
	C256.917328,331.356445 259.273285,332.286316 259.883789,336.235046 
	C260.559296,340.604187 263.216370,341.890869 268.036224,340.757477 
M279.824127,248.061417 
	C280.175476,246.796158 280.526825,245.530884 280.902069,244.179535 
	C271.232391,244.179535 262.293152,244.179535 252.982834,244.179535 
	C253.078720,246.123993 253.155136,247.673874 253.244659,249.489319 
	C259.520447,249.489319 265.393555,249.489319 271.715942,249.489319 
	C265.119476,260.528870 257.036377,270.124847 251.125534,281.551941 
	C261.830811,281.551941 271.283508,281.551941 281.221161,281.551941 
	C281.076202,279.515045 280.966309,277.970795 280.836395,276.145447 
	C274.205261,276.145447 268.015533,276.145447 261.003540,276.145447 
	C267.406464,266.555084 273.378998,257.609406 279.824127,248.061417 
M345.034851,324.511505 
	C345.034851,322.945190 345.034851,321.378876 345.034851,319.391937 
	C340.533966,319.391937 336.604645,319.391937 332.566345,319.391937 
	C332.566345,315.721222 332.566345,312.489349 332.566345,308.858978 
	C337.327087,308.858978 341.731140,308.858978 346.341949,308.858978 
	C346.466949,306.928864 346.565826,305.401855 346.688385,303.509521 
	C339.624237,303.509521 333.074677,303.509521 326.166443,303.509521 
	C326.166443,316.074097 326.166443,328.299408 326.166443,340.981201 
	C333.031433,340.981201 339.891510,340.981201 346.714844,340.981201 
	C346.714844,339.313171 346.714844,337.754883 346.714844,335.799500 
	C341.686188,335.799500 336.943939,335.799500 332.406006,335.799500 
	C332.406006,331.965668 332.406006,328.555969 332.406006,324.944763 
	C336.601837,324.944763 340.403351,324.944763 345.034851,324.511505 
M361.813477,278.370209 
	C361.935272,279.612579 362.057037,280.854950 362.215729,282.473785 
	C369.358765,282.473785 376.121521,282.473785 382.846680,282.473785 
	C382.846680,280.933563 382.846680,279.452393 382.846680,277.761017 
	C377.961548,277.459259 373.214233,277.166016 368.084595,276.849152 
	C368.269287,273.041595 368.434052,269.644043 368.608551,266.046021 
	C373.021820,266.046021 376.980316,266.046021 381.157837,266.046021 
	C381.405304,264.439941 381.624176,263.019379 381.904785,261.198059 
	C377.522461,260.986115 373.435638,260.788452 369.236694,260.585388 
	C369.236694,256.929138 369.236694,253.566559 369.236694,249.953522 
	C374.052979,249.953522 378.468536,249.953522 383.009644,249.953522 
	C383.009644,248.271454 383.009644,246.848907 383.009644,244.949615 
	C376.291229,244.949615 369.740540,244.949615 361.825043,244.949615 
	C361.825043,255.799423 361.825043,266.598969 361.813477,278.370209 
M489.683319,326.589264 
	C490.039154,327.335693 490.207520,328.301025 490.781586,328.792633 
	C494.286224,331.793945 498.112488,334.459900 501.347565,337.718140 
	C502.857300,339.238647 504.434052,342.241943 503.874390,343.831879 
	C503.315186,345.420471 500.033112,347.108337 498.109436,346.934052 
	C494.358307,346.594147 490.722229,344.984955 487.005981,343.891846 
	C484.782318,348.072235 486.709351,350.404449 491.224396,351.151947 
	C494.473694,351.689880 497.772766,352.246826 501.047455,352.234283 
	C505.549164,352.217072 509.159363,350.235870 510.654083,345.698486 
	C512.196533,341.015991 510.464935,337.155396 506.858154,334.170288 
	C504.178955,331.952850 500.975220,330.323975 498.501343,327.921875 
	C497.176300,326.635223 496.068909,324.096161 496.411926,322.443665 
	C496.688538,321.111023 499.305756,319.347839 500.852753,319.378540 
	C504.515961,319.451263 508.160248,320.477386 512.083923,321.165710 
	C513.707153,317.745483 512.936890,315.132538 508.064575,314.686554 
	C505.107269,314.415802 502.105225,313.832031 499.187042,314.095428 
	C492.221649,314.724152 489.099670,318.705292 489.683319,326.589264 
M107.312691,332.704956 
	C106.307579,331.876007 105.284012,330.325104 104.300705,330.350220 
	C101.037025,330.433563 97.787834,331.084106 94.153992,331.567535 
	C93.656952,327.679352 93.206543,324.155975 92.735458,320.470856 
	C97.604889,319.766937 101.832642,319.155762 106.419037,318.492767 
	C106.192696,316.618988 106.002113,315.041290 105.787537,313.264893 
	C98.929558,314.206482 92.439240,315.097595 85.702065,316.022614 
	C87.385536,328.749176 88.988747,340.868988 90.630920,353.283356 
	C92.974983,353.011749 94.729172,352.808441 96.710953,352.578796 
	C96.097557,347.170746 95.527336,342.143341 94.934052,336.912659 
	C98.223465,336.496490 101.057228,336.331665 103.786568,335.709076 
	C105.106384,335.408020 106.230011,334.246948 107.312691,332.704956 
M401.547394,311.009125 
	C402.792572,311.134583 404.037781,311.260040 405.432434,311.400574 
	C404.893646,322.365417 404.375366,332.912811 403.845245,343.701111 
	C406.173370,343.803955 407.920715,343.881134 409.973938,343.971832 
	C410.642914,332.936768 411.289581,322.270081 411.926727,311.760193 
	C415.938232,311.760193 419.213257,311.760193 422.610535,311.760193 
	C422.610535,309.980743 422.610535,308.452820 422.610535,306.712463 
	C413.397461,306.224487 404.474182,305.751862 395.169037,305.259033 
	C395.042908,307.050262 394.932861,308.613678 394.800507,310.493561 
	C397.029083,310.667511 398.818848,310.807251 401.547394,311.009125 
M470.963196,348.459839 
	C474.363922,348.754883 477.764618,349.049927 481.484344,349.372620 
	C481.643463,347.295441 481.750824,345.893463 481.873108,344.297180 
	C476.999420,343.740448 472.442993,343.219971 467.539612,342.659851 
	C468.513885,331.757904 469.462708,321.140656 470.433136,310.281586 
	C467.887909,310.281586 466.157837,310.281586 464.247742,310.281586 
	C463.052307,322.704773 461.882111,334.865753 460.674530,347.415558 
	C464.170227,347.755859 467.114166,348.042480 470.963196,348.459839 
z"/>
<path fill="#FEFEFE" opacity="1.000000" stroke="none" 
	d="
M113.390213,210.553329 
	C112.791756,208.706741 112.532494,206.895584 112.531181,205.084229 
	C112.506874,171.606384 112.509605,138.128525 112.515022,104.650673 
	C112.517555,89.052200 118.161148,81.441498 133.014450,76.951271 
	C184.189255,61.480904 235.374863,46.046062 286.527802,30.503782 
	C296.064606,27.606136 305.509766,27.431128 315.010895,30.302261 
	C366.817688,45.957680 418.621124,61.624283 470.417206,77.315140 
	C483.093964,81.155380 489.430298,89.426430 489.455170,102.638199 
	C489.522278,138.280472 489.438324,173.923035 489.241699,210.041733 
	C452.968109,207.364944 416.918549,203.234818 380.751770,201.334198 
	C344.728119,199.441116 308.553253,198.521393 272.506104,199.481201 
	C231.153931,200.582260 189.861282,204.098160 148.560486,206.832764 
	C136.958115,207.600983 125.418098,209.310760 113.390213,210.553329 
M230.791061,112.530991 
	C230.791061,115.964272 230.791061,119.397545 230.791061,122.796600 
	C233.360687,122.796600 235.296951,122.796600 237.440323,122.796600 
	C237.440323,112.499466 237.440323,102.426888 237.440323,92.183533 
	C236.049805,92.106148 234.887436,92.168602 233.776993,91.957672 
	C228.932556,91.037437 226.732071,93.190727 225.585510,97.847214 
	C224.330246,102.945206 222.235382,107.836449 220.207504,113.678925 
	C217.529083,106.016586 215.096390,99.057220 212.679993,92.144440 
	C209.248474,92.144440 206.115433,92.144440 202.745941,92.144440 
	C202.745941,102.410133 202.745941,112.511864 202.745941,122.693146 
	C204.806473,122.693146 206.687637,122.693146 208.900421,122.693146 
	C208.900421,115.810555 208.900421,109.247238 208.900421,102.683929 
	C209.159866,102.630035 209.419312,102.576141 209.678772,102.522247 
	C212.118683,109.304176 214.558578,116.086098 216.924973,122.663681 
	C221.118393,123.864250 223.226486,122.772400 224.319687,118.501877 
	C225.768326,112.842918 228.101135,107.410309 230.053970,101.880424 
	C230.299667,101.963692 230.545364,102.046959 230.791061,102.130219 
	C230.791061,105.272522 230.791061,108.414825 230.791061,112.530991 
M317.808411,107.297905 
	C314.448212,100.556198 307.558258,98.060028 300.775665,101.127098 
	C295.215057,103.641594 292.849915,110.836472 295.593445,116.891518 
	C298.097961,122.418961 305.501801,124.709381 311.913757,121.940300 
	C316.888123,119.792061 318.706177,115.651871 317.808411,107.297905 
M341.239075,106.969460 
	C341.008301,108.607910 340.573669,110.247459 340.582581,111.884605 
	C340.618530,118.490196 344.757629,122.667084 351.436554,123.010460 
	C358.690979,123.383438 363.577484,119.438698 364.192078,112.713295 
	C364.757965,106.520683 362.302155,102.452126 356.928436,100.679619 
	C350.692993,98.622879 345.071381,100.690811 341.239075,106.969460 
M326.366638,113.235649 
	C328.196930,114.108902 330.027222,114.982162 331.857544,115.855415 
	C331.732056,116.499138 331.606567,117.142853 331.481110,117.786568 
	C328.162933,117.569641 324.844788,117.352722 321.560730,117.138023 
	C321.560730,118.571129 321.560730,120.164200 321.560730,122.907295 
	C325.736450,122.627380 329.804871,123.030968 333.351196,121.857239 
	C335.400208,121.179085 337.672089,118.050400 337.865784,115.850517 
	C338.029205,113.994110 335.623169,111.567039 333.830750,109.986336 
	C332.251892,108.593933 329.948303,108.023254 327.964752,107.089699 
	C328.065826,106.635216 328.166870,106.180740 328.267944,105.726257 
	C331.133118,105.726257 333.998291,105.726257 337.047913,105.726257 
	C336.957794,103.788300 336.890656,102.344017 336.796448,100.318100 
	C333.623932,100.318100 330.433258,99.594254 327.839294,100.528038 
	C325.397827,101.406921 322.731171,103.657921 321.707458,105.984535 
	C320.350494,109.068642 322.524536,111.625839 326.366638,113.235649 
M370.667023,110.711884 
	C370.667023,114.659470 370.667023,118.607056 370.667023,122.695862 
	C373.137390,122.695862 375.194092,122.695862 377.526917,122.695862 
	C377.526917,116.772621 377.526917,111.151718 377.526917,105.414093 
	C379.300812,105.088226 380.828156,104.807648 382.195435,104.556473 
	C382.195435,102.954079 382.195435,101.679565 382.195435,100.222298 
	C380.564026,100.050606 379.134277,99.900131 377.609558,99.739662 
	C377.019501,95.262489 379.493988,94.521828 384.294617,95.524612 
	C382.971588,93.020035 382.580597,90.958466 381.411377,90.318260 
	C378.120911,88.516602 372.078857,91.716705 370.984283,95.467270 
	C370.416748,97.411911 371.529541,100.573837 367.622772,100.086884 
	C367.692902,101.704613 367.763000,103.322350 367.833099,104.940079 
	C371.968323,104.679855 370.320526,107.810921 370.667023,110.711884 
M388.548798,116.687408 
	C389.834503,121.709328 392.974670,124.149849 397.375519,122.821335 
	C398.785339,122.395737 399.633942,120.111061 401.262268,117.998474 
	C394.776764,117.297981 394.503937,116.466591 395.548126,105.388527 
	C397.014252,105.119751 398.540924,104.839867 399.898468,104.590988 
	C399.898468,102.970726 399.898468,101.679810 399.898468,100.181061 
	C398.333740,100.033028 396.916748,99.898972 395.412598,99.756668 
	C395.230713,97.401718 395.072571,95.354271 394.873413,92.775642 
	C392.264221,94.672737 389.415436,93.734520 387.854858,97.822670 
	C386.424194,101.570503 383.490051,103.848488 388.245056,106.919067 
	C388.627625,107.166138 388.294617,108.507355 388.310028,109.339836 
	C388.350037,111.503197 388.398926,113.666382 388.548798,116.687408 
M256.350464,107.065605 
	C255.060989,111.981339 254.954163,116.812393 259.221283,120.338142 
	C263.425018,123.811546 268.263306,123.850639 273.491089,121.596291 
	C273.382141,120.027718 273.276642,118.509102 273.171173,116.990486 
	C272.873138,117.423935 272.575073,117.857391 272.277039,118.290848 
	C269.399353,117.449028 265.739899,117.378143 263.900269,115.512650 
	C262.518341,114.111320 262.348145,109.224869 263.642426,107.989685 
	C265.801849,105.928818 269.564178,105.547539 273.648621,104.107712 
	C274.544922,101.154434 272.378418,99.805374 268.126984,99.952805 
	C263.138123,100.125801 259.064423,101.677376 256.350464,107.065605 
M292.192780,101.782890 
	C289.847015,99.264450 289.584167,99.296173 286.754425,101.483299 
	C283.199036,100.691154 280.805481,100.157875 278.170898,99.570885 
	C278.170898,107.921608 278.170898,115.429764 278.170898,123.088799 
	C280.480927,122.984627 282.408661,122.897697 284.836029,122.788239 
	C284.836029,118.659195 284.728882,114.869179 284.869904,111.088432 
	C284.982666,108.065414 286.461395,105.784927 289.762299,106.103363 
	C293.083344,106.423744 292.012817,104.239052 292.192780,101.782890 
M396.197723,146.346024 
	C391.610809,141.588135 385.848511,143.219803 380.181885,143.040222 
	C380.181885,150.829025 380.181885,158.226974 380.181885,165.917267 
	C386.378662,166.179611 392.625854,166.954666 396.583740,161.103424 
	C399.601227,156.642410 399.332275,151.680954 396.197723,146.346024 
M265.873474,154.431686 
	C268.911163,152.375473 270.079895,149.512833 268.269043,146.296204 
	C265.151611,140.758636 259.839142,143.665741 255.299133,143.010437 
	C255.299133,150.918518 255.299133,158.417023 255.299133,165.915527 
	C255.886810,166.019379 256.474487,166.123245 257.062164,166.227097 
	C257.491638,162.943436 257.921143,159.659775 258.344452,156.423172 
	C266.050415,154.902817 264.419952,165.699539 271.298401,166.110886 
	C269.097076,162.024796 267.178070,158.462692 265.873474,154.431686 
M243.892914,113.476006 
	C243.892914,116.582451 243.892914,119.688889 243.892914,122.812859 
	C246.371643,122.812859 248.299332,122.812859 250.468750,122.812859 
	C250.468750,115.207184 250.468750,107.814400 250.468750,100.282242 
	C248.199402,100.282242 246.164322,100.282242 243.892914,100.282242 
	C243.892914,104.555122 243.892914,108.521935 243.892914,113.476006 
M233.871948,146.766342 
	C236.842560,145.931854 239.813156,145.097366 242.783768,144.262894 
	C242.760590,143.999893 242.737411,143.736908 242.714249,143.473907 
	C238.952850,143.473907 235.191452,143.473907 231.337006,143.473907 
	C231.337006,150.897507 231.337006,158.404053 231.337006,165.521896 
	C235.499329,165.521896 239.298431,165.521896 243.097549,165.521896 
	C243.133881,165.039688 243.170212,164.557480 243.206558,164.075256 
	C240.212280,163.771057 237.218018,163.466858 234.138519,163.153992 
	C234.138519,160.558609 234.138519,158.154190 234.138519,155.783081 
	C237.007553,155.481033 239.561935,155.212097 242.116318,154.943176 
	C242.034454,154.305191 241.952576,153.667191 241.870697,153.029205 
	C239.317169,153.029205 236.763641,153.029205 233.845627,153.029205 
	C233.845627,150.925461 233.845627,149.306091 233.871948,146.766342 
M356.983093,146.657684 
	C356.983093,153.058975 356.983093,159.460266 356.983093,165.566467 
	C361.458008,165.566467 365.271118,165.566467 369.084198,165.566467 
	C369.123749,165.064774 369.163330,164.563080 369.202911,164.061386 
	C366.229889,163.769287 363.256866,163.477188 360.105042,163.167511 
	C360.105042,160.636581 360.105042,158.226456 360.105042,155.826797 
	C362.965179,155.523468 365.530884,155.251358 368.096588,154.979248 
	C368.038483,154.409134 367.980408,153.839020 367.922302,153.268890 
	C365.253082,153.070282 362.583893,152.871658 360.175903,152.692490 
	C360.175903,150.015274 360.175903,147.766953 360.175903,145.484039 
	C363.265991,145.223831 366.029022,144.991165 368.792023,144.758499 
	C368.772980,144.192932 368.753906,143.627350 368.734833,143.061783 
	C365.095123,143.061783 361.452148,142.996002 357.821350,143.175949 
	C357.501343,143.191803 357.260956,144.814117 356.983093,146.657684 
M203.916916,148.637894 
	C201.440720,155.480072 202.308258,160.683380 206.501907,164.142319 
	C210.580963,167.506714 217.441620,167.120209 219.608551,163.403915 
	C209.318741,164.133041 205.582077,162.151642 205.500626,155.326904 
	C205.471146,152.856766 206.151703,149.126114 207.800064,148.148331 
	C211.242050,146.106567 215.543732,145.514099 219.255295,144.397552 
	C216.425873,140.486328 209.583160,141.729050 203.916916,148.637894 
M325.366577,142.958145 
	C323.286560,142.958145 321.206543,142.958145 319.207916,142.958145 
	C319.207916,151.061676 319.207916,158.487854 319.207916,166.794754 
	C324.028656,163.737778 320.321106,158.980972 322.529724,156.061661 
	C325.023651,155.892441 327.517578,155.723221 330.011536,155.554001 
	C330.044281,154.965744 330.077026,154.377472 330.109772,153.789200 
	C327.502350,153.439438 324.894958,153.089676 322.217773,152.730560 
	C322.217773,150.283798 322.217773,147.912918 322.217773,145.536682 
	C325.314636,145.255859 328.074677,145.005585 330.834717,144.755310 
	C330.834991,144.272507 330.835236,143.789719 330.835510,143.306915 
	C329.324249,143.190659 327.813019,143.074417 325.366577,142.958145 
M287.030334,161.312592 
	C287.030334,156.042221 287.030334,150.771851 287.030334,145.583313 
	C289.706757,145.234055 291.791534,144.962006 293.876312,144.689957 
	C293.816925,144.309540 293.757507,143.929108 293.698120,143.548676 
	C288.438782,143.548676 283.179474,143.548676 277.920166,143.548676 
	C277.883636,143.958130 277.847076,144.367599 277.810547,144.777054 
	C279.770721,145.026703 281.730896,145.276352 284.139862,145.583145 
	C284.139862,151.324982 284.048615,156.945694 284.215088,162.558792 
	C284.249329,163.712830 285.246307,164.838303 285.799561,165.976929 
	C286.209808,164.738876 286.620056,163.500809 287.030334,161.312592 
M306.876160,153.518265 
	C306.876160,144.058395 306.876160,144.058395 304.406311,143.175934 
	C304.406311,150.773407 304.406311,158.370865 304.406311,165.968323 
	C304.864380,166.017212 305.322479,166.066101 305.780548,166.114990 
	C308.217743,162.609146 306.229828,158.322052 306.876160,153.518265 
M344.876160,159.370377 
	C344.876160,143.970444 344.876160,143.970444 342.224976,143.237061 
	C342.224976,150.823288 342.224976,158.370331 342.224976,165.917374 
	C342.785461,166.037308 343.345947,166.157242 343.906433,166.277176 
	C344.229675,164.294647 344.552917,162.312119 344.876160,159.370377 
M246.799286,97.012169 
	C248.229996,95.826027 249.660706,94.639893 251.091415,93.453751 
	C250.121628,92.308952 249.301697,90.457802 248.141281,90.211639 
	C246.901489,89.948624 244.098022,91.314308 244.139908,91.770332 
	C244.300552,93.518715 245.329575,95.187309 246.799286,97.012169 
z"/>
<path fill="#0064B5" opacity="1.000000" stroke="none" 
	d="
M489.606567,395.060455 
	C489.772430,422.913513 479.308044,446.818909 462.282593,468.197845 
	C438.240540,498.387634 407.614105,520.621338 374.071838,538.703369 
	C351.741943,550.741089 328.267151,560.669128 305.172516,571.252747 
	C302.830811,572.325867 299.266205,572.226990 296.791260,571.291077 
	C253.022095,554.739807 211.672607,533.626953 175.064606,504.183777 
	C153.279663,486.662476 134.248505,466.591400 122.243309,440.760101 
	C115.638069,426.547668 112.343834,411.637604 111.988937,395.584290 
	C127.603661,393.096985 143.191772,390.769989 158.848160,389.072968 
	C176.661133,387.142120 194.531311,385.730103 212.384659,384.185577 
	C218.339615,383.670410 224.314835,383.277161 230.288605,383.113220 
	C248.579590,382.611328 266.872620,382.036346 285.168121,381.886688 
	C305.767487,381.718201 326.393158,381.400909 346.965759,382.208618 
	C371.008087,383.152588 395.037231,384.873962 419.013031,386.942352 
	C440.987061,388.838074 462.883392,391.636169 484.810394,394.068665 
	C486.288452,394.232635 487.736481,394.666687 489.606567,395.060455 
M319.597015,476.238342 
	C326.385651,471.312073 333.174255,466.385803 339.962860,461.459534 
	C331.691467,460.425781 323.751678,460.210205 315.832153,460.517090 
	C311.896851,460.669586 309.933777,459.678253 308.830078,455.600372 
	C306.738403,447.872223 303.939728,440.335419 301.311951,432.345795 
	C300.598145,433.165649 300.294159,433.367584 300.203888,433.640289 
	C298.479340,438.849304 296.717621,444.047241 295.088287,449.286285 
	C291.626770,460.416656 291.656097,460.425781 279.804321,460.425781 
	C273.966339,460.425781 268.128357,460.425781 262.290375,460.425781 
	C268.323517,466.035095 274.289734,470.846619 280.728485,474.909149 
	C284.974396,477.588135 285.446411,480.262665 283.747345,484.688080 
	C281.030090,491.765564 278.971466,499.095886 276.185242,507.707642 
	C285.287079,501.165405 293.175201,495.495575 301.021484,489.855835 
	C309.102570,495.675659 316.839874,501.247894 324.577148,506.820129 
	C322.762268,498.203186 320.224030,490.160278 317.521851,482.172882 
	C316.741455,479.866150 316.460632,477.978699 319.597015,476.238342 
z"/>
<path fill="#2C2C2C" opacity="1.000000" stroke="none" 
	d="
M286.676208,311.300781 
	C289.375549,318.124390 291.933899,324.585663 294.970032,332.253662 
	C297.270203,326.497925 299.195770,321.668915 301.130310,316.843536 
	C302.058014,314.529572 303.292297,312.293732 303.882202,309.898010 
	C305.302734,304.129242 308.396973,301.370880 314.844208,303.500000 
	C314.844208,315.543060 314.844208,327.935577 314.844208,340.667938 
	C313.147247,340.667938 311.280609,340.667938 309.032928,340.667938 
	C309.032928,331.400909 309.032928,322.186249 309.032928,312.971588 
	C308.748169,312.908264 308.463409,312.844910 308.178650,312.781586 
	C304.978149,320.873932 301.869720,329.005035 298.497101,337.025024 
	C297.845673,338.574127 296.160492,339.688507 294.952179,341.003448 
	C293.690308,339.757965 291.912048,338.737885 291.253448,337.229065 
	C287.902618,329.552399 284.841705,321.749207 280.649719,314.150909 
	C280.649719,322.968079 280.649719,331.785248 280.649719,340.796082 
	C278.476379,340.796082 276.886536,340.796082 274.916992,340.796082 
	C274.916992,328.288635 274.916992,315.894073 274.916992,303.513885 
	C283.210693,302.660065 283.210693,302.660065 286.676208,311.300781 
z"/>
<path fill="#2F2F2F" opacity="1.000000" stroke="none" 
	d="
M165.353485,313.623352 
	C170.779739,320.911926 175.979553,327.922974 182.086594,336.157227 
	C181.387924,325.606171 180.791840,316.604218 180.172745,307.254761 
	C182.178391,307.108887 183.914017,306.982635 186.158615,306.819366 
	C187.014587,319.331329 187.850021,331.543304 188.699860,343.965790 
	C184.726959,345.641876 181.754578,345.333466 179.014954,341.400696 
	C173.522064,333.515564 167.568726,325.951141 160.834595,316.957764 
	C161.496506,327.522705 162.067276,336.632874 162.660736,346.105316 
	C160.784760,346.270142 159.023758,346.424866 156.685394,346.630310 
	C155.826157,333.960480 154.988419,321.607727 154.162643,309.431305 
	C159.278320,307.378815 162.815125,308.778503 165.353485,313.623352 
z"/>
<path fill="#2E2E2E" opacity="1.000000" stroke="none" 
	d="
M361.219666,324.458099 
	C361.199463,330.531555 361.199463,336.145294 361.199463,341.966675 
	C358.727386,342.076935 357.105255,342.149292 355.532166,342.219452 
	C355.532166,329.669495 355.532166,317.301727 355.532166,305.123840 
	C361.149567,303.312714 364.013458,305.227417 366.412903,309.685699 
	C370.648041,317.554657 375.497986,325.092682 380.823547,333.994415 
	C381.280792,323.751923 381.681427,314.777344 382.095886,305.493011 
	C383.963989,305.493011 385.670044,305.493011 387.175781,305.493011 
	C387.175781,318.113129 387.175781,330.461395 387.175781,342.610901 
	C382.191284,343.873413 379.368225,342.840088 377.114960,338.707611 
	C372.630859,330.483826 367.533722,322.594299 361.767273,314.797485 
	C361.591461,317.864471 361.415649,320.931427 361.219666,324.458099 
z"/>
<path fill="#2F2F2F" opacity="1.000000" stroke="none" 
	d="
M198.051712,331.004578 
	C198.001282,322.560486 198.001282,314.603241 198.001282,306.153168 
	C203.736969,306.153168 210.386932,305.451660 216.822159,306.327667 
	C225.193344,307.467224 230.068542,314.980255 229.824356,324.442902 
	C229.579239,333.942474 222.936539,341.552856 213.357773,342.879120 
	C208.772858,343.513947 204.106522,343.560760 198.834869,343.917328 
	C198.580505,339.603912 198.341324,335.547668 198.051712,331.004578 
M208.489182,337.999390 
	C219.145050,337.624573 224.052811,332.106537 222.954376,321.735504 
	C222.004486,312.766876 215.305603,309.241272 204.440521,311.433075 
	C204.440521,319.207886 204.423798,326.824707 204.451630,334.441406 
	C204.459122,336.494659 204.454330,338.677277 208.489182,337.999390 
z"/>
<path fill="#333333" opacity="1.000000" stroke="none" 
	d="
M288.150818,259.964264 
	C288.150848,254.187576 288.150848,248.903915 288.150848,243.390808 
	C290.440948,243.390808 292.210236,243.390808 294.491547,243.390808 
	C294.491547,250.415787 294.191437,257.393982 294.622253,264.326752 
	C294.827698,267.632965 295.631775,271.530762 297.651123,273.886261 
	C299.129425,275.610626 303.324402,276.251129 305.764648,275.531219 
	C307.908386,274.898834 310.453400,271.877258 310.791107,269.608704 
	C311.641357,263.897308 311.370087,258.015839 311.498108,252.201431 
	C311.559967,249.391418 311.508759,246.578934 311.508759,243.464539 
	C313.592682,243.464539 315.337128,243.464539 318.214935,243.464539 
	C317.781433,253.117691 317.914917,262.888916 316.707184,272.491486 
	C315.921753,278.736389 309.380554,282.157837 302.058105,281.773773 
	C294.451263,281.374756 290.059296,278.127899 288.837860,271.371124 
	C288.193787,267.808228 288.353851,264.099945 288.150818,259.964264 
z"/>
<path fill="#2E2E2E" opacity="1.000000" stroke="none" 
	d="
M328.165222,253.078583 
	C328.165222,249.974121 328.165222,247.358093 328.165222,244.020081 
	C334.334778,244.422974 339.965973,244.424118 345.466949,245.271286 
	C349.530396,245.897079 352.244263,248.849289 352.886139,253.069626 
	C353.506378,257.147552 352.230194,260.647980 348.756409,263.118744 
	C347.679596,263.884644 346.503326,264.510681 345.627502,265.045135 
	C349.219391,270.527954 352.801117,275.995239 356.696838,281.941864 
	C352.112335,283.031555 348.880829,282.986450 347.037506,278.349091 
	C346.004852,275.751190 344.299286,273.417145 342.863342,270.984039 
	C340.974487,267.783325 338.348419,266.204254 334.112061,267.425385 
	C334.112061,272.104523 334.112061,276.891541 334.112061,281.926819 
	C331.940277,281.926819 330.199799,281.926819 328.165192,281.926819 
	C328.165192,272.395050 328.165192,262.981018 328.165222,253.078583 
M339.232697,261.852814 
	C344.589050,261.130402 346.791016,258.736176 346.168457,254.311432 
	C345.582520,250.147232 341.540100,248.614624 334.272736,250.152817 
	C334.272736,252.635422 334.574738,255.296310 334.200195,257.858307 
	C333.671631,261.473969 335.315948,262.265076 339.232697,261.852814 
z"/>
<path fill="#2E2E2E" opacity="1.000000" stroke="none" 
	d="
M116.643303,334.356018 
	C115.934631,327.146362 115.280960,320.375549 114.584572,313.162201 
	C116.733803,312.913605 118.589729,312.698914 120.741852,312.449982 
	C121.535889,320.294403 122.160172,327.722137 123.084923,335.112244 
	C123.616730,339.362183 124.844940,343.434143 130.087296,344.115906 
	C136.623199,344.965912 140.359100,341.420502 139.918274,334.300446 
	C139.446442,326.679626 138.505157,319.087891 137.719208,310.971680 
	C139.782715,310.635834 141.616974,310.337311 143.931046,309.960693 
	C144.710709,318.466705 145.733170,326.531769 146.118698,334.627197 
	C146.577240,344.255463 141.593521,349.304138 131.741730,349.958801 
	C123.045967,350.536652 118.060387,346.110535 116.904778,336.782501 
	C116.822899,336.121582 116.766541,335.457520 116.643303,334.356018 
z"/>
<path fill="#303030" opacity="1.000000" stroke="none" 
	d="
M245.978546,275.023529 
	C246.853226,277.378357 247.620300,279.353058 248.548889,281.743530 
	C246.038757,281.861023 244.085571,281.952454 242.252899,282.038239 
	C236.939957,271.938599 236.939957,271.938599 223.491425,273.296875 
	C220.820465,276.841797 222.946091,285.200989 213.649948,282.518341 
	C216.068634,275.218384 218.491806,267.885132 220.929062,260.556610 
	C222.345276,256.298187 223.517258,251.926971 225.353271,247.856445 
	C226.022186,246.373459 228.270187,244.804794 229.845901,244.753494 
	C231.416824,244.702332 233.878967,246.130966 234.517456,247.553818 
	C238.524628,256.483734 242.131592,265.593292 245.978546,275.023529 
M229.532745,252.341064 
	C227.953125,257.356140 226.373489,262.371185 224.752441,267.517761 
	C228.753799,267.517761 232.181564,267.517761 236.382248,267.517761 
	C234.195557,262.123901 232.228485,257.271759 229.532745,252.341064 
z"/>
<path fill="#2F2F2F" opacity="1.000000" stroke="none" 
	d="
M438.148193,336.840271 
	C432.447845,335.297974 428.903870,336.548950 427.545593,342.423431 
	C426.426117,347.264954 422.798615,344.887451 419.539703,344.866882 
	C424.883179,333.191254 429.979980,321.882385 435.314148,310.686676 
	C435.805450,309.655457 437.864960,308.737976 439.098724,308.849243 
	C440.759094,308.998962 443.404633,309.860046 443.764343,311.002441 
	C447.491760,322.839813 450.844177,334.795288 454.367981,346.949493 
	C449.900421,348.022400 446.730560,347.422272 446.458832,342.455322 
	C446.165253,337.089905 442.690552,336.640961 438.148193,336.840271 
M443.279022,330.709564 
	C442.029205,325.840668 440.779388,320.971741 439.206879,314.845734 
	C436.639465,320.866974 434.564728,325.732758 432.055023,331.618683 
	C436.376068,331.618683 439.782684,331.618683 443.279022,330.709564 
z"/>
<path fill="#2F2F2F" opacity="1.000000" stroke="none" 
	d="
M267.648834,340.948730 
	C263.216370,341.890869 260.559296,340.604187 259.883789,336.235046 
	C259.273285,332.286316 256.917328,331.356445 253.138779,331.911407 
	C250.061020,332.363464 246.863953,332.003326 243.831512,332.003326 
	C240.934875,335.850922 242.888199,344.438202 233.631836,341.473938 
	C237.766098,329.560150 241.820343,317.652374 246.136810,305.840454 
	C246.504379,304.834625 248.619751,303.941711 249.923752,303.940918 
	C251.455048,303.939941 253.949539,304.579803 254.371277,305.615601 
	C259.110168,317.254669 263.530365,329.023499 267.648834,340.948730 
M248.620422,315.239532 
	C247.421478,319.042938 246.222519,322.846375 245.012466,326.684998 
	C249.017883,326.684998 252.405930,326.684998 256.379517,326.684998 
	C254.331039,321.094696 252.458099,315.983398 250.363693,310.267731 
	C249.713608,312.081482 249.275192,313.304626 248.620422,315.239532 
z"/>
<path fill="#2F2F2F" opacity="1.000000" stroke="none" 
	d="
M279.587830,248.362579 
	C273.378998,257.609406 267.406464,266.555084 261.003540,276.145447 
	C268.015533,276.145447 274.205261,276.145447 280.836395,276.145447 
	C280.966309,277.970795 281.076202,279.515045 281.221161,281.551941 
	C271.283508,281.551941 261.830811,281.551941 251.125534,281.551941 
	C257.036377,270.124847 265.119476,260.528870 271.715942,249.489319 
	C265.393555,249.489319 259.520447,249.489319 253.244659,249.489319 
	C253.155136,247.673874 253.078720,246.123993 252.982834,244.179535 
	C262.293152,244.179535 271.232391,244.179535 280.902069,244.179535 
	C280.526825,245.530884 280.175476,246.796158 279.587830,248.362579 
z"/>
<path fill="#2E2E2E" opacity="1.000000" stroke="none" 
	d="
M344.619873,324.728149 
	C340.403351,324.944763 336.601837,324.944763 332.406006,324.944763 
	C332.406006,328.555969 332.406006,331.965668 332.406006,335.799500 
	C336.943939,335.799500 341.686188,335.799500 346.714844,335.799500 
	C346.714844,337.754883 346.714844,339.313171 346.714844,340.981201 
	C339.891510,340.981201 333.031433,340.981201 326.166443,340.981201 
	C326.166443,328.299408 326.166443,316.074097 326.166443,303.509521 
	C333.074677,303.509521 339.624237,303.509521 346.688385,303.509521 
	C346.565826,305.401855 346.466949,306.928864 346.341949,308.858978 
	C341.731140,308.858978 337.327087,308.858978 332.566345,308.858978 
	C332.566345,312.489349 332.566345,315.721222 332.566345,319.391937 
	C336.604645,319.391937 340.533966,319.391937 345.034851,319.391937 
	C345.034851,321.378876 345.034851,322.945190 344.619873,324.728149 
z"/>
<path fill="#2C2C2C" opacity="1.000000" stroke="none" 
	d="
M361.819275,277.884369 
	C361.825043,266.598969 361.825043,255.799423 361.825043,244.949615 
	C369.740540,244.949615 376.291229,244.949615 383.009644,244.949615 
	C383.009644,246.848907 383.009644,248.271454 383.009644,249.953522 
	C378.468536,249.953522 374.052979,249.953522 369.236694,249.953522 
	C369.236694,253.566559 369.236694,256.929138 369.236694,260.585388 
	C373.435638,260.788452 377.522461,260.986115 381.904785,261.198059 
	C381.624176,263.019379 381.405304,264.439941 381.157837,266.046021 
	C376.980316,266.046021 373.021820,266.046021 368.608551,266.046021 
	C368.434052,269.644043 368.269287,273.041595 368.084595,276.849152 
	C373.214233,277.166016 377.961548,277.459259 382.846680,277.761017 
	C382.846680,279.452393 382.846680,280.933563 382.846680,282.473785 
	C376.121521,282.473785 369.358765,282.473785 362.215729,282.473785 
	C362.057037,280.854950 361.935272,279.612579 361.819275,277.884369 
z"/>
<path fill="#303030" opacity="1.000000" stroke="none" 
	d="
M489.557556,326.224487 
	C489.099670,318.705292 492.221649,314.724152 499.187042,314.095428 
	C502.105225,313.832031 505.107269,314.415802 508.064575,314.686554 
	C512.936890,315.132538 513.707153,317.745483 512.083923,321.165710 
	C508.160248,320.477386 504.515961,319.451263 500.852753,319.378540 
	C499.305756,319.347839 496.688538,321.111023 496.411926,322.443665 
	C496.068909,324.096161 497.176300,326.635223 498.501343,327.921875 
	C500.975220,330.323975 504.178955,331.952850 506.858154,334.170288 
	C510.464935,337.155396 512.196533,341.015991 510.654083,345.698486 
	C509.159363,350.235870 505.549164,352.217072 501.047455,352.234283 
	C497.772766,352.246826 494.473694,351.689880 491.224396,351.151947 
	C486.709351,350.404449 484.782318,348.072235 487.005981,343.891846 
	C490.722229,344.984955 494.358307,346.594147 498.109436,346.934052 
	C500.033112,347.108337 503.315186,345.420471 503.874390,343.831879 
	C504.434052,342.241943 502.857300,339.238647 501.347565,337.718140 
	C498.112488,334.459900 494.286224,331.793945 490.781586,328.792633 
	C490.207520,328.301025 490.039154,327.335693 489.557556,326.224487 
z"/>
<path fill="#2F2F2F" opacity="1.000000" stroke="none" 
	d="
M107.377579,333.090118 
	C106.230011,334.246948 105.106384,335.408020 103.786568,335.709076 
	C101.057228,336.331665 98.223465,336.496490 94.934052,336.912659 
	C95.527336,342.143341 96.097557,347.170746 96.710953,352.578796 
	C94.729172,352.808441 92.974983,353.011749 90.630920,353.283356 
	C88.988747,340.868988 87.385536,328.749176 85.702065,316.022614 
	C92.439240,315.097595 98.929558,314.206482 105.787537,313.264893 
	C106.002113,315.041290 106.192696,316.618988 106.419037,318.492767 
	C101.832642,319.155762 97.604889,319.766937 92.735458,320.470856 
	C93.206543,324.155975 93.656952,327.679352 94.153992,331.567535 
	C97.787834,331.084106 101.037025,330.433563 104.300705,330.350220 
	C105.284012,330.325104 106.307579,331.876007 107.377579,333.090118 
z"/>
<path fill="#303030" opacity="1.000000" stroke="none" 
	d="
M401.078003,310.978027 
	C398.818848,310.807251 397.029083,310.667511 394.800507,310.493561 
	C394.932861,308.613678 395.042908,307.050262 395.169037,305.259033 
	C404.474182,305.751862 413.397461,306.224487 422.610535,306.712463 
	C422.610535,308.452820 422.610535,309.980743 422.610535,311.760193 
	C419.213257,311.760193 415.938232,311.760193 411.926727,311.760193 
	C411.289581,322.270081 410.642914,332.936768 409.973938,343.971832 
	C407.920715,343.881134 406.173370,343.803955 403.845245,343.701111 
	C404.375366,332.912811 404.893646,322.365417 405.432434,311.400574 
	C404.037781,311.260040 402.792572,311.134583 401.078003,310.978027 
z"/>
<path fill="#2F2F2F" opacity="1.000000" stroke="none" 
	d="
M470.510651,348.394470 
	C467.114166,348.042480 464.170227,347.755859 460.674530,347.415558 
	C461.882111,334.865753 463.052307,322.704773 464.247742,310.281586 
	C466.157837,310.281586 467.887909,310.281586 470.433136,310.281586 
	C469.462708,321.140656 468.513885,331.757904 467.539612,342.659851 
	C472.442993,343.219971 476.999420,343.740448 481.873108,344.297180 
	C481.750824,345.893463 481.643463,347.295441 481.484344,349.372620 
	C477.764618,349.049927 474.363922,348.754883 470.510651,348.394470 
z"/>
<path fill="#222054" opacity="1.000000" stroke="none" 
	d="
M230.791061,112.044060 
	C230.791061,108.414825 230.791061,105.272522 230.791061,102.130219 
	C230.545364,102.046959 230.299667,101.963692 230.053970,101.880424 
	C228.101135,107.410309 225.768326,112.842918 224.319687,118.501877 
	C223.226486,122.772400 221.118393,123.864250 216.924973,122.663681 
	C214.558578,116.086098 212.118683,109.304176 209.678772,102.522247 
	C209.419312,102.576141 209.159866,102.630035 208.900421,102.683929 
	C208.900421,109.247238 208.900421,115.810555 208.900421,122.693146 
	C206.687637,122.693146 204.806473,122.693146 202.745941,122.693146 
	C202.745941,112.511864 202.745941,102.410133 202.745941,92.144440 
	C206.115433,92.144440 209.248474,92.144440 212.679993,92.144440 
	C215.096390,99.057220 217.529083,106.016586 220.207504,113.678925 
	C222.235382,107.836449 224.330246,102.945206 225.585510,97.847214 
	C226.732071,93.190727 228.932556,91.037437 233.776993,91.957672 
	C234.887436,92.168602 236.049805,92.106148 237.440323,92.183533 
	C237.440323,102.426888 237.440323,112.499466 237.440323,122.796600 
	C235.296951,122.796600 233.360687,122.796600 230.791061,122.796600 
	C230.791061,119.397545 230.791061,115.964272 230.791061,112.044060 
z"/>
<path fill="#1E1C51" opacity="1.000000" stroke="none" 
	d="
M317.897095,107.705307 
	C318.706177,115.651871 316.888123,119.792061 311.913757,121.940300 
	C305.501801,124.709381 298.097961,122.418961 295.593445,116.891518 
	C292.849915,110.836472 295.215057,103.641594 300.775665,101.127098 
	C307.558258,98.060028 314.448212,100.556198 317.897095,107.705307 
M301.876190,114.560326 
	C303.044647,117.896111 306.047974,119.324310 308.345123,117.345322 
	C310.234985,115.717171 311.031647,112.057861 311.024200,109.302238 
	C311.020325,107.864174 308.268066,105.346107 306.700256,105.301170 
	C305.085938,105.254890 302.999268,107.354767 301.889069,109.026726 
	C301.132874,110.165565 301.700317,112.183334 301.876190,114.560326 
z"/>
<path fill="#1E1C51" opacity="1.000000" stroke="none" 
	d="
M341.430542,106.639816 
	C345.071381,100.690811 350.692993,98.622879 356.928436,100.679619 
	C362.302155,102.452126 364.757965,106.520683 364.192078,112.713295 
	C363.577484,119.438698 358.690979,123.383438 351.436554,123.010460 
	C344.757629,122.667084 340.618530,118.490196 340.582581,111.884605 
	C340.573669,110.247459 341.008301,108.607910 341.430542,106.639816 
M347.876190,114.560326 
	C349.044647,117.896111 352.048004,119.324333 354.345093,117.345345 
	C356.234955,115.717178 357.031616,112.057861 357.024231,109.302238 
	C357.020325,107.864189 354.268036,105.346100 352.700256,105.301163 
	C351.085938,105.254898 348.999268,107.354767 347.889099,109.026718 
	C347.132904,110.165588 347.700348,112.183334 347.876190,114.560326 
z"/>
<path fill="#201E53" opacity="1.000000" stroke="none" 
	d="
M326.001343,113.105255 
	C322.524536,111.625839 320.350494,109.068642 321.707458,105.984535 
	C322.731171,103.657921 325.397827,101.406921 327.839294,100.528038 
	C330.433258,99.594254 333.623932,100.318100 336.796448,100.318100 
	C336.890656,102.344017 336.957794,103.788300 337.047913,105.726257 
	C333.998291,105.726257 331.133118,105.726257 328.267944,105.726257 
	C328.166870,106.180740 328.065826,106.635216 327.964752,107.089699 
	C329.948303,108.023254 332.251892,108.593933 333.830750,109.986336 
	C335.623169,111.567039 338.029205,113.994110 337.865784,115.850517 
	C337.672089,118.050400 335.400208,121.179085 333.351196,121.857239 
	C329.804871,123.030968 325.736450,122.627380 321.560730,122.907295 
	C321.560730,120.164200 321.560730,118.571129 321.560730,117.138023 
	C324.844788,117.352722 328.162933,117.569641 331.481110,117.786568 
	C331.606567,117.142853 331.732056,116.499138 331.857544,115.855415 
	C330.027222,114.982162 328.196930,114.108902 326.001343,113.105255 
z"/>
<path fill="#19174D" opacity="1.000000" stroke="none" 
	d="
M370.666992,110.242203 
	C370.320526,107.810921 371.968323,104.679855 367.833099,104.940079 
	C367.763000,103.322350 367.692902,101.704613 367.622772,100.086884 
	C371.529541,100.573837 370.416748,97.411911 370.984283,95.467270 
	C372.078857,91.716705 378.120911,88.516602 381.411377,90.318260 
	C382.580597,90.958466 382.971588,93.020035 384.294617,95.524612 
	C379.493988,94.521828 377.019501,95.262489 377.609558,99.739662 
	C379.134277,99.900131 380.564026,100.050606 382.195435,100.222298 
	C382.195435,101.679565 382.195435,102.954079 382.195435,104.556473 
	C380.828156,104.807648 379.300812,105.088226 377.526917,105.414093 
	C377.526917,111.151718 377.526917,116.772621 377.526917,122.695862 
	C375.194092,122.695862 373.137390,122.695862 370.667023,122.695862 
	C370.667023,118.607056 370.667023,114.659470 370.666992,110.242203 
z"/>
<path fill="#1F1D52" opacity="1.000000" stroke="none" 
	d="
M388.496521,116.258530 
	C388.398926,113.666382 388.350037,111.503197 388.310028,109.339836 
	C388.294617,108.507355 388.627625,107.166138 388.245056,106.919067 
	C383.490051,103.848488 386.424194,101.570503 387.854858,97.822670 
	C389.415436,93.734520 392.264221,94.672737 394.873413,92.775642 
	C395.072571,95.354271 395.230713,97.401718 395.412598,99.756668 
	C396.916748,99.898972 398.333740,100.033028 399.898468,100.181061 
	C399.898468,101.679810 399.898468,102.970726 399.898468,104.590988 
	C398.540924,104.839867 397.014252,105.119751 395.548126,105.388527 
	C394.503937,116.466591 394.776764,117.297981 401.262268,117.998474 
	C399.633942,120.111061 398.785339,122.395737 397.375519,122.821335 
	C392.974670,124.149849 389.834503,121.709328 388.496521,116.258530 
z"/>
<path fill="#1D1B51" opacity="1.000000" stroke="none" 
	d="
M256.525085,106.728081 
	C259.064423,101.677376 263.138123,100.125801 268.126984,99.952805 
	C272.378418,99.805374 274.544922,101.154434 273.648621,104.107712 
	C269.564178,105.547539 265.801849,105.928818 263.642426,107.989685 
	C262.348145,109.224869 262.518341,114.111320 263.900269,115.512650 
	C265.739899,117.378143 269.399353,117.449028 272.277039,118.290848 
	C272.575073,117.857391 272.873138,117.423935 273.171173,116.990486 
	C273.276642,118.509102 273.382141,120.027718 273.491089,121.596291 
	C268.263306,123.850639 263.425018,123.811546 259.221283,120.338142 
	C254.954163,116.812393 255.060989,111.981339 256.525085,106.728081 
z"/>
<path fill="#201E53" opacity="1.000000" stroke="none" 
	d="
M292.197266,102.226501 
	C292.012817,104.239052 293.083344,106.423744 289.762299,106.103363 
	C286.461395,105.784927 284.982666,108.065414 284.869904,111.088432 
	C284.728882,114.869179 284.836029,118.659195 284.836029,122.788239 
	C282.408661,122.897697 280.480927,122.984627 278.170898,123.088799 
	C278.170898,115.429764 278.170898,107.921608 278.170898,99.570885 
	C280.805481,100.157875 283.199036,100.691154 286.754425,101.483299 
	C289.584167,99.296173 289.847015,99.264450 292.197266,102.226501 
z"/>
<path fill="#262458" opacity="1.000000" stroke="none" 
	d="
M396.444763,146.640411 
	C399.332275,151.680954 399.601227,156.642410 396.583740,161.103424 
	C392.625854,166.954666 386.378662,166.179611 380.181885,165.917267 
	C380.181885,158.226974 380.181885,150.829025 380.181885,143.040222 
	C385.848511,143.219803 391.610809,141.588135 396.444763,146.640411 
M382.838470,150.652176 
	C382.838470,154.895645 382.838470,159.139114 382.838470,163.452637 
	C387.914124,163.682907 392.745300,163.821136 394.350250,159.211792 
	C395.461212,156.021164 395.306244,151.497452 393.819458,148.515442 
	C391.862732,144.590881 387.196747,145.144699 382.838470,145.365479 
	C382.838470,147.089188 382.838470,148.396866 382.838470,150.652176 
z"/>
<path fill="#242256" opacity="1.000000" stroke="none" 
	d="
M265.566284,154.666138 
	C267.178070,158.462692 269.097076,162.024796 271.298401,166.110886 
	C264.419952,165.699539 266.050415,154.902817 258.344452,156.423172 
	C257.921143,159.659775 257.491638,162.943436 257.062164,166.227097 
	C256.474487,166.123245 255.886810,166.019379 255.299133,165.915527 
	C255.299133,158.417023 255.299133,150.918518 255.299133,143.010437 
	C259.839142,143.665741 265.151611,140.758636 268.269043,146.296204 
	C270.079895,149.512833 268.911163,152.375473 265.566284,154.666138 
M257.814606,150.386398 
	C257.383148,153.301331 258.721741,154.211594 261.481934,153.806229 
	C264.613892,153.346237 266.623444,151.700195 265.877014,148.512222 
	C264.872772,144.222839 261.265472,145.448669 258.035309,145.205154 
	C257.947144,146.918411 257.880737,148.208984 257.814606,150.386398 
z"/>
<path fill="#242256" opacity="1.000000" stroke="none" 
	d="
M243.892914,112.982376 
	C243.892914,108.521935 243.892914,104.555122 243.892914,100.282242 
	C246.164322,100.282242 248.199402,100.282242 250.468750,100.282242 
	C250.468750,107.814400 250.468750,115.207184 250.468750,122.812859 
	C248.299332,122.812859 246.371643,122.812859 243.892914,122.812859 
	C243.892914,119.688889 243.892914,116.582451 243.892914,112.982376 
z"/>
<path fill="#201E53" opacity="1.000000" stroke="none" 
	d="
M233.858795,147.226532 
	C233.845627,149.306091 233.845627,150.925461 233.845627,153.029205 
	C236.763641,153.029205 239.317169,153.029205 241.870697,153.029205 
	C241.952576,153.667191 242.034454,154.305191 242.116318,154.943176 
	C239.561935,155.212097 237.007553,155.481033 234.138519,155.783081 
	C234.138519,158.154190 234.138519,160.558609 234.138519,163.153992 
	C237.218018,163.466858 240.212280,163.771057 243.206558,164.075256 
	C243.170212,164.557480 243.133881,165.039688 243.097549,165.521896 
	C239.298431,165.521896 235.499329,165.521896 231.337006,165.521896 
	C231.337006,158.404053 231.337006,150.897507 231.337006,143.473907 
	C235.191452,143.473907 238.952850,143.473907 242.714249,143.473907 
	C242.737411,143.736908 242.760590,143.999893 242.783768,144.262894 
	C239.813156,145.097366 236.842560,145.931854 233.858795,147.226532 
z"/>
<path fill="#201E53" opacity="1.000000" stroke="none" 
	d="
M356.983337,146.173981 
	C357.260956,144.814117 357.501343,143.191803 357.821350,143.175949 
	C361.452148,142.996002 365.095123,143.061783 368.734833,143.061783 
	C368.753906,143.627350 368.772980,144.192932 368.792023,144.758499 
	C366.029022,144.991165 363.265991,145.223831 360.175903,145.484039 
	C360.175903,147.766953 360.175903,150.015274 360.175903,152.692490 
	C362.583893,152.871658 365.253082,153.070282 367.922302,153.268890 
	C367.980408,153.839020 368.038483,154.409134 368.096588,154.979248 
	C365.530884,155.251358 362.965179,155.523468 360.105042,155.826797 
	C360.105042,158.226456 360.105042,160.636581 360.105042,163.167511 
	C363.256866,163.477188 366.229889,163.769287 369.202911,164.061386 
	C369.163330,164.563080 369.123749,165.064774 369.084198,165.566467 
	C365.271118,165.566467 361.458008,165.566467 356.983093,165.566467 
	C356.983093,159.460266 356.983093,153.058975 356.983337,146.173981 
z"/>
<path fill="#272558" opacity="1.000000" stroke="none" 
	d="
M204.065155,148.288864 
	C209.583160,141.729050 216.425873,140.486328 219.255295,144.397552 
	C215.543732,145.514099 211.242050,146.106567 207.800064,148.148331 
	C206.151703,149.126114 205.471146,152.856766 205.500626,155.326904 
	C205.582077,162.151642 209.318741,164.133041 219.608551,163.403915 
	C217.441620,167.120209 210.580963,167.506714 206.501907,164.142319 
	C202.308258,160.683380 201.440720,155.480072 204.065155,148.288864 
z"/>
<path fill="#2C2A5C" opacity="1.000000" stroke="none" 
	d="
M325.834167,142.958160 
	C327.813019,143.074417 329.324249,143.190659 330.835510,143.306915 
	C330.835236,143.789719 330.834991,144.272507 330.834717,144.755310 
	C328.074677,145.005585 325.314636,145.255859 322.217773,145.536682 
	C322.217773,147.912918 322.217773,150.283798 322.217773,152.730560 
	C324.894958,153.089676 327.502350,153.439438 330.109772,153.789200 
	C330.077026,154.377472 330.044281,154.965744 330.011536,155.554001 
	C327.517578,155.723221 325.023651,155.892441 322.527466,156.066727 
	C320.321106,158.980972 324.028656,163.737778 319.207916,166.794754 
	C319.207916,158.487854 319.207916,151.061676 319.207916,142.958145 
	C321.206543,142.958145 323.286560,142.958145 325.834167,142.958160 
z"/>
<path fill="#262458" opacity="1.000000" stroke="none" 
	d="
M287.030334,161.787659 
	C286.620056,163.500809 286.209808,164.738876 285.799561,165.976929 
	C285.246307,164.838303 284.249329,163.712830 284.215088,162.558792 
	C284.048615,156.945694 284.139862,151.324982 284.139862,145.583145 
	C281.730896,145.276352 279.770721,145.026703 277.810547,144.777054 
	C277.847076,144.367599 277.883636,143.958130 277.920166,143.548676 
	C283.179474,143.548676 288.438782,143.548676 293.698120,143.548676 
	C293.757507,143.929108 293.816925,144.309540 293.876312,144.689957 
	C291.791534,144.962006 289.706757,145.234055 287.030334,145.583313 
	C287.030334,150.771851 287.030334,156.042221 287.030334,161.787659 
z"/>
<path fill="#2C2A5C" opacity="1.000000" stroke="none" 
	d="
M306.876160,154.009155 
	C306.229828,158.322052 308.217743,162.609146 305.780548,166.114990 
	C305.322479,166.066101 304.864380,166.017212 304.406311,165.968323 
	C304.406311,158.370865 304.406311,150.773407 304.412109,143.171753 
	C306.876160,144.058395 306.876160,144.058395 306.876160,154.009155 
z"/>
<path fill="#2C2A5C" opacity="1.000000" stroke="none" 
	d="
M344.876160,159.849976 
	C344.552917,162.312119 344.229675,164.294647 343.906433,166.277176 
	C343.345947,166.157242 342.785461,166.037308 342.224976,165.917374 
	C342.224976,158.370331 342.224976,150.823288 342.224976,143.237061 
	C344.876160,143.970444 344.876160,143.970444 344.876160,159.849976 
z"/>
<path fill="#242256" opacity="1.000000" stroke="none" 
	d="
M246.416931,96.948921 
	C245.329575,95.187309 244.300552,93.518715 244.139908,91.770332 
	C244.098022,91.314308 246.901489,89.948624 248.141281,90.211639 
	C249.301697,90.457802 250.121628,92.308952 251.091415,93.453751 
	C249.660706,94.639893 248.229996,95.826027 246.416931,96.948921 
z"/>
<path fill="#F7FAFD" opacity="1.000000" stroke="none" 
	d="
M319.307007,476.479004 
	C316.460632,477.978699 316.741455,479.866150 317.521851,482.172882 
	C320.224030,490.160278 322.762268,498.203186 324.577148,506.820129 
	C316.839874,501.247894 309.102570,495.675659 301.021484,489.855835 
	C293.175201,495.495575 285.287079,501.165405 276.185242,507.707642 
	C278.971466,499.095886 281.030090,491.765564 283.747345,484.688080 
	C285.446411,480.262665 284.974396,477.588135 280.728485,474.909149 
	C274.289734,470.846619 268.323517,466.035095 262.290375,460.425781 
	C268.128357,460.425781 273.966339,460.425781 279.804321,460.425781 
	C291.656097,460.425781 291.626770,460.416656 295.088287,449.286285 
	C296.717621,444.047241 298.479340,438.849304 300.203888,433.640289 
	C300.294159,433.367584 300.598145,433.165649 301.311951,432.345795 
	C303.939728,440.335419 306.738403,447.872223 308.830078,455.600372 
	C309.933777,459.678253 311.896851,460.669586 315.832153,460.517090 
	C323.751678,460.210205 331.691467,460.425781 339.962860,461.459534 
	C333.174255,466.385803 326.385651,471.312073 319.307007,476.479004 
z"/>
<path fill="#FAFAFA" opacity="1.000000" stroke="none" 
	d="
M208.044861,338.016388 
	C204.454330,338.677277 204.459122,336.494659 204.451630,334.441406 
	C204.423798,326.824707 204.440521,319.207886 204.440521,311.433075 
	C215.305603,309.241272 222.004486,312.766876 222.954376,321.735504 
	C224.052811,332.106537 219.145050,337.624573 208.044861,338.016388 
z"/>
<path fill="#EEEEEE" opacity="1.000000" stroke="none" 
	d="
M338.803040,261.853027 
	C335.315948,262.265076 333.671631,261.473969 334.200195,257.858307 
	C334.574738,255.296310 334.272736,252.635422 334.272736,250.152817 
	C341.540100,248.614624 345.582520,250.147232 346.168457,254.311432 
	C346.791016,258.736176 344.589050,261.130402 338.803040,261.853027 
z"/>
<path fill="#ECECEC" opacity="1.000000" stroke="none" 
	d="
M229.897095,252.380356 
	C232.228485,257.271759 234.195557,262.123901 236.382248,267.517761 
	C232.181564,267.517761 228.753799,267.517761 224.752441,267.517761 
	C226.373489,262.371185 227.953125,257.356140 229.897095,252.380356 
z"/>
<path fill="#EEEEEE" opacity="1.000000" stroke="none" 
	d="
M443.234131,331.164124 
	C439.782684,331.618683 436.376068,331.618683 432.055023,331.618683 
	C434.564728,325.732758 436.639465,320.866974 439.206879,314.845734 
	C440.779388,320.971741 442.029205,325.840668 443.234131,331.164124 
z"/>
<path fill="#F1F1F1" opacity="1.000000" stroke="none" 
	d="
M248.728607,314.883667 
	C249.275192,313.304626 249.713608,312.081482 250.363693,310.267731 
	C252.458099,315.983398 254.331039,321.094696 256.379517,326.684998 
	C252.405930,326.684998 249.017883,326.684998 245.012466,326.684998 
	C246.222519,322.846375 247.421478,319.042938 248.728607,314.883667 
z"/>
<path fill="#F4F4F7" opacity="1.000000" stroke="none" 
	d="
M301.776062,114.184204 
	C301.700317,112.183334 301.132874,110.165565 301.889069,109.026726 
	C302.999268,107.354767 305.085938,105.254890 306.700256,105.301170 
	C308.268066,105.346107 311.020325,107.864174 311.024200,109.302238 
	C311.031647,112.057861 310.234985,115.717171 308.345123,117.345322 
	C306.047974,119.324310 303.044647,117.896111 301.776062,114.184204 
z"/>
<path fill="#F4F4F7" opacity="1.000000" stroke="none" 
	d="
M347.776062,114.184204 
	C347.700348,112.183334 347.132904,110.165588 347.889099,109.026718 
	C348.999268,107.354767 351.085938,105.254898 352.700256,105.301163 
	C354.268036,105.346100 357.020325,107.864189 357.024231,109.302238 
	C357.031616,112.057861 356.234955,115.717178 354.345093,117.345345 
	C352.048004,119.324333 349.044647,117.896111 347.776062,114.184204 
z"/>
<path fill="#F6F6F8" opacity="1.000000" stroke="none" 
	d="
M382.838470,150.178375 
	C382.838470,148.396866 382.838470,147.089188 382.838470,145.365479 
	C387.196747,145.144699 391.862732,144.590881 393.819458,148.515442 
	C395.306244,151.497452 395.461212,156.021164 394.350250,159.211792 
	C392.745300,163.821136 387.914124,163.682907 382.838470,163.452637 
	C382.838470,159.139114 382.838470,154.895645 382.838470,150.178375 
z"/>
<path fill="#F0F0F3" opacity="1.000000" stroke="none" 
	d="
M257.814453,149.942963 
	C257.880737,148.208984 257.947144,146.918411 258.035309,145.205154 
	C261.265472,145.448669 264.872772,144.222839 265.877014,148.512222 
	C266.623444,151.700195 264.613892,153.346237 261.481934,153.806229 
	C258.721741,154.211594 257.383148,153.301331 257.814453,149.942963 
z"/>
</svg>