<svg version="1.1" id="Layer_1" xmlns="http://www.w3.org/2000/svg" xmlns:xlink="http://www.w3.org/1999/xlink" x="0px" y="0px"
	 width="100%" viewBox="0 0 600 600" enable-background="new 0 0 600 600" xml:space="preserve">
<path fill="#FFFFFF" opacity="1.000000" stroke="none" 
	d="
M601.000000,222.000000 
	C601.000000,348.666656 601.000000,474.833344 601.000000,601.000000 
	C401.000000,601.000000 201.000000,601.000000 1.000000,601.000000 
	C1.000000,401.000000 1.000000,201.000000 1.000000,1.000000 
	C201.000000,1.000000 401.000000,1.000000 601.000000,1.000000 
	C601.000000,74.500000 601.000000,148.000000 601.000000,222.000000 
M511.010040,212.036987 
	C511.006805,174.393478 511.108246,136.749542 510.954285,99.106644 
	C510.881805,81.379211 498.912354,63.575932 481.269653,58.047451 
	C461.020813,51.702312 440.611725,45.870724 420.312683,39.683304 
	C388.481720,29.980782 356.711487,20.078144 324.848480,10.482752 
	C319.158569,8.769259 313.188873,7.704877 307.270477,7.087122 
	C294.191559,5.721963 281.822327,8.991607 269.383575,12.878669 
	C235.163788,23.572218 200.762985,33.687191 166.423569,43.996994 
	C152.871140,48.065876 139.309998,52.107929 125.720169,56.049625 
	C104.436638,62.222855 90.892082,79.525841 90.958931,101.538048 
	C91.071716,138.679733 90.928276,175.822174 90.075241,213.022598 
	C87.666275,213.370071 85.251884,213.683807 82.849258,214.070648 
	C70.637581,216.036911 58.464779,218.287842 46.211025,219.939484 
	C26.989548,222.530304 12.786870,239.728561 16.754478,257.454926 
	C21.685686,279.486481 24.945484,301.889069 29.083199,324.102295 
	C32.264961,341.183502 35.721485,358.213287 38.993454,375.277924 
	C41.784111,389.832367 53.793396,402.043549 69.371979,400.978088 
	C76.558769,400.486572 83.727478,399.730774 90.990746,399.996033 
	C91.723030,407.149323 91.764969,414.455261 93.307533,421.429352 
	C99.858322,451.045959 115.404007,475.845947 136.151627,497.419464 
	C145.018158,506.638947 154.898376,514.942749 164.751984,523.140930 
	C183.470581,538.714783 204.082947,551.651001 225.667404,562.682129 
	C246.433151,573.294922 268.013031,582.348755 289.451660,591.585144 
	C294.375702,593.706482 299.643127,596.629822 305.719818,594.042542 
	C318.583374,588.565552 331.892853,584.044067 344.442719,577.944092 
	C362.431458,569.200500 380.138733,559.808838 397.536957,549.937317 
	C417.777527,538.453125 436.546143,524.665405 453.474274,508.725647 
	C463.748993,499.050842 473.314209,488.423981 481.973694,477.273895 
	C499.754974,454.378479 510.491943,428.541138 511.959290,399.014435 
	C515.664001,399.535645 519.358826,400.145172 523.075195,400.562469 
	C537.723450,402.207306 551.583435,401.498108 559.912231,383.530792 
	C562.305054,378.368927 562.958069,372.353760 564.101013,366.667969 
	C567.812683,348.204071 571.452209,329.724976 574.985413,311.226105 
	C578.460632,293.031494 581.229004,274.682312 585.327576,256.632599 
	C588.599670,242.222855 578.292297,227.079697 566.607483,223.257843 
	C556.817871,220.055847 546.345947,218.891190 536.138306,217.031540 
	C527.823730,215.516724 519.453186,214.308517 511.010040,212.036987 
z"/>
<path fill="#515151" opacity="1.000000" stroke="none" 
	d="
M90.904381,399.094788 
	C83.727478,399.730774 76.558769,400.486572 69.371979,400.978088 
	C53.793396,402.043549 41.784111,389.832367 38.993454,375.277924 
	C35.721485,358.213287 32.264961,341.183502 29.083199,324.102295 
	C24.945484,301.889069 21.685686,279.486481 16.754478,257.454926 
	C12.786870,239.728561 26.989548,222.530304 46.211025,219.939484 
	C58.464779,218.287842 70.637581,216.036911 82.849258,214.070648 
	C85.251884,213.683807 87.666275,213.370071 90.936996,213.039001 
	C98.487534,212.312576 105.176315,211.569748 112.104294,210.800354 
	C112.104294,208.081909 112.104294,206.097260 112.104294,204.112610 
	C112.104309,171.116104 112.084915,138.119583 112.112854,105.123093 
	C112.126053,89.532173 118.017502,81.553513 132.947021,76.919113 
	C141.509796,74.261070 150.126389,71.776939 158.707718,69.178024 
	C200.200684,56.611526 241.744049,44.207088 283.147797,31.353001 
	C295.741394,27.443230 307.684021,27.741827 320.196808,31.780369 
	C343.585175,39.329037 367.244171,46.036999 390.771423,53.158089 
	C417.957550,61.386631 445.131500,69.655617 472.292297,77.967377 
	C480.729706,80.549400 486.343842,86.182159 488.599457,94.691193 
	C489.564240,98.330757 489.832306,102.243439 489.842896,106.033623 
	C489.934723,138.863235 489.895721,171.693192 489.895721,204.523056 
	C489.895721,206.473862 489.895721,208.424667 489.895721,210.971375 
	C497.328827,211.669769 504.218170,212.317078 511.107483,212.964355 
	C519.453186,214.308517 527.823730,215.516724 536.138306,217.031540 
	C546.345947,218.891190 556.817871,220.055847 566.607483,223.257843 
	C578.292297,227.079697 588.599670,242.222855 585.327576,256.632599 
	C581.229004,274.682312 578.460632,293.031494 574.985413,311.226105 
	C571.452209,329.724976 567.812683,348.204071 564.101013,366.667969 
	C562.958069,372.353760 562.305054,378.368927 559.912231,383.530792 
	C551.583435,401.498108 537.723450,402.207306 523.075195,400.562469 
	C519.358826,400.145172 515.664001,399.535645 511.294495,398.738312 
	C503.723511,397.342133 496.817322,396.222076 489.511078,395.030334 
	C487.481506,394.641510 485.864990,394.207916 484.220551,394.024963 
	C462.442810,391.602661 440.695435,388.820618 418.871216,386.926392 
	C395.208252,384.872559 371.493317,383.063049 347.763123,382.236725 
	C323.836945,381.403625 299.863190,381.741333 275.912201,381.887360 
	C260.767944,381.979706 245.625610,382.608337 230.485916,383.103394 
	C224.507599,383.298859 218.527222,383.650391 212.567780,384.163239 
	C194.534760,385.715088 176.484970,387.134918 158.492508,389.076752 
	C142.988495,390.750061 127.554123,393.068695 111.662804,395.069702 
	C104.459229,396.389832 97.681808,397.742310 90.904381,399.094788 
M199.724823,373.108704 
	C240.309448,371.920593 280.888092,370.353333 321.481354,369.712006 
	C340.427155,369.412659 359.415405,370.638611 378.359863,371.638458 
	C427.608307,374.237671 476.505646,380.070312 525.158997,388.076416 
	C541.064148,390.693695 548.176941,385.457489 551.133545,369.806000 
	C558.141724,332.705841 565.208557,295.616638 572.335632,258.539154 
	C575.096191,244.177597 569.457031,234.965942 554.881348,232.825317 
	C520.646790,227.797501 486.429230,222.227127 452.004791,219.029236 
	C411.096680,215.229080 370.008423,212.594910 328.943512,211.491043 
	C293.359558,210.534531 257.630066,211.253662 222.090958,213.359787 
	C181.910538,215.740997 141.833298,220.141342 101.786476,224.375671 
	C83.114067,226.350006 64.582893,229.791321 46.056053,232.966537 
	C32.986153,235.206558 26.827938,244.802917 29.432552,257.644104 
	C30.688122,263.834259 31.799305,270.053650 32.987736,276.257538 
	C39.215744,308.769073 45.351006,341.298889 51.732708,373.780243 
	C53.841476,384.513336 62.884819,390.610626 73.489502,388.759491 
	C115.004578,381.512878 156.801773,376.571075 199.724823,373.108704 
M230.795441,105.204491 
	C230.795441,111.110542 230.795441,117.016594 230.795441,123.107300 
	C233.540115,122.975098 235.461380,122.882553 237.342957,122.791916 
	C237.342957,112.305359 237.342957,102.262489 237.342957,92.146263 
	C236.147858,92.076706 235.311249,92.102448 234.500977,91.968689 
	C229.522202,91.146774 226.582489,92.652252 225.445160,98.111488 
	C224.405060,103.104012 222.204376,107.854736 220.179413,113.677330 
	C217.443222,105.808617 215.065262,98.970078 212.693375,92.149010 
	C209.263901,92.149010 206.132858,92.149010 202.732544,92.149010 
	C202.732544,102.402527 202.732544,112.488342 202.732544,122.672363 
	C204.793137,122.672363 206.669235,122.672363 208.948624,122.672363 
	C208.948624,115.817398 208.948624,109.297363 208.948624,102.777336 
	C211.838547,108.532097 214.115738,114.356293 215.931259,120.321022 
	C217.029480,123.929100 219.635269,123.282227 221.869690,122.745667 
	C222.811554,122.519485 223.494659,120.505737 223.974289,119.187714 
	C226.039230,113.513351 227.985001,107.795616 229.974167,102.093674 
	C230.247910,102.200027 230.521652,102.306381 230.795395,102.412735 
	C230.795395,103.078491 230.795395,103.744255 230.795441,105.204491 
M340.683350,109.969582 
	C340.555756,118.908600 344.723236,123.322655 352.996124,123.010880 
	C360.342407,122.734024 364.747559,117.697044 364.228088,110.167824 
	C363.824524,104.318298 359.997498,100.521835 353.975555,99.997208 
	C347.072876,99.395836 342.645447,102.484169 340.683350,109.969582 
M315.879730,103.778786 
	C314.693481,102.892082 313.612701,101.785095 312.302277,101.157761 
	C307.293121,98.759781 300.421783,100.015442 297.121643,103.779419 
	C294.177795,107.137062 293.684174,113.738945 296.069885,117.845718 
	C298.404694,121.864746 303.793762,123.916199 309.153839,122.826393 
	C317.437256,121.142227 320.549988,113.191261 315.879730,103.778786 
M330.947540,117.257645 
	C327.817291,117.257645 324.687012,117.257645 321.486420,117.257645 
	C320.199188,121.248962 322.362335,122.871132 326.170074,122.958893 
	C328.298096,123.007927 330.846436,123.269554 332.470978,122.257065 
	C334.734650,120.846214 337.149841,118.621674 337.978607,116.220268 
	C339.136292,112.865707 336.411285,110.882072 333.376770,109.646225 
	C331.536011,108.896538 329.804321,107.878952 328.023651,106.981720 
	C328.141785,106.539093 328.259918,106.096466 328.378052,105.653839 
	C331.147430,105.653839 333.916779,105.653839 336.816345,105.653839 
	C336.816345,103.930031 336.816345,102.492973 336.816345,100.423988 
	C333.561798,100.423988 330.456024,100.123131 327.435944,100.503372 
	C323.989746,100.937263 321.054016,103.198547 321.621063,106.698082 
	C322.007812,109.084900 324.574799,111.261604 326.494904,113.208916 
	C327.885254,114.618988 329.813629,115.498596 330.947540,117.257645 
M371.600586,122.894562 
	C373.386780,122.894562 375.172943,122.894562 377.472290,122.894562 
	C377.472290,116.770775 377.472290,111.028679 377.472290,105.098221 
	C381.329773,105.337959 383.630829,104.526581 381.884338,100.226196 
	C380.548615,100.061783 379.123474,99.886360 377.632324,99.702820 
	C376.929535,95.120659 379.823059,94.746338 384.457458,95.232780 
	C382.908264,92.786293 382.368774,90.806137 381.172028,90.256104 
	C377.592194,88.610771 371.912415,91.858856 370.939819,95.774101 
	C370.467316,97.676437 371.322357,100.480156 367.771179,100.105453 
	C367.786469,101.705978 367.801758,103.306511 367.817047,104.907036 
	C371.857727,104.729156 370.564545,107.766663 370.650055,109.799843 
	C370.824799,113.953659 370.805603,118.115639 371.600586,122.894562 
M395.197845,107.769302 
	C396.567963,106.454094 397.938080,105.138893 399.933044,103.223877 
	C399.933044,103.102440 399.933044,101.819588 399.933044,100.399994 
	C398.297119,100.060287 396.776093,99.744453 395.335602,99.445335 
	C395.201599,97.195930 395.087494,95.280937 394.973419,93.365952 
	C394.465393,93.048424 393.957367,92.730904 393.449371,92.413383 
	C390.623230,95.345818 387.696045,98.192139 385.059723,101.286278 
	C384.556976,101.876335 385.001312,104.348595 385.348816,104.426018 
	C390.259613,105.520355 387.774445,109.358154 388.254456,112.006569 
	C388.665955,114.276901 388.357422,116.736794 389.066895,118.881424 
	C390.429291,122.999878 394.071930,123.603821 397.619171,122.741280 
	C398.886414,122.433128 399.654022,120.070290 401.344482,117.650879 
	C396.338623,118.392593 395.113678,116.712837 395.192749,113.644630 
	C395.235504,111.986259 395.197632,110.325806 395.197845,107.769302 
M270.947662,105.368980 
	C271.799286,104.973503 272.650940,104.578033 273.502563,104.182541 
	C272.654755,102.838226 272.086212,100.709038 270.909058,100.290154 
	C266.603058,98.757896 260.491974,100.853752 257.903046,104.461082 
	C254.915970,108.623192 254.677063,113.205521 257.044922,117.651596 
	C259.570007,122.392815 264.104156,123.335464 269.026459,122.982437 
	C272.685883,122.719963 274.613617,121.135323 273.067535,117.187080 
	C265.966248,118.634285 262.981628,117.264267 262.508087,112.340004 
	C262.046570,107.540894 264.444061,105.288193 270.947662,105.368980 
M291.639954,106.043228 
	C291.844543,104.150696 292.049133,102.258163 292.382355,99.175560 
	C289.294617,100.438866 287.176819,101.305328 285.059052,102.171791 
	C285.180756,101.821312 285.302490,101.470840 285.424194,101.120369 
	C283.020142,100.671295 280.616058,100.222221 278.161682,99.763748 
	C278.161682,108.095711 278.161682,115.469055 278.161682,122.733047 
	C280.455780,122.733047 282.374207,122.733047 284.795074,122.733047 
	C284.795074,118.842232 284.711548,115.224358 284.818146,111.612099 
	C284.929016,107.855492 286.688751,105.679688 291.639954,106.043228 
M386.323059,142.970047 
	C384.256561,142.970047 382.190094,142.970047 380.311768,142.970047 
	C380.311768,151.101364 380.311768,158.476410 380.311768,165.816315 
	C392.472931,166.540085 398.007141,163.271866 398.547943,155.269104 
	C399.081726,147.370789 395.571655,143.555603 386.323059,142.970047 
M266.559937,154.007721 
	C269.286743,151.556625 270.073334,148.510101 267.884491,145.589569 
	C264.420837,140.968094 259.515839,143.648544 255.278503,142.978439 
	C255.278503,151.104721 255.278503,158.488907 255.278503,165.873108 
	C255.853302,165.980026 256.428101,166.086929 257.002930,166.193848 
	C257.465576,162.927948 257.928223,159.662048 258.383698,156.446732 
	C266.077179,154.868576 264.354462,165.859863 271.688660,166.023880 
	C269.370453,162.463821 267.425476,159.605194 265.658478,156.640472 
	C265.354462,156.130386 265.807587,155.169022 266.559937,154.007721 
M243.897919,102.721550 
	C243.897919,109.445633 243.897919,116.169716 243.897919,122.712051 
	C246.521744,122.712051 248.430115,122.712051 250.422882,122.712051 
	C250.422882,115.026321 250.422882,107.656158 250.422882,99.036118 
	C247.806808,100.135223 245.858871,100.953621 243.897919,102.721550 
M243.647949,144.488571 
	C239.941727,143.788940 236.235504,143.089310 232.261108,142.339066 
	C232.261108,150.895737 232.261108,158.288803 232.261108,165.347748 
	C236.420944,165.347748 240.283051,165.347748 244.145157,165.347748 
	C244.146652,164.850571 244.148132,164.353409 244.149612,163.856232 
	C241.195923,163.634247 238.242249,163.412262 235.222351,163.185303 
	C235.222351,160.527985 235.222351,158.154434 235.222351,155.902039 
	C238.102737,155.532852 240.586746,155.214462 243.070770,154.896072 
	C243.024933,154.373184 242.979095,153.850296 242.933258,153.327408 
	C240.280930,153.105179 237.628601,152.882950 235.197693,152.679260 
	C235.197693,150.031113 235.197693,147.784485 235.197693,145.375916 
	C238.005569,145.244278 240.474030,145.128555 243.647949,144.488571 
M357.092285,165.205612 
	C361.080170,165.513397 365.068024,165.821182 369.055908,166.128967 
	C369.108795,165.402985 369.161652,164.677002 369.214539,163.951004 
	C366.277740,163.689499 363.340942,163.427979 360.144775,163.143372 
	C360.144775,160.655701 360.144775,158.257614 360.144775,155.896362 
	C363.005676,155.547760 365.552612,155.237411 368.099579,154.927078 
	C368.013947,154.365341 367.928314,153.803604 367.842682,153.241867 
	C365.275787,153.069183 362.708862,152.896484 360.118408,152.722214 
	C360.118408,150.170517 360.118408,147.921936 360.118408,145.610779 
	C363.184509,145.247009 365.989105,144.914276 368.793671,144.581543 
	C368.736511,144.146652 368.679352,143.711746 368.622192,143.276840 
	C364.892548,143.276840 361.162933,143.276840 356.997009,143.276840 
	C356.997009,150.366730 356.997009,157.308884 357.092285,165.205612 
M207.893417,144.201859 
	C201.184387,150.152451 200.556259,159.231705 206.513763,164.143677 
	C210.642532,167.547791 217.570343,167.134766 219.462402,163.371658 
	C209.633270,164.336792 205.744644,162.335403 205.587357,155.576050 
	C205.526535,152.961853 206.250870,149.045303 208.006989,147.950104 
	C211.288040,145.903900 215.584457,145.485809 220.184265,144.185013 
	C216.388397,141.617798 212.550110,142.151520 207.893417,144.201859 
M329.017822,142.974915 
	C325.759033,142.974915 322.500214,142.974915 319.418213,142.974915 
	C319.418213,151.028763 319.418213,158.484863 319.418213,165.940948 
	C320.050995,166.009186 320.683807,166.077423 321.316589,166.145660 
	C321.624542,162.793076 321.932526,159.440475 322.226288,156.242447 
	C325.096344,155.873672 327.581757,155.554306 330.067200,155.234955 
	C330.046600,154.656250 330.026001,154.077530 330.005432,153.498810 
	C327.398071,153.280457 324.790741,153.062103 322.125458,152.838898 
	C322.125458,150.249420 322.125458,147.998001 322.125458,145.185989 
	C324.642639,145.185989 326.926117,145.259781 329.191895,145.093262 
	C329.477417,145.072296 329.670074,143.787613 329.017822,142.974915 
M284.137115,156.469330 
	C284.137054,164.942322 284.137054,164.942322 287.148682,165.830093 
	C287.148682,158.953705 287.148682,152.221985 287.148682,145.610092 
	C289.729065,145.216278 291.778534,144.903488 293.828003,144.590714 
	C293.755432,144.290710 293.682861,143.990707 293.610291,143.690704 
	C288.389130,143.690704 283.167969,143.690704 277.946808,143.690704 
	C277.945709,144.063370 277.944611,144.436035 277.943542,144.808685 
	C279.825317,145.045273 281.707092,145.281860 284.137146,145.587372 
	C284.137146,148.938263 284.137146,152.216171 284.137115,156.469330 
M341.959351,159.389313 
	C341.959351,161.577209 341.959351,163.765121 341.959351,166.498047 
	C344.831451,164.505341 345.970215,153.417847 344.807404,145.156265 
	C344.683258,144.274384 343.737305,143.508133 343.172607,142.688232 
	C342.768188,142.850601 342.363770,143.012970 341.959351,143.175323 
	C341.959351,148.255859 341.959351,153.336380 341.959351,159.389313 
M303.959351,153.517990 
	C303.959351,157.638412 303.959351,161.758835 303.959351,165.879257 
	C304.617157,165.936493 305.274933,165.993729 305.932739,166.050980 
	C308.074310,160.007538 306.382385,153.472076 306.810730,147.220169 
	C306.909790,145.774506 306.172180,144.271515 305.819580,142.794922 
	C305.199493,142.909698 304.579437,143.024475 303.959351,143.139267 
	C303.959351,146.271469 303.959351,149.403687 303.959351,153.517990 
M246.031036,90.127953 
	C245.254639,91.673546 244.478241,93.219131 243.701843,94.764725 
	C245.193390,95.500145 246.728210,96.861168 248.162048,96.762009 
	C249.204544,96.689934 250.113602,94.688004 251.082153,93.546509 
	C249.654175,92.362785 248.226181,91.179054 246.031036,90.127953 
z"/>
<path fill="#002050" opacity="1.000000" stroke="none" 
	d="
M511.058777,212.500671 
	C504.218170,212.317078 497.328827,211.669769 489.895721,210.971375 
	C489.895721,208.424667 489.895721,206.473862 489.895721,204.523056 
	C489.895721,171.693192 489.934723,138.863235 489.842896,106.033623 
	C489.832306,102.243439 489.564240,98.330757 488.599457,94.691193 
	C486.343842,86.182159 480.729706,80.549400 472.292297,77.967377 
	C445.131500,69.655617 417.957550,61.386631 390.771423,53.158089 
	C367.244171,46.036999 343.585175,39.329037 320.196808,31.780369 
	C307.684021,27.741827 295.741394,27.443230 283.147797,31.353001 
	C241.744049,44.207088 200.200684,56.611526 158.707718,69.178024 
	C150.126389,71.776939 141.509796,74.261070 132.947021,76.919113 
	C118.017502,81.553513 112.126053,89.532173 112.112854,105.123093 
	C112.084915,138.119583 112.104309,171.116104 112.104294,204.112610 
	C112.104294,206.097260 112.104294,208.081909 112.104294,210.800354 
	C105.176315,211.569748 98.487534,212.312576 91.345673,213.009857 
	C90.928276,175.822174 91.071716,138.679733 90.958931,101.538048 
	C90.892082,79.525841 104.436638,62.222855 125.720169,56.049625 
	C139.309998,52.107929 152.871140,48.065876 166.423569,43.996994 
	C200.762985,33.687191 235.163788,23.572218 269.383575,12.878669 
	C281.822327,8.991607 294.191559,5.721963 307.270477,7.087122 
	C313.188873,7.704877 319.158569,8.769259 324.848480,10.482752 
	C356.711487,20.078144 388.481720,29.980782 420.312683,39.683304 
	C440.611725,45.870724 461.020813,51.702312 481.269653,58.047451 
	C498.912354,63.575932 510.881805,81.379211 510.954285,99.106644 
	C511.108246,136.749542 511.006805,174.393478 511.058777,212.500671 
z"/>
<path fill="#002050" opacity="1.000000" stroke="none" 
	d="
M90.947563,399.545410 
	C97.681808,397.742310 104.459229,396.389832 111.654572,395.512360 
	C112.355103,411.463165 115.638954,426.256012 122.129158,440.326111 
	C133.833908,465.700806 152.306305,485.602112 173.657196,502.942688 
	C210.828522,533.132141 252.894577,554.677063 297.480133,571.544678 
	C299.671082,572.373535 302.755341,572.172791 304.999268,571.326477 
	C331.039124,561.505066 356.087402,549.540771 380.068451,535.425171 
	C410.900574,517.276855 439.717346,496.597809 462.221375,468.243103 
	C479.228455,446.814514 489.752655,422.916565 489.911133,395.102051 
	C496.817322,396.222076 503.723511,397.342133 510.863708,398.777008 
	C510.491943,428.541138 499.754974,454.378479 481.973694,477.273895 
	C473.314209,488.423981 463.748993,499.050842 453.474274,508.725647 
	C436.546143,524.665405 417.777527,538.453125 397.536957,549.937317 
	C380.138733,559.808838 362.431458,569.200500 344.442719,577.944092 
	C331.892853,584.044067 318.583374,588.565552 305.719818,594.042542 
	C299.643127,596.629822 294.375702,593.706482 289.451660,591.585144 
	C268.013031,582.348755 246.433151,573.294922 225.667404,562.682129 
	C204.082947,551.651001 183.470581,538.714783 164.751984,523.140930 
	C154.898376,514.942749 145.018158,506.638947 136.151627,497.419464 
	C115.404007,475.845947 99.858322,451.045959 93.307533,421.429352 
	C91.764969,414.455261 91.723030,407.149323 90.947563,399.545410 
z"/>
<path fill="#FDFDFD" opacity="1.000000" stroke="none" 
	d="
M199.258118,373.132141 
	C156.801773,376.571075 115.004578,381.512878 73.489502,388.759491 
	C62.884819,390.610626 53.841476,384.513336 51.732708,373.780243 
	C45.351006,341.298889 39.215744,308.769073 32.987736,276.257538 
	C31.799305,270.053650 30.688122,263.834259 29.432552,257.644104 
	C26.827938,244.802917 32.986153,235.206558 46.056053,232.966537 
	C64.582893,229.791321 83.114067,226.350006 101.786476,224.375671 
	C141.833298,220.141342 181.910538,215.740997 222.090958,213.359787 
	C257.630066,211.253662 293.359558,210.534531 328.943512,211.491043 
	C370.008423,212.594910 411.096680,215.229080 452.004791,219.029236 
	C486.429230,222.227127 520.646790,227.797501 554.881348,232.825317 
	C569.457031,234.965942 575.096191,244.177597 572.335632,258.539154 
	C565.208557,295.616638 558.141724,332.705841 551.133545,369.806000 
	C548.176941,385.457489 541.064148,390.693695 525.158997,388.076416 
	C476.505646,380.070312 427.608307,374.237671 378.359863,371.638458 
	C359.415405,370.638611 340.427155,369.412659 321.481354,369.712006 
	C280.888092,370.353333 240.309448,371.920593 199.258118,373.132141 
M304.796387,323.530762 
	C304.796387,325.882477 304.796387,328.234161 304.796387,330.585876 
	C298.794342,323.058411 293.572998,315.559998 288.992218,307.688812 
	C286.438385,303.300537 283.381927,302.183563 278.994263,303.589478 
	C278.994263,316.106354 278.994263,328.488159 278.994263,341.094879 
	C281.217682,340.960754 282.946838,340.856476 285.103882,340.726349 
	C285.103882,331.279877 285.103882,322.315338 285.103882,312.291229 
	C290.827393,321.026886 296.153961,328.650177 300.904694,336.616852 
	C303.357666,340.730347 306.211517,341.936462 310.374939,340.605560 
	C310.374939,328.020844 310.374939,315.636444 310.374939,302.929688 
	C308.163513,303.045166 306.445526,303.134857 304.796356,303.220978 
	C304.796356,310.009552 304.796356,316.318054 304.796387,323.530762 
M389.781830,322.754730 
	C392.880920,328.058716 396.220581,333.240265 399.001373,338.706177 
	C401.143585,342.916901 403.922180,344.605103 408.794403,342.964172 
	C409.311523,330.708344 409.831696,318.379974 410.348358,306.135437 
	C407.934784,306.135437 406.214050,306.135437 404.398773,306.135437 
	C403.946747,315.285248 403.512665,324.071960 403.078583,332.858673 
	C397.541565,325.082855 392.647034,317.386536 388.504242,309.304871 
	C386.104828,304.624115 382.961334,303.861572 378.312897,304.980896 
	C377.782013,317.342834 377.256866,329.571564 376.720123,342.069946 
	C378.912109,342.182953 380.657349,342.272919 382.661469,342.376251 
	C383.154205,332.838257 383.625916,323.707367 384.166473,313.243835 
	C386.383270,317.054993 387.867706,319.607025 389.781830,322.754730 
M127.527344,337.573822 
	C129.631805,326.156403 126.003151,317.504120 117.694069,314.577087 
	C109.825172,311.805054 102.124825,313.900116 94.278786,315.102142 
	C95.784332,327.878571 97.213379,340.005890 98.679810,352.450378 
	C103.667908,351.846069 108.014885,351.655884 112.201767,350.736572 
	C119.213768,349.196960 124.774361,345.570831 127.527344,337.573822 
M322.226868,310.847839 
	C317.038574,319.257446 317.341217,329.515320 322.967072,335.936371 
	C328.381866,342.116516 338.602417,343.940948 347.397095,340.116699 
	C348.528564,339.624695 350.010406,338.266479 350.062561,337.244843 
	C350.331543,331.975433 350.187378,326.684906 350.187378,321.162476 
	C345.470398,321.162476 340.928802,321.162476 336.112030,321.162476 
	C336.239655,322.944580 336.340363,324.350800 336.441040,325.756500 
	C339.182800,326.013489 341.583679,326.238525 343.989929,326.464081 
	C343.989929,328.106506 343.808319,329.297302 344.021301,330.412781 
	C344.949280,335.273102 342.321533,336.462952 338.161041,336.555603 
	C330.029022,336.736572 324.996155,331.329254 325.195679,322.405975 
	C325.393890,313.540710 331.861694,307.409912 340.298828,308.381500 
	C343.304901,308.727631 346.230316,309.773895 349.125458,310.484100 
	C350.754944,305.434723 348.201691,303.740326 343.846466,303.229462 
	C335.666473,302.269897 328.211975,303.324921 322.226868,310.847839 
M500.792480,344.719299 
	C498.873657,341.242615 496.954803,337.765961 495.043457,334.302917 
	C501.769989,331.279572 504.144409,327.866516 503.407501,322.083496 
	C502.781189,317.168457 498.842804,314.118896 491.695099,313.185608 
	C487.937836,312.695038 484.155212,312.398560 479.966553,311.971863 
	C478.525818,324.554138 477.117889,336.849640 475.658508,349.594543 
	C478.095459,349.802185 479.958130,349.960907 481.836792,350.120972 
	C482.491608,344.783417 483.073151,340.043030 483.658051,335.275269 
	C487.759735,334.803894 490.290314,336.602295 491.900909,339.875549 
	C493.073151,342.257965 494.348175,344.637177 495.122864,347.157501 
	C496.528229,351.729523 499.501099,353.120728 504.476654,352.362122 
	C503.234772,349.826050 502.155396,347.621857 500.792480,344.719299 
M309.720245,280.513916 
	C312.173218,277.571991 316.420532,274.812317 316.741302,271.653870 
	C317.687500,262.337341 317.079193,252.862991 317.079193,243.413574 
	C315.424866,243.413574 313.665375,243.413574 311.508514,243.413574 
	C311.508514,246.478836 311.558472,249.288239 311.498077,252.095291 
	C311.372833,257.916351 311.644592,263.803040 310.804657,269.523468 
	C310.469452,271.806183 307.971375,274.851562 305.833557,275.504028 
	C303.398560,276.247192 299.187286,275.642548 297.699829,273.929230 
	C295.666168,271.586761 294.833313,267.686279 294.624878,264.381744 
	C294.187073,257.441071 294.491943,250.453568 294.491943,243.380188 
	C292.224152,243.380188 290.456451,243.380188 288.446289,243.380188 
	C288.446289,252.380829 287.937744,261.197083 288.598846,269.924744 
	C289.182587,277.631256 293.188477,280.898682 301.112823,281.553955 
	C303.702667,281.768158 306.366028,281.093445 309.720245,280.513916 
M328.165283,247.830444 
	C328.165283,259.103058 328.165283,270.375702 328.165283,281.917297 
	C330.041351,281.917297 331.792938,281.917297 334.164062,281.917297 
	C334.164062,276.979767 334.164062,272.085388 334.164062,267.418793 
	C338.681122,266.175537 341.162659,268.057281 343.016998,271.221161 
	C344.277985,273.372650 345.838013,275.409790 346.725525,277.706299 
	C348.491028,282.274689 351.521637,283.437805 356.591736,281.843048 
	C352.840790,276.078033 349.263489,270.579926 345.643707,265.016541 
	C345.757690,264.946350 346.297974,264.554901 346.886780,264.260376 
	C351.661774,261.871887 353.646393,257.958954 352.841461,252.773514 
	C352.137268,248.237152 348.350250,245.212219 342.727570,244.676422 
	C338.924072,244.313980 335.075226,244.120224 331.268005,244.300903 
	C330.195923,244.351776 329.199219,245.991150 328.165283,247.830444 
M197.638901,328.049866 
	C195.959717,333.203186 194.280548,338.356476 192.607025,343.492401 
	C202.028320,346.320526 199.706360,337.509705 202.538223,334.044678 
	C206.659622,333.767273 210.640991,333.121429 214.578751,333.323944 
	C220.299850,333.618103 217.835876,340.321960 221.761002,342.763092 
	C223.290833,342.564423 225.298782,342.303680 227.572098,342.008453 
	C222.674255,330.429840 218.110718,319.407684 213.278915,308.504425 
	C212.649094,307.083160 210.749878,305.580994 209.242661,305.339569 
	C206.852692,304.956635 204.607208,305.467041 203.740997,308.808929 
	C202.121490,315.057159 199.873199,321.142426 197.638901,328.049866 
M216.387039,282.946625 
	C223.729263,283.396179 220.429352,275.763916 224.281693,272.822144 
	C226.943405,272.822144 230.198837,273.326843 233.218933,272.699188 
	C237.343292,271.842041 239.182449,273.546326 239.909027,277.132538 
	C240.905426,282.050354 243.710251,283.052124 248.493576,281.155579 
	C243.650848,269.416412 238.940979,257.753418 233.911774,246.229797 
	C233.462601,245.200638 230.872757,244.513474 229.401764,244.692413 
	C227.987717,244.864426 225.972610,246.095230 225.531815,247.328934 
	C221.619568,258.278534 217.964951,269.321228 214.374023,280.381866 
	C214.154404,281.058380 215.119354,282.119476 216.387039,282.946625 
M157.269394,324.142670 
	C155.868683,321.139923 154.123199,318.244873 153.144470,315.110352 
	C151.492340,309.819305 148.323486,308.575409 143.242798,310.629456 
	C139.721466,323.163483 136.164139,335.825562 132.478256,348.945221 
	C136.194336,348.584167 139.856461,349.656128 140.135330,344.779938 
	C140.447617,339.319702 143.504059,337.421478 148.638885,337.974579 
	C149.777313,338.097229 151.012817,338.054657 152.104172,337.741486 
	C155.499237,336.767273 157.452682,337.998413 158.312851,341.338745 
	C159.556198,346.167053 162.422119,347.726929 167.277893,345.486572 
	C164.060837,338.575653 160.853363,331.685364 157.269394,324.142670 
M263.778229,276.516266 
	C259.597015,276.138000 262.390747,274.063232 263.096588,272.988861 
	C268.299805,265.068634 273.675079,257.261536 278.893677,249.351212 
	C279.862122,247.883224 280.367188,246.109543 281.232513,244.144562 
	C271.327576,244.144562 262.394623,244.144562 253.265533,244.144562 
	C253.265533,246.036560 253.265533,247.586029 253.265533,249.389511 
	C259.423462,249.389511 265.313873,249.389511 271.885712,249.389511 
	C264.689484,260.205353 257.812744,270.541016 250.569839,281.427002 
	C261.775970,281.427002 271.322601,281.427002 281.199554,281.427002 
	C281.074951,279.401184 280.987488,277.979584 280.897980,276.524841 
	C275.295227,276.524841 270.010010,276.524841 263.778229,276.516266 
M419.979034,325.337158 
	C419.565674,331.553741 419.152313,337.770325 418.718018,344.301544 
	C426.123810,344.784302 432.844574,345.222443 439.836853,345.678253 
	C439.836853,343.774963 439.836853,342.210419 439.836853,340.399933 
	C434.920441,340.043152 430.221588,339.702148 425.293518,339.344513 
	C425.641052,335.167969 425.926025,331.743256 426.212006,328.306366 
	C430.597260,328.554352 434.682037,328.785370 438.984192,329.028656 
	C438.984192,327.090271 438.984192,325.659454 438.984192,323.980804 
	C434.762390,323.550751 430.702301,323.137177 426.405396,322.699493 
	C426.714081,319.014587 426.996704,315.641235 427.277802,312.285950 
	C432.140656,312.583679 436.524200,312.852051 441.188293,313.137604 
	C441.188293,311.053375 441.188293,309.621582 441.188293,307.828705 
	C434.481537,307.403656 427.941132,306.989166 421.199219,306.561920 
	C420.771790,312.852386 420.379700,318.622559 419.979034,325.337158 
M255.836975,330.596497 
	C255.836975,328.964294 255.836975,327.332092 255.836975,325.451599 
	C260.195770,325.238831 264.243469,325.041260 268.549744,324.831055 
	C268.396118,322.862183 268.285217,321.440918 268.161133,319.850647 
	C263.860962,319.850647 259.898743,319.850647 255.572662,319.850647 
	C255.572662,316.291901 255.572662,312.928650 255.572662,309.045441 
	C260.273376,309.045441 264.708008,309.045441 269.400818,309.045441 
	C269.185883,306.955536 269.026825,305.409180 268.905090,304.225677 
	C261.958527,304.225677 255.551544,304.225677 249.673584,304.225677 
	C249.673584,317.021057 249.673584,329.389130 249.673584,341.440002 
	C257.119324,341.440002 263.874207,341.440002 270.876556,341.440002 
	C270.774384,339.527679 270.697540,338.089691 270.602600,336.312592 
	C265.652954,336.312592 260.940308,336.312592 255.836975,336.312592 
	C255.836975,334.499115 255.836975,333.034790 255.836975,330.596497 
M448.151794,339.620422 
	C448.033813,341.746582 447.915833,343.872711 447.773224,346.442383 
	C455.021576,347.025269 461.858307,347.575043 468.794373,348.132782 
	C468.794373,345.927490 468.794373,344.510101 468.794373,343.022034 
	C463.947723,342.522064 459.352478,342.048004 454.487152,341.546082 
	C454.776733,337.831238 455.043335,334.411102 455.331024,330.720703 
	C459.716522,330.982117 463.672638,331.217957 468.033813,331.477936 
	C468.251007,329.791748 468.449921,328.247589 468.677551,326.480347 
	C464.225952,326.014496 460.176849,325.590729 455.781189,325.130707 
	C456.142303,321.415588 456.452820,318.221130 456.788940,314.763123 
	C461.780914,315.089966 466.162384,315.376831 470.793335,315.680054 
	C470.793335,313.716583 470.793335,312.275269 470.793335,310.472168 
	C464.150604,309.922943 457.614838,309.382568 450.979919,308.834015 
	C450.012756,319.175262 449.099884,328.936096 448.151794,339.620422 
M382.978241,278.835052 
	C378.132477,278.009949 373.286743,277.184814 368.091888,276.300232 
	C368.268555,272.984039 368.449066,269.595398 368.641357,265.985291 
	C373.107971,265.985291 377.053802,265.985291 381.215637,265.985291 
	C381.424500,264.352509 381.604980,262.941650 381.831085,261.174164 
	C377.428253,260.969116 373.341309,260.778748 369.281067,260.589661 
	C369.281067,256.852783 369.281067,253.483963 369.281067,249.896423 
	C374.145325,249.896423 378.562622,249.896423 382.956909,249.896423 
	C382.956909,248.176193 382.956909,246.756073 382.956909,244.913574 
	C376.314301,244.913574 369.891174,244.913574 362.637085,244.913574 
	C362.637085,257.147064 362.637085,269.520813 362.637085,282.833588 
	C368.308929,282.833588 374.283081,282.642334 380.235657,282.917603 
	C383.037872,283.047180 383.231842,281.787628 382.978241,278.835052 
M166.527145,313.197418 
	C169.139755,313.197418 171.752350,313.197418 174.701263,313.197418 
	C175.417542,323.844940 176.124634,334.355713 176.852097,345.169373 
	C179.201935,345.054840 181.067093,344.963928 183.054428,344.867065 
	C182.363159,333.723267 181.709824,323.191040 181.039078,312.378082 
	C184.868042,312.127258 188.262024,311.904968 191.754044,311.676239 
	C191.731369,308.932281 192.632950,306.263824 188.662430,306.543335 
	C180.426819,307.123077 172.185364,307.619965 162.872864,308.220093 
	C164.001907,310.337250 164.778000,311.792572 166.527145,313.197418 
M363.528046,304.510162 
	C362.627075,305.047028 360.946747,305.574005 360.939789,306.122223 
	C360.789124,317.988312 360.825134,329.856781 360.825134,341.883698 
	C362.114197,341.883698 363.977386,341.883698 367.119629,341.883698 
	C367.119629,330.195160 367.185486,318.800629 367.001923,307.410156 
	C366.986237,306.437866 365.310333,305.492340 363.528046,304.510162 
z"/>
<path fill="#0164B5" opacity="1.000000" stroke="none" 
	d="
M489.511078,395.030334 
	C489.752655,422.916565 479.228455,446.814514 462.221375,468.243103 
	C439.717346,496.597809 410.900574,517.276855 380.068451,535.425171 
	C356.087402,549.540771 331.039124,561.505066 304.999268,571.326477 
	C302.755341,572.172791 299.671082,572.373535 297.480133,571.544678 
	C252.894577,554.677063 210.828522,533.132141 173.657196,502.942688 
	C152.306305,485.602112 133.833908,465.700806 122.129158,440.326111 
	C115.638954,426.256012 112.355103,411.463165 112.080727,395.544678 
	C127.554123,393.068695 142.988495,390.750061 158.492508,389.076752 
	C176.484970,387.134918 194.534760,385.715088 212.567780,384.163239 
	C218.527222,383.650391 224.507599,383.298859 230.485916,383.103394 
	C245.625610,382.608337 260.767944,381.979706 275.912201,381.887360 
	C299.863190,381.741333 323.836945,381.403625 347.763123,382.236725 
	C371.493317,383.063049 395.208252,384.872559 418.871216,386.926392 
	C440.695435,388.820618 462.442810,391.602661 484.220551,394.024963 
	C485.864990,394.207916 487.481506,394.641510 489.511078,395.030334 
M324.494263,522.148926 
	C330.539673,517.793274 336.585114,513.437622 342.752747,508.993896 
	C350.127075,514.312683 357.312744,519.495422 365.506622,525.405273 
	C362.392792,515.707214 359.671112,507.230377 356.923157,498.671814 
	C364.316711,493.281769 371.476349,488.062225 379.811218,481.985962 
	C369.386902,481.985962 360.474335,481.985962 351.508881,481.985962 
	C348.614319,473.256653 345.832916,464.868713 342.701508,455.425079 
	C339.911499,463.946198 337.396606,471.161896 335.231689,478.481049 
	C334.428680,481.196014 333.240784,482.141235 330.382629,482.064789 
	C322.626770,481.857361 314.861755,481.993622 305.762207,481.993622 
	C312.794983,487.150177 318.650940,491.692780 324.780060,495.830658 
	C327.750580,497.836151 328.541382,499.645935 327.227051,503.153595 
	C324.706146,509.881104 322.773529,516.829041 320.231018,524.837830 
	C322.249451,523.615662 323.073486,523.116699 324.494263,522.148926 
M271.015350,517.474976 
	C274.169830,519.750977 277.324310,522.026978 280.478790,524.302979 
	C279.194305,516.678772 277.228699,509.688568 274.707642,502.904785 
	C273.473572,499.584076 274.156952,497.897156 276.998810,495.976562 
	C283.224030,491.769562 289.177704,487.160736 296.228027,481.993500 
	C287.005310,481.993500 279.185455,481.898193 271.370300,482.047302 
	C268.778046,482.096741 267.607361,481.293549 266.844238,478.721008 
	C264.642822,471.299500 262.087738,463.982941 259.271149,455.405853 
	C256.680542,463.256958 254.181396,469.920288 252.338928,476.760468 
	C251.256775,480.778137 249.589798,482.364471 245.240555,482.108734 
	C238.046127,481.685791 230.808731,481.993774 222.199234,481.993774 
	C230.618515,488.135925 237.818420,493.388519 245.078506,498.684998 
	C242.274796,507.430603 239.556915,515.908447 236.516495,525.392456 
	C244.726700,519.473328 251.996979,514.231873 259.265869,508.991425 
	C263.154388,511.789032 266.800018,514.411865 271.015350,517.474976 
M286.396545,433.143188 
	C287.113159,432.732452 287.896820,432.406036 288.535889,431.897766 
	C293.954315,427.588440 295.577759,419.465363 292.358093,412.954895 
	C289.701904,407.583862 283.455933,404.848175 277.190460,406.311554 
	C270.378754,407.902527 266.740601,413.355988 266.772339,421.186920 
	C266.811462,430.843903 275.926819,437.178284 286.396545,433.143188 
M340.725861,433.525909 
	C344.187073,435.421234 347.013794,435.782196 348.631714,431.088867 
	C348.992676,430.041687 350.867859,429.119324 352.178101,428.887787 
	C354.245239,428.522522 356.424316,428.790588 358.635345,428.790588 
	C359.355255,431.022247 359.949646,432.864777 360.587311,434.841461 
	C362.824951,434.841461 364.902100,434.841461 367.472473,434.841461 
	C364.693939,426.140564 362.180725,417.752350 359.207550,409.530518 
	C358.771881,408.325714 356.132996,407.277527 354.540466,407.314575 
	C353.006226,407.350342 350.690979,408.529144 350.126526,409.820862 
	C346.816589,417.395508 343.919189,425.150391 340.725861,433.525909 
M186.061279,427.494415 
	C185.161942,430.717316 184.262604,433.940186 183.320816,437.315186 
	C187.683487,437.468170 190.862640,437.547028 191.508942,432.525574 
	C191.837006,429.976715 200.961884,429.713501 201.678375,432.293030 
	C203.088379,437.369324 206.395660,436.299896 210.318771,435.684692 
	C206.813522,427.246826 203.513351,418.959839 199.825317,410.849243 
	C199.352768,409.810028 196.768997,409.082336 195.331467,409.303497 
	C193.730820,409.549774 191.507919,410.722534 190.977249,412.057190 
	C189.085007,416.816162 187.796387,421.815155 186.061279,427.494415 
M253.314102,425.375153 
	C255.635635,429.371521 252.329056,429.762543 250.019684,429.772827 
	C247.519943,429.783966 245.015579,428.760040 242.523071,428.189789 
	C241.260468,433.507812 244.007645,435.160248 248.638855,435.001678 
	C250.619461,434.933838 252.636063,434.868378 254.561005,434.452972 
	C258.049530,433.700104 260.617920,431.893127 261.119751,427.954132 
	C261.633728,423.920044 259.818848,421.219635 256.458191,419.399445 
	C254.564697,418.373932 252.445709,417.738617 250.634064,416.600098 
	C249.829483,416.094452 248.989136,414.661591 249.161377,413.865051 
	C249.330460,413.083130 250.751389,412.063690 251.643997,412.042664 
	C254.222000,411.981995 256.810608,412.371765 259.511047,412.594269 
	C260.675659,408.836670 259.621307,406.522308 255.265350,406.614899 
	C252.792450,406.667450 249.888824,406.245148 247.965271,407.375000 
	C245.529190,408.805969 242.594254,411.426300 242.275162,413.849792 
	C241.955505,416.277679 244.144043,419.504364 246.073288,421.612000 
	C247.625671,423.307831 250.431564,423.856171 253.314102,425.375153 
M215.111481,417.136200 
	C216.218613,424.335846 225.287338,422.731964 228.023590,428.395935 
	C224.097992,432.473938 220.167679,430.290894 216.103607,428.906952 
	C216.103607,430.916565 216.103607,432.688873 216.103607,435.337341 
	C220.156967,435.337341 224.039917,435.628632 227.858139,435.256195 
	C231.743576,434.877136 234.268570,432.402252 234.696030,428.435028 
	C235.121643,424.484863 232.986481,421.797699 229.598434,420.065735 
	C227.679962,419.085022 225.613235,418.380249 223.749817,417.312836 
	C223.013443,416.890991 222.052017,415.588989 222.243744,415.098206 
	C222.590134,414.211426 223.695282,413.075989 224.538498,413.028992 
	C227.238312,412.878479 229.963272,413.178772 233.005081,413.320312 
	C232.902237,411.702362 232.790939,409.950989 232.687744,408.327301 
	C222.134460,405.693695 216.070526,408.550171 215.111481,417.136200 
M412.442627,425.181732 
	C412.543427,423.925262 412.644226,422.668793 412.758362,421.246338 
	C409.640320,420.902557 406.916901,420.602264 403.937866,420.273804 
	C404.074371,418.243652 404.179565,416.679352 404.299164,414.901062 
	C407.588043,414.901062 410.513245,414.901062 413.651703,414.901062 
	C413.651703,413.138123 413.651703,411.625793 413.651703,410.072876 
	C408.251099,409.736969 403.215271,409.423798 397.925690,409.094818 
	C397.458038,417.789001 396.910583,425.729187 396.749390,433.677185 
	C396.728271,434.718933 398.616608,436.621521 399.741364,436.718109 
	C403.978790,437.081970 408.266174,436.864105 412.858337,436.864105 
	C412.858337,435.592010 412.858337,434.047302 412.858337,432.275574 
	C409.546692,432.039886 406.480896,431.821686 403.063782,431.578491 
	C403.315125,429.420410 403.500397,427.829620 403.727631,425.878540 
	C406.684967,425.878540 409.302490,425.878540 412.442627,425.181732 
M299.986664,416.668732 
	C298.281311,429.165955 304.620880,435.873993 316.549377,434.194153 
	C321.485291,433.499054 321.614899,433.279846 320.270752,427.642792 
	C315.644104,429.303497 310.567047,430.259552 307.954590,425.153870 
	C306.608704,422.523529 306.609711,418.070038 307.953613,415.436005 
	C310.662933,410.125824 315.967804,411.577728 320.677979,412.747803 
	C321.596802,406.748016 321.246582,406.290466 315.633911,406.011383 
	C307.964386,405.630096 303.435883,408.516510 299.986664,416.668732 
M391.188141,411.556763 
	C390.074982,410.570923 389.027863,408.831421 387.837463,408.727081 
	C382.066589,408.221527 376.257660,408.143066 370.460846,407.955994 
	C370.023132,407.941895 369.574677,408.261444 368.937622,408.497650 
	C369.039185,409.960419 369.137848,411.381531 369.242615,412.890747 
	C371.906555,413.130920 374.272186,413.344208 376.330902,413.529785 
	C376.330902,421.152435 376.330902,428.194672 376.330902,435.581543 
	C378.233490,435.673981 379.980225,435.758881 382.150330,435.864319 
	C382.564484,428.393860 382.955231,421.345215 383.315918,414.839447 
	C386.256073,413.949951 388.704712,413.209167 391.188141,411.556763 
M335.178741,425.529358 
	C335.178741,419.421753 335.178741,413.314148 335.178741,407.117249 
	C333.109039,407.117249 331.208862,407.117249 329.212708,407.117249 
	C329.212708,416.281677 329.212708,425.149139 329.212708,434.231842 
	C331.351135,434.112030 333.084259,434.014954 335.178406,433.897614 
	C335.178406,431.120178 335.178406,428.807861 335.178741,425.529358 
z"/>
<path fill="#F7F7F7" opacity="1.000000" stroke="none" 
	d="
M230.795410,104.807251 
	C230.795395,103.744255 230.795395,103.078491 230.795395,102.412735 
	C230.521652,102.306381 230.247910,102.200027 229.974167,102.093674 
	C227.985001,107.795616 226.039230,113.513351 223.974289,119.187714 
	C223.494659,120.505737 222.811554,122.519485 221.869690,122.745667 
	C219.635269,123.282227 217.029480,123.929100 215.931259,120.321022 
	C214.115738,114.356293 211.838547,108.532097 208.948624,102.777336 
	C208.948624,109.297363 208.948624,115.817398 208.948624,122.672363 
	C206.669235,122.672363 204.793137,122.672363 202.732544,122.672363 
	C202.732544,112.488342 202.732544,102.402527 202.732544,92.149010 
	C206.132858,92.149010 209.263901,92.149010 212.693375,92.149010 
	C215.065262,98.970078 217.443222,105.808617 220.179413,113.677330 
	C222.204376,107.854736 224.405060,103.104012 225.445160,98.111488 
	C226.582489,92.652252 229.522202,91.146774 234.500977,91.968689 
	C235.311249,92.102448 236.147858,92.076706 237.342957,92.146263 
	C237.342957,102.262489 237.342957,112.305359 237.342957,122.791916 
	C235.461380,122.882553 233.540115,122.975098 230.795441,123.107300 
	C230.795441,117.016594 230.795441,111.110542 230.795410,104.807251 
z"/>
<path fill="#FAFAFA" opacity="1.000000" stroke="none" 
	d="
M340.730835,109.586250 
	C342.645447,102.484169 347.072876,99.395836 353.975555,99.997208 
	C359.997498,100.521835 363.824524,104.318298 364.228088,110.167824 
	C364.747559,117.697044 360.342407,122.734024 352.996124,123.010880 
	C344.723236,123.322655 340.555756,118.908600 340.730835,109.586250 
M347.379669,112.282684 
	C348.852448,114.183296 350.056305,116.465919 351.935699,117.788933 
	C352.647461,118.289993 356.066711,116.806213 356.260071,115.831856 
	C356.830505,112.957474 356.781738,109.802498 356.151123,106.938820 
	C355.949005,106.021049 352.309906,104.715988 351.742249,105.233223 
	C349.896606,106.914917 348.744751,109.358055 347.379669,112.282684 
z"/>
<path fill="#FAFAFA" opacity="1.000000" stroke="none" 
	d="
M316.124268,104.087875 
	C320.549988,113.191261 317.437256,121.142227 309.153839,122.826393 
	C303.793762,123.916199 298.404694,121.864746 296.069885,117.845718 
	C293.684174,113.738945 294.177795,107.137062 297.121643,103.779419 
	C300.421783,100.015442 307.293121,98.759781 312.302277,101.157761 
	C313.612701,101.785095 314.693481,102.892082 316.124268,104.087875 
M302.074524,115.309380 
	C305.273010,118.556030 308.948792,119.123596 310.061218,116.078003 
	C311.069855,113.316582 310.667358,109.818474 310.041779,106.821609 
	C309.863464,105.967430 305.612854,104.815804 305.161957,105.370705 
	C303.481415,107.438812 302.545044,110.134636 301.476746,112.657288 
	C301.269531,113.146645 301.723450,113.915977 302.074524,115.309380 
z"/>
<path fill="#F8F8F8" opacity="1.000000" stroke="none" 
	d="
M331.224792,116.936203 
	C329.813629,115.498596 327.885254,114.618988 326.494904,113.208916 
	C324.574799,111.261604 322.007812,109.084900 321.621063,106.698082 
	C321.054016,103.198547 323.989746,100.937263 327.435944,100.503372 
	C330.456024,100.123131 333.561798,100.423988 336.816345,100.423988 
	C336.816345,102.492973 336.816345,103.930031 336.816345,105.653839 
	C333.916779,105.653839 331.147430,105.653839 328.378052,105.653839 
	C328.259918,106.096466 328.141785,106.539093 328.023651,106.981720 
	C329.804321,107.878952 331.536011,108.896538 333.376770,109.646225 
	C336.411285,110.882072 339.136292,112.865707 337.978607,116.220268 
	C337.149841,118.621674 334.734650,120.846214 332.470978,122.257065 
	C330.846436,123.269554 328.298096,123.007927 326.170074,122.958893 
	C322.362335,122.871132 320.199188,121.248962 321.486420,117.257645 
	C324.687012,117.257645 327.817291,117.257645 331.224792,116.936203 
z"/>
<path fill="#FEFEFE" opacity="1.000000" stroke="none" 
	d="
M371.233429,122.584412 
	C370.805603,118.115639 370.824799,113.953659 370.650055,109.799843 
	C370.564545,107.766663 371.857727,104.729156 367.817017,104.907036 
	C367.801758,103.306511 367.786469,101.705978 367.771179,100.105453 
	C371.322357,100.480156 370.467316,97.676437 370.939819,95.774101 
	C371.912415,91.858856 377.592194,88.610771 381.172028,90.256104 
	C382.368774,90.806137 382.908264,92.786293 384.457458,95.232780 
	C379.823059,94.746338 376.929535,95.120659 377.632324,99.702820 
	C379.123474,99.886360 380.548615,100.061783 381.884338,100.226196 
	C383.630829,104.526581 381.329773,105.337959 377.472290,105.098221 
	C377.472290,111.028679 377.472290,116.770775 377.472290,122.894562 
	C375.172943,122.894562 373.386780,122.894562 371.233429,122.584412 
z"/>
<path fill="#F9F9F9" opacity="1.000000" stroke="none" 
	d="
M395.196991,108.217796 
	C395.197632,110.325806 395.235504,111.986259 395.192749,113.644630 
	C395.113678,116.712837 396.338623,118.392593 401.344482,117.650879 
	C399.654022,120.070290 398.886414,122.433128 397.619171,122.741280 
	C394.071930,123.603821 390.429291,122.999878 389.066895,118.881424 
	C388.357422,116.736794 388.665955,114.276901 388.254456,112.006569 
	C387.774445,109.358154 390.259613,105.520355 385.348816,104.426018 
	C385.001312,104.348595 384.556976,101.876335 385.059723,101.286278 
	C387.696045,98.192139 390.623230,95.345818 393.449371,92.413383 
	C393.957367,92.730904 394.465393,93.048424 394.973419,93.365952 
	C395.087494,95.280937 395.201599,97.195930 395.335602,99.445335 
	C396.776093,99.744453 398.297119,100.060287 399.933044,100.399994 
	C399.933044,101.819588 399.933044,103.102440 399.933044,103.223877 
	C397.938080,105.138893 396.567963,106.454094 395.196991,108.217796 
z"/>
<path fill="#FAFAFA" opacity="1.000000" stroke="none" 
	d="
M270.567993,105.246277 
	C264.444061,105.288193 262.046570,107.540894 262.508087,112.340004 
	C262.981628,117.264267 265.966248,118.634285 273.070190,117.188927 
	C274.613617,121.135323 272.685883,122.719963 269.026459,122.982437 
	C264.104156,123.335464 259.570007,122.392815 257.044922,117.651596 
	C254.677063,113.205521 254.915970,108.623192 257.903046,104.461082 
	C260.491974,100.853752 266.603058,98.757896 270.909058,100.290154 
	C272.086212,100.709038 272.654755,102.838226 273.502563,104.182549 
	C272.650940,104.578033 271.799286,104.973503 270.567993,105.246277 
z"/>
<path fill="#F8F8F8" opacity="1.000000" stroke="none" 
	d="
M291.197632,106.055748 
	C286.688751,105.679688 284.929016,107.855492 284.818146,111.612099 
	C284.711548,115.224358 284.795074,118.842232 284.795074,122.733047 
	C282.374207,122.733047 280.455780,122.733047 278.161682,122.733047 
	C278.161682,115.469055 278.161682,108.095711 278.161682,99.763748 
	C280.616058,100.222221 283.020142,100.671295 285.424194,101.120369 
	C285.302490,101.470840 285.180756,101.821312 285.059052,102.171791 
	C287.176819,101.305328 289.294617,100.438866 292.382355,99.175560 
	C292.049133,102.258163 291.844543,104.150696 291.197632,106.055748 
z"/>
<path fill="#F3F3F3" opacity="1.000000" stroke="none" 
	d="
M386.778015,142.970291 
	C395.571655,143.555603 399.081726,147.370789 398.547943,155.269104 
	C398.007141,163.271866 392.472931,166.540085 380.311768,165.816315 
	C380.311768,158.476410 380.311768,151.101364 380.311768,142.970047 
	C382.190094,142.970047 384.256561,142.970047 386.778015,142.970291 
M382.872192,146.933075 
	C382.872192,152.356842 382.872192,157.780624 382.872192,163.316498 
	C387.998016,163.855560 392.333466,163.593964 394.673126,159.022064 
	C396.508362,155.435760 396.686462,151.373184 393.824219,148.246201 
	C390.973663,145.131958 387.160797,144.236816 382.872192,146.933075 
z"/>
<path fill="#F5F5F5" opacity="1.000000" stroke="none" 
	d="
M266.235443,154.211914 
	C265.807587,155.169022 265.354462,156.130386 265.658478,156.640472 
	C267.425476,159.605194 269.370453,162.463821 271.688660,166.023880 
	C264.354462,165.859863 266.077179,154.868576 258.383698,156.446732 
	C257.928223,159.662048 257.465576,162.927948 257.002930,166.193848 
	C256.428101,166.086929 255.853302,165.980026 255.278503,165.873108 
	C255.278503,158.488907 255.278503,151.104721 255.278503,142.978439 
	C259.515839,143.648544 264.420837,140.968094 267.884491,145.589569 
	C270.073334,148.510101 269.286743,151.556625 266.235443,154.211914 
M265.981171,148.655716 
	C264.531342,144.295776 261.308472,145.115799 258.192444,145.586700 
	C258.192444,148.515350 258.192444,151.072983 258.192444,153.607742 
	C264.179596,153.839371 264.351410,153.743027 265.981171,148.655716 
z"/>
<path fill="#F5F5F5" opacity="1.000000" stroke="none" 
	d="
M243.904419,102.246788 
	C245.858871,100.953621 247.806808,100.135223 250.422882,99.036118 
	C250.422882,107.656158 250.422882,115.026321 250.422882,122.712051 
	C248.430115,122.712051 246.521744,122.712051 243.897919,122.712051 
	C243.897919,116.169716 243.897919,109.445633 243.904419,102.246788 
z"/>
<path fill="#F8F8F8" opacity="1.000000" stroke="none" 
	d="
M243.295227,144.750702 
	C240.474030,145.128555 238.005569,145.244278 235.197693,145.375916 
	C235.197693,147.784485 235.197693,150.031113 235.197693,152.679260 
	C237.628601,152.882950 240.280930,153.105179 242.933258,153.327408 
	C242.979095,153.850296 243.024933,154.373184 243.070770,154.896072 
	C240.586746,155.214462 238.102737,155.532852 235.222351,155.902039 
	C235.222351,158.154434 235.222351,160.527985 235.222351,163.185303 
	C238.242249,163.412262 241.195923,163.634247 244.149612,163.856232 
	C244.148132,164.353409 244.146652,164.850571 244.145157,165.347748 
	C240.283051,165.347748 236.420944,165.347748 232.261108,165.347748 
	C232.261108,158.288803 232.261108,150.895737 232.261108,142.339066 
	C236.235504,143.089310 239.941727,143.788940 243.295227,144.750702 
z"/>
<path fill="#F8F8F8" opacity="1.000000" stroke="none" 
	d="
M357.044647,164.728333 
	C356.997009,157.308884 356.997009,150.366730 356.997009,143.276840 
	C361.162933,143.276840 364.892548,143.276840 368.622192,143.276840 
	C368.679352,143.711746 368.736511,144.146652 368.793671,144.581543 
	C365.989105,144.914276 363.184509,145.247009 360.118408,145.610779 
	C360.118408,147.921936 360.118408,150.170517 360.118408,152.722214 
	C362.708862,152.896484 365.275787,153.069183 367.842682,153.241867 
	C367.928314,153.803604 368.013947,154.365341 368.099579,154.927078 
	C365.552612,155.237411 363.005676,155.547760 360.144775,155.896362 
	C360.144775,158.257614 360.144775,160.655701 360.144775,163.143372 
	C363.340942,163.427979 366.277740,163.689499 369.214539,163.951004 
	C369.161652,164.677002 369.108795,165.402985 369.055908,166.128967 
	C365.068024,165.821182 361.080170,165.513397 357.044647,164.728333 
z"/>
<path fill="#F3F3F3" opacity="1.000000" stroke="none" 
	d="
M208.231659,144.029114 
	C212.550110,142.151520 216.388397,141.617798 220.184265,144.185013 
	C215.584457,145.485809 211.288040,145.903900 208.006989,147.950104 
	C206.250870,149.045303 205.526535,152.961853 205.587357,155.576050 
	C205.744644,162.335403 209.633270,164.336792 219.462402,163.371658 
	C217.570343,167.134766 210.642532,167.547791 206.513763,164.143677 
	C200.556259,159.231705 201.184387,150.152451 208.231659,144.029114 
z"/>
<path fill="#F0F0F0" opacity="1.000000" stroke="none" 
	d="
M329.461792,143.031677 
	C329.670074,143.787613 329.477417,145.072296 329.191895,145.093262 
	C326.926117,145.259781 324.642639,145.185989 322.125458,145.185989 
	C322.125458,147.998001 322.125458,150.249420 322.125458,152.838898 
	C324.790741,153.062103 327.398071,153.280457 330.005432,153.498810 
	C330.026001,154.077530 330.046600,154.656250 330.067200,155.234955 
	C327.581757,155.554306 325.096344,155.873672 322.226288,156.242447 
	C321.932526,159.440475 321.624542,162.793076 321.316589,166.145660 
	C320.683807,166.077423 320.050995,166.009186 319.418213,165.940948 
	C319.418213,158.484863 319.418213,151.028763 319.418213,142.974915 
	C322.500214,142.974915 325.759033,142.974915 329.461792,143.031677 
z"/>
<path fill="#F3F3F3" opacity="1.000000" stroke="none" 
	d="
M284.137146,155.981705 
	C284.137146,152.216171 284.137146,148.938263 284.137146,145.587372 
	C281.707092,145.281860 279.825317,145.045273 277.943542,144.808685 
	C277.944611,144.436035 277.945709,144.063370 277.946808,143.690704 
	C283.167969,143.690704 288.389130,143.690704 293.610291,143.690704 
	C293.682861,143.990707 293.755432,144.290710 293.828003,144.590714 
	C291.778534,144.903488 289.729065,145.216278 287.148682,145.610092 
	C287.148682,152.221985 287.148682,158.953705 287.148682,165.830093 
	C284.137054,164.942322 284.137054,164.942322 284.137146,155.981705 
z"/>
<path fill="#F0F0F0" opacity="1.000000" stroke="none" 
	d="
M341.959351,158.903107 
	C341.959351,153.336380 341.959351,148.255859 341.959351,143.175323 
	C342.363770,143.012970 342.768188,142.850601 343.172607,142.688232 
	C343.737305,143.508133 344.683258,144.274384 344.807404,145.156265 
	C345.970215,153.417847 344.831451,164.505341 341.959351,166.498047 
	C341.959351,163.765121 341.959351,161.577209 341.959351,158.903107 
z"/>
<path fill="#F0F0F0" opacity="1.000000" stroke="none" 
	d="
M303.959351,153.026947 
	C303.959351,149.403687 303.959351,146.271469 303.959351,143.139267 
	C304.579437,143.024475 305.199493,142.909698 305.819580,142.794922 
	C306.172180,144.271515 306.909790,145.774506 306.810730,147.220169 
	C306.382385,153.472076 308.074310,160.007538 305.932739,166.050980 
	C305.274933,165.993729 304.617157,165.936493 303.959351,165.879257 
	C303.959351,161.758835 303.959351,157.638412 303.959351,153.026947 
z"/>
<path fill="#F5F5F5" opacity="1.000000" stroke="none" 
	d="
M246.414612,90.061638 
	C248.226181,91.179054 249.654175,92.362785 251.082153,93.546509 
	C250.113602,94.688004 249.204544,96.689934 248.162048,96.762009 
	C246.728210,96.861168 245.193390,95.500145 243.701843,94.764725 
	C244.478241,93.219131 245.254639,91.673546 246.414612,90.061638 
z"/>
<path fill="#313131" opacity="1.000000" stroke="none" 
	d="
M304.796387,323.078674 
	C304.796356,316.318054 304.796356,310.009552 304.796356,303.220978 
	C306.445526,303.134857 308.163513,303.045166 310.374939,302.929688 
	C310.374939,315.636444 310.374939,328.020844 310.374939,340.605560 
	C306.211517,341.936462 303.357666,340.730347 300.904694,336.616852 
	C296.153961,328.650177 290.827393,321.026886 285.103882,312.291229 
	C285.103882,322.315338 285.103882,331.279877 285.103882,340.726349 
	C282.946838,340.856476 281.217682,340.960754 278.994263,341.094879 
	C278.994263,328.488159 278.994263,316.106354 278.994263,303.589478 
	C283.381927,302.183563 286.438385,303.300537 288.992218,307.688812 
	C293.572998,315.559998 298.794342,323.058411 304.796387,330.585876 
	C304.796387,328.234161 304.796387,325.882477 304.796387,323.078674 
z"/>
<path fill="#2E2E2E" opacity="1.000000" stroke="none" 
	d="
M389.566986,322.456909 
	C387.867706,319.607025 386.383270,317.054993 384.166473,313.243835 
	C383.625916,323.707367 383.154205,332.838257 382.661469,342.376251 
	C380.657349,342.272919 378.912109,342.182953 376.720123,342.069946 
	C377.256866,329.571564 377.782013,317.342834 378.312897,304.980896 
	C382.961334,303.861572 386.104828,304.624115 388.504242,309.304871 
	C392.647034,317.386536 397.541565,325.082855 403.078583,332.858673 
	C403.512665,324.071960 403.946747,315.285248 404.398773,306.135437 
	C406.214050,306.135437 407.934784,306.135437 410.348358,306.135437 
	C409.831696,318.379974 409.311523,330.708344 408.794403,342.964172 
	C403.922180,344.605103 401.143585,342.916901 399.001373,338.706177 
	C396.220581,333.240265 392.880920,328.058716 389.566986,322.456909 
z"/>
<path fill="#303030" opacity="1.000000" stroke="none" 
	d="
M127.369049,337.954041 
	C124.774361,345.570831 119.213768,349.196960 112.201767,350.736572 
	C108.014885,351.655884 103.667908,351.846069 98.679810,352.450378 
	C97.213379,340.005890 95.784332,327.878571 94.278786,315.102142 
	C102.124825,313.900116 109.825172,311.805054 117.694069,314.577087 
	C126.003151,317.504120 129.631805,326.156403 127.369049,337.954041 
M108.270332,345.999695 
	C118.568810,344.525696 123.112549,338.797638 121.384933,329.466766 
	C119.598167,319.816437 113.485474,316.825562 101.171806,319.834229 
	C102.106430,327.836792 102.953667,335.901184 104.123268,343.918518 
	C104.247429,344.769562 106.260597,345.345062 108.270332,345.999695 
z"/>
<path fill="#2F2F2F" opacity="1.000000" stroke="none" 
	d="
M322.466980,310.571777 
	C328.211975,303.324921 335.666473,302.269897 343.846466,303.229462 
	C348.201691,303.740326 350.754944,305.434723 349.125458,310.484100 
	C346.230316,309.773895 343.304901,308.727631 340.298828,308.381500 
	C331.861694,307.409912 325.393890,313.540710 325.195679,322.405975 
	C324.996155,331.329254 330.029022,336.736572 338.161041,336.555603 
	C342.321533,336.462952 344.949280,335.273102 344.021301,330.412781 
	C343.808319,329.297302 343.989929,328.106506 343.989929,326.464081 
	C341.583679,326.238525 339.182800,326.013489 336.441040,325.756500 
	C336.340363,324.350800 336.239655,322.944580 336.112030,321.162476 
	C340.928802,321.162476 345.470398,321.162476 350.187378,321.162476 
	C350.187378,326.684906 350.331543,331.975433 350.062561,337.244843 
	C350.010406,338.266479 348.528564,339.624695 347.397095,340.116699 
	C338.602417,343.940948 328.381866,342.116516 322.967072,335.936371 
	C317.341217,329.515320 317.038574,319.257446 322.466980,310.571777 
z"/>
<path fill="#2F2F2F" opacity="1.000000" stroke="none" 
	d="
M500.934265,345.068481 
	C502.155396,347.621857 503.234772,349.826050 504.476654,352.362122 
	C499.501099,353.120728 496.528229,351.729523 495.122864,347.157501 
	C494.348175,344.637177 493.073151,342.257965 491.900909,339.875549 
	C490.290314,336.602295 487.759735,334.803894 483.658051,335.275269 
	C483.073151,340.043030 482.491608,344.783417 481.836792,350.120972 
	C479.958130,349.960907 478.095459,349.802185 475.658508,349.594543 
	C477.117889,336.849640 478.525818,324.554138 479.966553,311.971863 
	C484.155212,312.398560 487.937836,312.695038 491.695099,313.185608 
	C498.842804,314.118896 502.781189,317.168457 503.407501,322.083496 
	C504.144409,327.866516 501.769989,331.279572 495.043457,334.302917 
	C496.954803,337.765961 498.873657,341.242615 500.934265,345.068481 
M496.342285,326.665161 
	C497.374756,319.787872 494.846649,317.739838 485.545776,318.225586 
	C485.126251,322.033997 484.701050,325.893646 484.272247,329.786377 
	C488.852600,330.394897 493.117126,331.993469 496.342285,326.665161 
z"/>
<path fill="#333333" opacity="1.000000" stroke="none" 
	d="
M309.358032,280.669586 
	C306.366028,281.093445 303.702667,281.768158 301.112823,281.553955 
	C293.188477,280.898682 289.182587,277.631256 288.598846,269.924744 
	C287.937744,261.197083 288.446289,252.380829 288.446289,243.380188 
	C290.456451,243.380188 292.224152,243.380188 294.491943,243.380188 
	C294.491943,250.453568 294.187073,257.441071 294.624878,264.381744 
	C294.833313,267.686279 295.666168,271.586761 297.699829,273.929230 
	C299.187286,275.642548 303.398560,276.247192 305.833557,275.504028 
	C307.971375,274.851562 310.469452,271.806183 310.804657,269.523468 
	C311.644592,263.803040 311.372833,257.916351 311.498077,252.095291 
	C311.558472,249.288239 311.508514,246.478836 311.508514,243.413574 
	C313.665375,243.413574 315.424866,243.413574 317.079193,243.413574 
	C317.079193,252.862991 317.687500,262.337341 316.741302,271.653870 
	C316.420532,274.812317 312.173218,277.571991 309.358032,280.669586 
z"/>
<path fill="#2E2E2E" opacity="1.000000" stroke="none" 
	d="
M328.166595,247.366180 
	C329.199219,245.991150 330.195923,244.351776 331.268005,244.300903 
	C335.075226,244.120224 338.924072,244.313980 342.727570,244.676422 
	C348.350250,245.212219 352.137268,248.237152 352.841461,252.773514 
	C353.646393,257.958954 351.661774,261.871887 346.886780,264.260376 
	C346.297974,264.554901 345.757690,264.946350 345.643707,265.016541 
	C349.263489,270.579926 352.840790,276.078033 356.591736,281.843048 
	C351.521637,283.437805 348.491028,282.274689 346.725525,277.706299 
	C345.838013,275.409790 344.277985,273.372650 343.016998,271.221161 
	C341.162659,268.057281 338.681122,266.175537 334.164062,267.418793 
	C334.164062,272.085388 334.164062,276.979767 334.164062,281.917297 
	C331.792938,281.917297 330.041351,281.917297 328.165283,281.917297 
	C328.165283,270.375702 328.165283,259.103058 328.166595,247.366180 
M346.197021,256.290985 
	C345.711609,250.109253 342.543060,248.365540 334.551697,250.111984 
	C334.551697,253.908493 334.551697,257.767944 334.551697,261.738403 
	C339.319397,261.742859 344.216156,263.150085 346.197021,256.290985 
z"/>
<path fill="#313131" opacity="1.000000" stroke="none" 
	d="
M197.762711,327.672668 
	C199.873199,321.142426 202.121490,315.057159 203.740997,308.808929 
	C204.607208,305.467041 206.852692,304.956635 209.242661,305.339569 
	C210.749878,305.580994 212.649094,307.083160 213.278915,308.504425 
	C218.110718,319.407684 222.674255,330.429840 227.572098,342.008453 
	C225.298782,342.303680 223.290833,342.564423 221.761002,342.763092 
	C217.835876,340.321960 220.299850,333.618103 214.578751,333.323944 
	C210.640991,333.121429 206.659622,333.767273 202.538223,334.044678 
	C199.706360,337.509705 202.028320,346.320526 192.607025,343.492401 
	C194.280548,338.356476 195.959717,333.203186 197.762711,327.672668 
M207.699783,314.593231 
	C206.374176,319.147705 205.048569,323.702209 203.558044,328.823303 
	C207.705597,328.531830 211.225357,328.284454 215.087646,328.013000 
	C213.027451,322.937469 211.181763,318.360107 209.263046,313.813507 
	C209.207047,313.680817 208.379730,313.873627 207.699783,314.593231 
z"/>
<path fill="#303030" opacity="1.000000" stroke="none" 
	d="
M215.960083,282.974121 
	C215.119354,282.119476 214.154404,281.058380 214.374023,280.381866 
	C217.964951,269.321228 221.619568,258.278534 225.531815,247.328934 
	C225.972610,246.095230 227.987717,244.864426 229.401764,244.692413 
	C230.872757,244.513474 233.462601,245.200638 233.911774,246.229797 
	C238.940979,257.753418 243.650848,269.416412 248.493576,281.155579 
	C243.710251,283.052124 240.905426,282.050354 239.909027,277.132538 
	C239.182449,273.546326 237.343292,271.842041 233.218933,272.699188 
	C230.198837,273.326843 226.943405,272.822144 224.281693,272.822144 
	C220.429352,275.763916 223.729263,283.396179 215.960083,282.974121 
M230.985153,253.660049 
	C230.331985,253.615158 229.151199,253.399292 229.102310,253.550186 
	C227.627899,258.100372 226.265121,262.686768 224.849686,267.384216 
	C228.757660,267.384216 232.253677,267.384216 236.279572,267.384216 
	C234.429062,262.652771 232.809296,258.511261 230.985153,253.660049 
z"/>
<path fill="#2F2F2F" opacity="1.000000" stroke="none" 
	d="
M157.457642,324.468872 
	C160.853363,331.685364 164.060837,338.575653 167.277893,345.486572 
	C162.422119,347.726929 159.556198,346.167053 158.312851,341.338745 
	C157.452682,337.998413 155.499237,336.767273 152.104172,337.741486 
	C151.012817,338.054657 149.777313,338.097229 148.638885,337.974579 
	C143.504059,337.421478 140.447617,339.319702 140.135330,344.779938 
	C139.856461,349.656128 136.194336,348.584167 132.478256,348.945221 
	C136.164139,335.825562 139.721466,323.163483 143.242798,310.629456 
	C148.323486,308.575409 151.492340,309.819305 153.144470,315.110352 
	C154.123199,318.244873 155.868683,321.139923 157.457642,324.468872 
M146.851624,318.096588 
	C145.594849,322.977570 144.338058,327.858582 142.948471,333.255341 
	C146.998627,332.963287 150.380249,332.719421 154.854858,332.396729 
	C152.000854,326.941589 149.520325,322.200317 146.851624,318.096588 
z"/>
<path fill="#2F2F2F" opacity="1.000000" stroke="none" 
	d="
M264.251526,276.520569 
	C270.010010,276.524841 275.295227,276.524841 280.897980,276.524841 
	C280.987488,277.979584 281.074951,279.401184 281.199554,281.427002 
	C271.322601,281.427002 261.775970,281.427002 250.569839,281.427002 
	C257.812744,270.541016 264.689484,260.205353 271.885712,249.389511 
	C265.313873,249.389511 259.423462,249.389511 253.265533,249.389511 
	C253.265533,247.586029 253.265533,246.036560 253.265533,244.144562 
	C262.394623,244.144562 271.327576,244.144562 281.232513,244.144562 
	C280.367188,246.109543 279.862122,247.883224 278.893677,249.351212 
	C273.675079,257.261536 268.299805,265.068634 263.096588,272.988861 
	C262.390747,274.063232 259.597015,276.138000 264.251526,276.520569 
z"/>
<path fill="#2F2F2F" opacity="1.000000" stroke="none" 
	d="
M419.983337,324.864960 
	C420.379700,318.622559 420.771790,312.852386 421.199219,306.561920 
	C427.941132,306.989166 434.481537,307.403656 441.188293,307.828705 
	C441.188293,309.621582 441.188293,311.053375 441.188293,313.137604 
	C436.524200,312.852051 432.140656,312.583679 427.277802,312.285950 
	C426.996704,315.641235 426.714081,319.014587 426.405396,322.699493 
	C430.702301,323.137177 434.762390,323.550751 438.984192,323.980804 
	C438.984192,325.659454 438.984192,327.090271 438.984192,329.028656 
	C434.682037,328.785370 430.597260,328.554352 426.212006,328.306366 
	C425.926025,331.743256 425.641052,335.167969 425.293518,339.344513 
	C430.221588,339.702148 434.920441,340.043152 439.836853,340.399933 
	C439.836853,342.210419 439.836853,343.774963 439.836853,345.678253 
	C432.844574,345.222443 426.123810,344.784302 418.718018,344.301544 
	C419.152313,337.770325 419.565674,331.553741 419.983337,324.864960 
z"/>
<path fill="#2F2F2F" opacity="1.000000" stroke="none" 
	d="
M255.836975,331.083496 
	C255.836975,333.034790 255.836975,334.499115 255.836975,336.312592 
	C260.940308,336.312592 265.652954,336.312592 270.602600,336.312592 
	C270.697540,338.089691 270.774384,339.527679 270.876556,341.440002 
	C263.874207,341.440002 257.119324,341.440002 249.673584,341.440002 
	C249.673584,329.389130 249.673584,317.021057 249.673584,304.225677 
	C255.551544,304.225677 261.958527,304.225677 268.905090,304.225677 
	C269.026825,305.409180 269.185883,306.955536 269.400818,309.045441 
	C264.708008,309.045441 260.273376,309.045441 255.572662,309.045441 
	C255.572662,312.928650 255.572662,316.291901 255.572662,319.850647 
	C259.898743,319.850647 263.860962,319.850647 268.161133,319.850647 
	C268.285217,321.440918 268.396118,322.862183 268.549744,324.831055 
	C264.243469,325.041260 260.195770,325.238831 255.836975,325.451599 
	C255.836975,327.332092 255.836975,328.964294 255.836975,331.083496 
z"/>
<path fill="#2F2F2F" opacity="1.000000" stroke="none" 
	d="
M448.169373,339.158691 
	C449.099884,328.936096 450.012756,319.175262 450.979919,308.834015 
	C457.614838,309.382568 464.150604,309.922943 470.793335,310.472168 
	C470.793335,312.275269 470.793335,313.716583 470.793335,315.680054 
	C466.162384,315.376831 461.780914,315.089966 456.788940,314.763123 
	C456.452820,318.221130 456.142303,321.415588 455.781189,325.130707 
	C460.176849,325.590729 464.225952,326.014496 468.677551,326.480347 
	C468.449921,328.247589 468.251007,329.791748 468.033813,331.477936 
	C463.672638,331.217957 459.716522,330.982117 455.331024,330.720703 
	C455.043335,334.411102 454.776733,337.831238 454.487152,341.546082 
	C459.352478,342.048004 463.947723,342.522064 468.794373,343.022034 
	C468.794373,344.510101 468.794373,345.927490 468.794373,348.132782 
	C461.858307,347.575043 455.021576,347.025269 447.773224,346.442383 
	C447.915833,343.872711 448.033813,341.746582 448.169373,339.158691 
z"/>
<path fill="#2C2C2C" opacity="1.000000" stroke="none" 
	d="
M382.991028,279.282166 
	C383.231842,281.787628 383.037872,283.047180 380.235657,282.917603 
	C374.283081,282.642334 368.308929,282.833588 362.637085,282.833588 
	C362.637085,269.520813 362.637085,257.147064 362.637085,244.913574 
	C369.891174,244.913574 376.314301,244.913574 382.956909,244.913574 
	C382.956909,246.756073 382.956909,248.176193 382.956909,249.896423 
	C378.562622,249.896423 374.145325,249.896423 369.281067,249.896423 
	C369.281067,253.483963 369.281067,256.852783 369.281067,260.589661 
	C373.341309,260.778748 377.428253,260.969116 381.831085,261.174164 
	C381.604980,262.941650 381.424500,264.352509 381.215637,265.985291 
	C377.053802,265.985291 373.107971,265.985291 368.641357,265.985291 
	C368.449066,269.595398 368.268555,272.984039 368.091888,276.300232 
	C373.286743,277.184814 378.132477,278.009949 382.991028,279.282166 
z"/>
<path fill="#2D2D2D" opacity="1.000000" stroke="none" 
	d="
M166.040619,313.222656 
	C164.778000,311.792572 164.001907,310.337250 162.872864,308.220093 
	C172.185364,307.619965 180.426819,307.123077 188.662430,306.543335 
	C192.632950,306.263824 191.731369,308.932281 191.754044,311.676239 
	C188.262024,311.904968 184.868042,312.127258 181.039078,312.378082 
	C181.709824,323.191040 182.363159,333.723267 183.054428,344.867065 
	C181.067093,344.963928 179.201935,345.054840 176.852097,345.169373 
	C176.124634,334.355713 175.417542,323.844940 174.701263,313.197418 
	C171.752350,313.197418 169.139755,313.197418 166.040619,313.222656 
z"/>
<path fill="#2D2D2D" opacity="1.000000" stroke="none" 
	d="
M363.966858,304.522278 
	C365.310333,305.492340 366.986237,306.437866 367.001923,307.410156 
	C367.185486,318.800629 367.119629,330.195160 367.119629,341.883698 
	C363.977386,341.883698 362.114197,341.883698 360.825134,341.883698 
	C360.825134,329.856781 360.789124,317.988312 360.939789,306.122223 
	C360.946747,305.574005 362.627075,305.047028 363.966858,304.522278 
z"/>
<path fill="#FBFDFE" opacity="1.000000" stroke="none" 
	d="
M324.195862,522.383301 
	C323.073486,523.116699 322.249451,523.615662 320.231018,524.837830 
	C322.773529,516.829041 324.706146,509.881104 327.227051,503.153595 
	C328.541382,499.645935 327.750580,497.836151 324.780060,495.830658 
	C318.650940,491.692780 312.794983,487.150177 305.762207,481.993622 
	C314.861755,481.993622 322.626770,481.857361 330.382629,482.064789 
	C333.240784,482.141235 334.428680,481.196014 335.231689,478.481049 
	C337.396606,471.161896 339.911499,463.946198 342.701508,455.425079 
	C345.832916,464.868713 348.614319,473.256653 351.508881,481.985962 
	C360.474335,481.985962 369.386902,481.985962 379.811218,481.985962 
	C371.476349,488.062225 364.316711,493.281769 356.923157,498.671814 
	C359.671112,507.230377 362.392792,515.707214 365.506622,525.405273 
	C357.312744,519.495422 350.127075,514.312683 342.752747,508.993896 
	C336.585114,513.437622 330.539673,517.793274 324.195862,522.383301 
z"/>
<path fill="#FBFDFE" opacity="1.000000" stroke="none" 
	d="
M270.730499,517.254883 
	C266.800018,514.411865 263.154388,511.789032 259.265869,508.991425 
	C251.996979,514.231873 244.726700,519.473328 236.516495,525.392456 
	C239.556915,515.908447 242.274796,507.430603 245.078506,498.684998 
	C237.818420,493.388519 230.618515,488.135925 222.199234,481.993774 
	C230.808731,481.993774 238.046127,481.685791 245.240555,482.108734 
	C249.589798,482.364471 251.256775,480.778137 252.338928,476.760468 
	C254.181396,469.920288 256.680542,463.256958 259.271149,455.405853 
	C262.087738,463.982941 264.642822,471.299500 266.844238,478.721008 
	C267.607361,481.293549 268.778046,482.096741 271.370300,482.047302 
	C279.185455,481.898193 287.005310,481.993500 296.228027,481.993500 
	C289.177704,487.160736 283.224030,491.769562 276.998810,495.976562 
	C274.156952,497.897156 273.473572,499.584076 274.707642,502.904785 
	C277.228699,509.688568 279.194305,516.678772 280.478790,524.302979 
	C277.324310,522.026978 274.169830,519.750977 270.730499,517.254883 
z"/>
<path fill="#F3F8FC" opacity="1.000000" stroke="none" 
	d="
M286.054016,433.312500 
	C275.926819,437.178284 266.811462,430.843903 266.772339,421.186920 
	C266.740601,413.355988 270.378754,407.902527 277.190460,406.311554 
	C283.455933,404.848175 289.701904,407.583862 292.358093,412.954895 
	C295.577759,419.465363 293.954315,427.588440 288.535889,431.897766 
	C287.896820,432.406036 287.113159,432.732452 286.054016,433.312500 
M273.698669,418.771851 
	C273.854675,420.573822 273.634247,422.516632 274.244781,424.148560 
	C275.531158,427.587006 278.103790,429.790741 281.959625,428.616608 
	C286.676025,427.180450 287.317810,423.170776 286.951538,418.958374 
	C286.646393,415.448639 285.461334,412.346924 281.362488,411.850769 
	C276.889252,411.309357 274.646118,413.800781 273.698669,418.771851 
z"/>
<path fill="#F3F8FC" opacity="1.000000" stroke="none" 
	d="
M340.804260,433.185211 
	C343.919189,425.150391 346.816589,417.395508 350.126526,409.820862 
	C350.690979,408.529144 353.006226,407.350342 354.540466,407.314575 
	C356.132996,407.277527 358.771881,408.325714 359.207550,409.530518 
	C362.180725,417.752350 364.693939,426.140564 367.472473,434.841461 
	C364.902100,434.841461 362.824951,434.841461 360.587311,434.841461 
	C359.949646,432.864777 359.355255,431.022247 358.635345,428.790588 
	C356.424316,428.790588 354.245239,428.522522 352.178101,428.887787 
	C350.867859,429.119324 348.992676,430.041687 348.631714,431.088867 
	C347.013794,435.782196 344.187073,435.421234 340.804260,433.185211 
M351.369659,423.546814 
	C353.228455,423.546814 355.087280,423.546814 357.382935,423.546814 
	C356.397797,420.129547 355.583618,417.305298 354.504364,413.561615 
	C353.217926,417.188690 352.229736,419.974945 351.369659,423.546814 
z"/>
<path fill="#F4F8FC" opacity="1.000000" stroke="none" 
	d="
M186.170288,427.108856 
	C187.796387,421.815155 189.085007,416.816162 190.977249,412.057190 
	C191.507919,410.722534 193.730820,409.549774 195.331467,409.303497 
	C196.768997,409.082336 199.352768,409.810028 199.825317,410.849243 
	C203.513351,418.959839 206.813522,427.246826 210.318771,435.684692 
	C206.395660,436.299896 203.088379,437.369324 201.678375,432.293030 
	C200.961884,429.713501 191.837006,429.976715 191.508942,432.525574 
	C190.862640,437.547028 187.683487,437.468170 183.320816,437.315186 
	C184.262604,433.940186 185.161942,430.717316 186.170288,427.108856 
M193.258820,423.807739 
	C194.866287,424.670441 196.473740,425.533173 198.081192,426.395874 
	C198.449371,425.888336 198.817566,425.380798 199.185745,424.873260 
	C198.079422,422.038818 196.973083,419.204376 195.539261,415.530853 
	C194.695709,418.671326 194.108185,420.858582 193.258820,423.807739 
z"/>
<path fill="#F2F7FB" opacity="1.000000" stroke="none" 
	d="
M252.997696,425.144409 
	C250.431564,423.856171 247.625671,423.307831 246.073288,421.612000 
	C244.144043,419.504364 241.955505,416.277679 242.275162,413.849792 
	C242.594254,411.426300 245.529190,408.805969 247.965271,407.375000 
	C249.888824,406.245148 252.792450,406.667450 255.265350,406.614899 
	C259.621307,406.522308 260.675659,408.836670 259.511047,412.594269 
	C256.810608,412.371765 254.222000,411.981995 251.643997,412.042664 
	C250.751389,412.063690 249.330460,413.083130 249.161377,413.865051 
	C248.989136,414.661591 249.829483,416.094452 250.634064,416.600098 
	C252.445709,417.738617 254.564697,418.373932 256.458191,419.399445 
	C259.818848,421.219635 261.633728,423.920044 261.119751,427.954132 
	C260.617920,431.893127 258.049530,433.700104 254.561005,434.452972 
	C252.636063,434.868378 250.619461,434.933838 248.638855,435.001678 
	C244.007645,435.160248 241.260468,433.507812 242.523071,428.189789 
	C245.015579,428.760040 247.519943,429.783966 250.019684,429.772827 
	C252.329056,429.762543 255.635635,429.371521 252.997696,425.144409 
z"/>
<path fill="#F1F6FB" opacity="1.000000" stroke="none" 
	d="
M215.073212,416.743011 
	C216.070526,408.550171 222.134460,405.693695 232.687744,408.327301 
	C232.790939,409.950989 232.902237,411.702362 233.005081,413.320312 
	C229.963272,413.178772 227.238312,412.878479 224.538498,413.028992 
	C223.695282,413.075989 222.590134,414.211426 222.243744,415.098206 
	C222.052017,415.588989 223.013443,416.890991 223.749817,417.312836 
	C225.613235,418.380249 227.679962,419.085022 229.598434,420.065735 
	C232.986481,421.797699 235.121643,424.484863 234.696030,428.435028 
	C234.268570,432.402252 231.743576,434.877136 227.858139,435.256195 
	C224.039917,435.628632 220.156967,435.337341 216.103607,435.337341 
	C216.103607,432.688873 216.103607,430.916565 216.103607,428.906952 
	C220.167679,430.290894 224.097992,432.473938 228.023590,428.395935 
	C225.287338,422.731964 216.218613,424.335846 215.073212,416.743011 
z"/>
<path fill="#F3F8FC" opacity="1.000000" stroke="none" 
	d="
M412.181335,425.530151 
	C409.302490,425.878540 406.684967,425.878540 403.727631,425.878540 
	C403.500397,427.829620 403.315125,429.420410 403.063782,431.578491 
	C406.480896,431.821686 409.546692,432.039886 412.858337,432.275574 
	C412.858337,434.047302 412.858337,435.592010 412.858337,436.864105 
	C408.266174,436.864105 403.978790,437.081970 399.741364,436.718109 
	C398.616608,436.621521 396.728271,434.718933 396.749390,433.677185 
	C396.910583,425.729187 397.458038,417.789001 397.925690,409.094818 
	C403.215271,409.423798 408.251099,409.736969 413.651703,410.072876 
	C413.651703,411.625793 413.651703,413.138123 413.651703,414.901062 
	C410.513245,414.901062 407.588043,414.901062 404.299164,414.901062 
	C404.179565,416.679352 404.074371,418.243652 403.937866,420.273804 
	C406.916901,420.602264 409.640320,420.902557 412.758362,421.246338 
	C412.644226,422.668793 412.543427,423.925262 412.181335,425.530151 
z"/>
<path fill="#F2F7FB" opacity="1.000000" stroke="none" 
	d="
M300.054291,416.283661 
	C303.435883,408.516510 307.964386,405.630096 315.633911,406.011383 
	C321.246582,406.290466 321.596802,406.748016 320.677979,412.747803 
	C315.967804,411.577728 310.662933,410.125824 307.953613,415.436005 
	C306.609711,418.070038 306.608704,422.523529 307.954590,425.153870 
	C310.567047,430.259552 315.644104,429.303497 320.270752,427.642792 
	C321.614899,433.279846 321.485291,433.499054 316.549377,434.194153 
	C304.620880,435.873993 298.281311,429.165955 300.054291,416.283661 
z"/>
<path fill="#F1F6FB" opacity="1.000000" stroke="none" 
	d="
M391.170776,412.012573 
	C388.704712,413.209167 386.256073,413.949951 383.315918,414.839447 
	C382.955231,421.345215 382.564484,428.393860 382.150330,435.864319 
	C379.980225,435.758881 378.233490,435.673981 376.330902,435.581543 
	C376.330902,428.194672 376.330902,421.152435 376.330902,413.529785 
	C374.272186,413.344208 371.906555,413.130920 369.242615,412.890747 
	C369.137848,411.381531 369.039185,409.960419 368.937622,408.497650 
	C369.574677,408.261444 370.023132,407.941895 370.460846,407.955994 
	C376.257660,408.143066 382.066589,408.221527 387.837463,408.727081 
	C389.027863,408.831421 390.074982,410.570923 391.170776,412.012573 
z"/>
<path fill="#F8FBFD" opacity="1.000000" stroke="none" 
	d="
M335.178589,426.012451 
	C335.178406,428.807861 335.178406,431.120178 335.178406,433.897614 
	C333.084259,434.014954 331.351135,434.112030 329.212708,434.231842 
	C329.212708,425.149139 329.212708,416.281677 329.212708,407.117249 
	C331.208862,407.117249 333.109039,407.117249 335.178741,407.117249 
	C335.178741,413.314148 335.178741,419.421753 335.178589,426.012451 
z"/>
<path fill="#585858" opacity="1.000000" stroke="none" 
	d="
M347.352722,111.895378 
	C348.744751,109.358055 349.896606,106.914917 351.742249,105.233223 
	C352.309906,104.715988 355.949005,106.021049 356.151123,106.938820 
	C356.781738,109.802498 356.830505,112.957474 356.260071,115.831856 
	C356.066711,116.806213 352.647461,118.289993 351.935699,117.788933 
	C350.056305,116.465919 348.852448,114.183296 347.352722,111.895378 
z"/>
<path fill="#585858" opacity="1.000000" stroke="none" 
	d="
M301.973450,114.932770 
	C301.723450,113.915977 301.269531,113.146645 301.476746,112.657288 
	C302.545044,110.134636 303.481415,107.438812 305.161957,105.370705 
	C305.612854,104.815804 309.863464,105.967430 310.041779,106.821609 
	C310.667358,109.818474 311.069855,113.316582 310.061218,116.078003 
	C308.948792,119.123596 305.273010,118.556030 301.973450,114.932770 
z"/>
<path fill="#575757" opacity="1.000000" stroke="none" 
	d="
M382.960876,146.491669 
	C387.160797,144.236816 390.973663,145.131958 393.824219,148.246201 
	C396.686462,151.373184 396.508362,155.435760 394.673126,159.022064 
	C392.333466,163.593964 387.998016,163.855560 382.872192,163.316498 
	C382.872192,157.780624 382.872192,152.356842 382.960876,146.491669 
z"/>
<path fill="#5C5C5C" opacity="1.000000" stroke="none" 
	d="
M265.987427,149.056122 
	C264.351410,153.743027 264.179596,153.839371 258.192444,153.607742 
	C258.192444,151.072983 258.192444,148.515350 258.192444,145.586700 
	C261.308472,145.115799 264.531342,144.295776 265.987427,149.056122 
z"/>
<path fill="#F9F9F9" opacity="1.000000" stroke="none" 
	d="
M107.833878,346.024048 
	C106.260597,345.345062 104.247429,344.769562 104.123268,343.918518 
	C102.953667,335.901184 102.106430,327.836792 101.171806,319.834229 
	C113.485474,316.825562 119.598167,319.816437 121.384933,329.466766 
	C123.112549,338.797638 118.568810,344.525696 107.833878,346.024048 
z"/>
<path fill="#F3F3F3" opacity="1.000000" stroke="none" 
	d="
M496.187561,327.018921 
	C493.117126,331.993469 488.852600,330.394897 484.272247,329.786377 
	C484.701050,325.893646 485.126251,322.033997 485.545776,318.225586 
	C494.846649,317.739838 497.374756,319.787872 496.187561,327.018921 
z"/>
<path fill="#EEEEEE" opacity="1.000000" stroke="none" 
	d="
M346.147919,256.700439 
	C344.216156,263.150085 339.319397,261.742859 334.551697,261.738403 
	C334.551697,257.767944 334.551697,253.908493 334.551697,250.111984 
	C342.543060,248.365540 345.711609,250.109253 346.147919,256.700439 
z"/>
<path fill="#F0F0F0" opacity="1.000000" stroke="none" 
	d="
M207.805908,314.253967 
	C208.379730,313.873627 209.207047,313.680817 209.263046,313.813507 
	C211.181763,318.360107 213.027451,322.937469 215.087646,328.013000 
	C211.225357,328.284454 207.705597,328.531830 203.558044,328.823303 
	C205.048569,323.702209 206.374176,319.147705 207.805908,314.253967 
z"/>
<path fill="#ECECEC" opacity="1.000000" stroke="none" 
	d="
M231.087341,254.014893 
	C232.809296,258.511261 234.429062,262.652771 236.279572,267.384216 
	C232.253677,267.384216 228.757660,267.384216 224.849686,267.384216 
	C226.265121,262.686768 227.627899,258.100372 229.102310,253.550186 
	C229.151199,253.399292 230.331985,253.615158 231.087341,254.014893 
z"/>
<path fill="#F0F0F0" opacity="1.000000" stroke="none" 
	d="
M146.945709,317.777802 
	C149.520325,322.200317 152.000854,326.941589 154.854858,332.396729 
	C150.380249,332.719421 146.998627,332.963287 142.948471,333.255341 
	C144.338058,327.858582 145.594849,322.977570 146.945709,317.777802 
z"/>
<path fill="#0668B7" opacity="1.000000" stroke="none" 
	d="
M273.757050,418.346619 
	C274.646118,413.800781 276.889252,411.309357 281.362488,411.850769 
	C285.461334,412.346924 286.646393,415.448639 286.951538,418.958374 
	C287.317810,423.170776 286.676025,427.180450 281.959625,428.616608 
	C278.103790,429.790741 275.531158,427.587006 274.244781,424.148560 
	C273.634247,422.516632 273.854675,420.573822 273.757050,418.346619 
z"/>
<path fill="#1E76BE" opacity="1.000000" stroke="none" 
	d="
M351.305603,423.153992 
	C352.229736,419.974945 353.217926,417.188690 354.504364,413.561615 
	C355.583618,417.305298 356.397797,420.129547 357.382935,423.546814 
	C355.087280,423.546814 353.228455,423.546814 351.305603,423.153992 
z"/>
<path fill="#1E76BE" opacity="1.000000" stroke="none" 
	d="
M193.389740,423.426788 
	C194.108185,420.858582 194.695709,418.671326 195.539261,415.530853 
	C196.973083,419.204376 198.079422,422.038818 199.185745,424.873260 
	C198.817566,425.380798 198.449371,425.888336 198.081192,426.395874 
	C196.473740,425.533173 194.866287,424.670441 193.389740,423.426788 
z"/>
</svg>