<svg version="1.1" id="Layer_1" xmlns="http://www.w3.org/2000/svg" xmlns:xlink="http://www.w3.org/1999/xlink" x="0px" y="0px"
	 width="100%" viewBox="0 0 600 600" enable-background="new 0 0 600 600" xml:space="preserve">
<path fill="#FFFFFF" opacity="1.000000" stroke="none" 
	d="
M601.000000,222.000000 
	C601.000000,348.666656 601.000000,474.833344 601.000000,601.000000 
	C401.000000,601.000000 201.000000,601.000000 1.000000,601.000000 
	C1.000000,401.000000 1.000000,201.000000 1.000000,1.000000 
	C201.000000,1.000000 401.000000,1.000000 601.000000,1.000000 
	C601.000000,74.500000 601.000000,148.000000 601.000000,222.000000 
M511.959290,399.014435 
	C515.664001,399.535645 519.358826,400.145172 523.075195,400.562469 
	C537.723450,402.207306 551.583435,401.498108 559.912231,383.530792 
	C562.305054,378.368927 562.958069,372.353760 564.101013,366.667969 
	C567.812683,348.204071 571.452209,329.724976 574.985413,311.226105 
	C578.460632,293.031494 581.229004,274.682312 585.327576,256.632599 
	C588.599670,242.222855 578.292297,227.079697 566.607483,223.257843 
	C556.817871,220.055847 546.345947,218.891190 536.138306,217.031540 
	C527.823730,215.516724 519.453186,214.308517 511.010040,212.036987 
	C511.006805,174.393478 511.108246,136.749542 510.954285,99.106644 
	C510.881805,81.379211 498.912354,63.575932 481.269653,58.047451 
	C461.020813,51.702312 440.611725,45.870724 420.312683,39.683304 
	C388.481720,29.980782 356.711487,20.078144 324.848480,10.482752 
	C319.158569,8.769259 313.188873,7.704877 307.270477,7.087122 
	C294.191559,5.721963 281.822327,8.991607 269.383575,12.878669 
	C235.163788,23.572218 200.762985,33.687191 166.423569,43.996994 
	C152.871140,48.065876 139.309998,52.107929 125.720169,56.049625 
	C104.436638,62.222855 90.892082,79.525841 90.958931,101.538048 
	C91.071716,138.679733 90.928276,175.822174 90.075241,213.022598 
	C87.666275,213.370071 85.251884,213.683807 82.849258,214.070648 
	C70.637581,216.036911 58.464779,218.287842 46.211025,219.939484 
	C26.989548,222.530304 12.786870,239.728561 16.754478,257.454926 
	C21.685686,279.486481 24.945484,301.889069 29.083199,324.102295 
	C32.264961,341.183502 35.721485,358.213287 38.993454,375.277924 
	C41.784111,389.832367 53.793396,402.043549 69.371979,400.978088 
	C76.558769,400.486572 83.727478,399.730774 90.990746,399.996033 
	C91.723030,407.149323 91.764969,414.455261 93.307533,421.429352 
	C99.858322,451.045959 115.404007,475.845947 136.151627,497.419464 
	C145.018158,506.638947 154.898376,514.942749 164.751984,523.140930 
	C183.470581,538.714783 204.082947,551.651001 225.667404,562.682129 
	C246.433151,573.294922 268.013031,582.348755 289.451660,591.585144 
	C294.375702,593.706482 299.643127,596.629822 305.719818,594.042542 
	C318.583374,588.565552 331.892853,584.044067 344.442719,577.944092 
	C362.431458,569.200500 380.138733,559.808838 397.536957,549.937317 
	C417.777527,538.453125 436.546143,524.665405 453.474274,508.725647 
	C463.748993,499.050842 473.314209,488.423981 481.973694,477.273895 
	C499.754974,454.378479 510.491943,428.541138 511.959290,399.014435 
z"/>
<path fill="#515151" opacity="1.000000" stroke="none" 
	d="
M511.107483,212.964355 
	C519.453186,214.308517 527.823730,215.516724 536.138306,217.031540 
	C546.345947,218.891190 556.817871,220.055847 566.607483,223.257843 
	C578.292297,227.079697 588.599670,242.222855 585.327576,256.632599 
	C581.229004,274.682312 578.460632,293.031494 574.985413,311.226105 
	C571.452209,329.724976 567.812683,348.204071 564.101013,366.667969 
	C562.958069,372.353760 562.305054,378.368927 559.912231,383.530792 
	C551.583435,401.498108 537.723450,402.207306 523.075195,400.562469 
	C519.358826,400.145172 515.664001,399.535645 511.294495,398.738312 
	C503.723511,397.342133 496.817322,396.222076 489.511078,395.030334 
	C487.481506,394.641510 485.864990,394.207916 484.220551,394.024963 
	C462.442810,391.602661 440.695435,388.820618 418.871216,386.926392 
	C395.208252,384.872559 371.493317,383.063049 347.763123,382.236725 
	C323.836945,381.403625 299.863190,381.741333 275.912201,381.887360 
	C260.767944,381.979706 245.625610,382.608337 230.485916,383.103394 
	C224.507599,383.298859 218.527222,383.650391 212.567780,384.163239 
	C194.534760,385.715088 176.484970,387.134918 158.492508,389.076752 
	C142.988495,390.750061 127.554123,393.068695 111.662804,395.069702 
	C104.459229,396.389832 97.681808,397.742310 90.904381,399.094788 
	C83.727478,399.730774 76.558769,400.486572 69.371979,400.978088 
	C53.793396,402.043549 41.784111,389.832367 38.993454,375.277924 
	C35.721485,358.213287 32.264961,341.183502 29.083199,324.102295 
	C24.945484,301.889069 21.685686,279.486481 16.754478,257.454926 
	C12.786870,239.728561 26.989548,222.530304 46.211025,219.939484 
	C58.464779,218.287842 70.637581,216.036911 82.849258,214.070648 
	C85.251884,213.683807 87.666275,213.370071 90.936996,213.039001 
	C98.487534,212.312576 105.176315,211.569748 112.104294,210.800354 
	C112.104294,208.081909 112.104294,206.097260 112.104294,204.112610 
	C112.104309,171.116104 112.084915,138.119583 112.112854,105.123093 
	C112.126053,89.532173 118.017502,81.553513 132.947021,76.919113 
	C141.509796,74.261070 150.126389,71.776939 158.707718,69.178024 
	C200.200684,56.611526 241.744049,44.207088 283.147797,31.353001 
	C295.741394,27.443230 307.684021,27.741827 320.196808,31.780369 
	C343.585175,39.329037 367.244171,46.036999 390.771423,53.158089 
	C417.957550,61.386631 445.131500,69.655617 472.292297,77.967377 
	C480.729706,80.549400 486.343842,86.182159 488.599457,94.691193 
	C489.564240,98.330757 489.832306,102.243439 489.842896,106.033623 
	C489.934723,138.863235 489.895721,171.693192 489.895721,204.523056 
	C489.895721,206.473862 489.895721,208.424667 489.895721,210.971375 
	C497.328827,211.669769 504.218170,212.317078 511.107483,212.964355 
M400.411987,373.001648 
	C442.766693,376.139404 484.875275,381.319092 526.747559,388.394592 
	C539.760803,390.593536 548.407288,384.678345 550.864868,371.665314 
	C557.994995,333.910980 565.133423,296.158081 572.368774,258.423798 
	C575.066284,244.355682 569.392456,234.969360 555.254150,232.896225 
	C521.018677,227.876221 486.804504,222.294052 452.381927,219.075333 
	C411.641937,215.265869 370.721771,212.581528 329.824371,211.497635 
	C293.741364,210.541321 257.513885,211.294250 221.475052,213.414551 
	C181.460968,215.768738 141.550781,220.172684 101.670677,224.395447 
	C82.998497,226.372589 64.465813,229.803024 45.940624,232.986313 
	C32.956974,235.217346 26.832424,244.881638 29.469133,257.756622 
	C30.369720,262.154144 31.154453,266.575378 31.998507,270.984528 
	C38.566017,305.291626 45.039719,339.617157 51.760117,373.894257 
	C53.853546,384.571655 62.939415,390.335388 73.613914,388.792419 
	C99.463943,385.055878 125.294861,381.144714 151.207138,377.890381 
	C200.660553,371.679535 250.393570,369.150146 300.185699,369.374359 
	C333.285736,369.523346 366.376526,371.714081 400.411987,373.001648 
M208.229126,122.759819 
	C208.547318,116.100464 208.865494,109.441109 209.253510,101.320297 
	C211.661713,108.038101 213.611542,113.432457 215.525818,118.839401 
	C216.283707,120.980080 216.482971,123.169029 219.878372,123.151642 
	C223.308075,123.134087 223.383698,120.889015 224.122345,118.758530 
	C226.060562,113.168060 228.049698,107.595253 230.018539,102.015404 
	C230.361404,102.113693 230.704254,102.211975 231.047119,102.310265 
	C231.047119,109.083435 231.047119,115.856598 231.047119,122.646347 
	C233.366119,122.646347 235.392319,122.646347 237.483124,122.646347 
	C237.483124,112.348236 237.483124,102.424561 237.483124,92.542732 
	C227.943542,90.954399 227.955597,90.958466 225.029663,99.619865 
	C223.552139,103.993652 222.021805,108.349586 220.410812,113.016434 
	C219.875916,112.422653 219.717987,112.321487 219.668854,112.181999 
	C218.234863,108.111633 216.799042,104.041809 215.389450,99.962952 
	C212.414139,91.353569 212.420044,91.350693 203.393280,92.180008 
	C203.245712,92.193558 203.107925,92.313507 202.713989,92.508064 
	C202.713989,102.468208 202.713989,112.552986 202.713989,122.984436 
	C204.411865,122.984436 205.884720,122.984436 208.229126,122.759819 
M318.259644,110.622551 
	C317.222198,103.313759 313.492615,99.952240 306.460815,99.988152 
	C299.843384,100.021950 295.491119,103.620628 294.716949,109.698608 
	C293.801910,116.882790 297.471893,122.005623 304.214142,122.955452 
	C312.212341,124.082207 317.312592,119.927299 318.259644,110.622551 
M350.000610,122.939377 
	C351.491180,122.942871 353.002747,123.109093 354.468567,122.920364 
	C359.529663,122.268723 363.151917,118.880035 364.019653,114.157234 
	C365.076202,108.406830 363.080872,103.514038 358.781921,101.313835 
	C352.482178,98.089645 344.191956,100.503433 341.605743,106.314880 
	C338.419037,113.475739 341.424683,119.995415 350.000610,122.939377 
M330.936371,122.867287 
	C333.299988,121.070610 337.056488,119.706696 337.773621,117.398468 
	C340.207977,109.563408 331.352417,110.354362 327.018219,105.747375 
	C331.187714,105.747375 334.046936,105.747375 336.615448,105.747375 
	C337.928711,101.324348 336.018738,99.909187 332.550232,100.025040 
	C330.422150,100.096123 327.850098,99.852654 326.295990,100.930618 
	C324.231415,102.362640 321.872955,104.854744 321.690613,107.060814 
	C321.536652,108.923180 324.028656,111.347267 325.862457,112.927444 
	C327.462677,114.306335 329.778534,114.854744 331.778198,115.770073 
	C331.657837,116.430946 331.537506,117.091820 331.417175,117.752693 
	C328.122070,117.545830 324.826965,117.338959 321.529205,117.131927 
	C320.203491,121.151855 322.262848,122.769943 326.110901,122.989372 
	C327.434296,123.064835 328.765686,122.999397 330.936371,122.867287 
M377.625671,99.405144 
	C376.690704,94.783638 380.200653,95.063118 384.323669,94.841606 
	C382.907013,92.723343 382.322144,90.773170 381.115448,90.245789 
	C377.470612,88.652832 371.907349,91.866089 370.935913,95.783707 
	C370.466461,97.676842 371.326721,100.475914 367.783691,100.103035 
	C367.782959,101.703148 367.782196,103.303253 367.781433,104.903366 
	C372.210144,104.797165 370.514099,108.168724 370.620850,110.238922 
	C370.831879,114.330391 370.683167,118.440407 370.683167,122.605759 
	C373.189209,122.605759 375.203369,122.605759 377.550629,122.605759 
	C377.550629,116.611183 377.550629,111.007607 377.550629,105.318878 
	C379.295593,105.072594 380.717438,104.871918 382.045563,104.684456 
	C383.196625,100.935234 381.787506,99.536179 377.625671,99.405144 
M395.198700,97.434769 
	C395.083649,96.070213 394.968597,94.705658 394.853546,93.341103 
	C394.303101,93.037598 393.752655,92.734100 393.202179,92.430595 
	C390.451385,95.425835 387.600525,98.339790 385.041199,101.490540 
	C384.575378,102.063965 385.159363,104.508926 385.497131,104.561615 
	C389.728851,105.221748 387.985535,108.452003 388.264709,110.721901 
	C388.587616,113.347107 388.322784,116.099525 388.994873,118.614540 
	C390.126648,122.849838 393.774445,123.534843 397.357819,122.808113 
	C398.687012,122.538544 399.622223,120.326195 401.190338,118.460663 
	C394.760101,117.313583 394.327240,115.996071 395.642822,105.259636 
	C396.975800,105.113213 398.377686,104.959229 399.816406,104.801201 
	C399.816406,103.096596 399.816406,101.694809 399.816406,100.985283 
	C397.951263,99.892143 396.583679,99.090607 395.198700,97.434769 
M263.093475,114.844711 
	C263.434265,112.182503 262.833923,108.414330 264.345551,107.128052 
	C266.400238,105.379608 270.069366,105.528374 274.226196,104.599968 
	C273.159027,103.183815 272.305908,100.826080 270.800415,100.285652 
	C266.438477,98.719810 260.397980,100.905045 257.843536,104.538780 
	C254.902344,108.722694 254.678406,113.310112 257.086060,117.733162 
	C259.649170,122.441772 264.201599,123.357124 269.111755,122.976501 
	C272.772797,122.692711 274.630615,121.055344 273.661316,118.677658 
	C269.562225,117.427681 266.532257,116.503716 263.093475,114.844711 
M277.800079,116.430847 
	C277.800079,118.523232 277.800079,120.615616 277.800079,122.809875 
	C280.324707,122.809875 282.248199,122.809875 283.806244,122.809875 
	C287.398163,117.277527 279.416382,106.859840 291.803131,105.713577 
	C291.803131,103.845726 291.803131,101.988449 291.803131,99.221436 
	C289.126953,100.449371 287.126678,101.367157 285.126434,102.284950 
	C285.261169,101.922272 285.395935,101.559593 285.530701,101.196915 
	C283.120117,100.691750 280.709534,100.186584 277.800018,99.576866 
	C277.800018,105.555016 277.800018,110.500793 277.800079,116.430847 
M379.970001,148.605194 
	C379.970001,154.336685 379.970001,160.068176 379.970001,165.839828 
	C386.776611,166.249603 393.138367,166.864716 396.943298,160.505585 
	C399.493500,156.243515 399.579559,151.434296 396.791931,147.303802 
	C392.722748,141.274399 386.298615,143.221954 380.195526,143.058884 
	C380.111938,144.753815 380.040985,146.193085 379.970001,148.605194 
M261.229889,142.974106 
	C259.281860,142.974106 257.333801,142.974106 255.394867,142.974106 
	C255.394867,150.941696 255.394867,158.425949 255.394867,165.910202 
	C255.992630,165.993683 256.590393,166.077164 257.188141,166.160645 
	C257.555542,162.937241 257.922913,159.713837 258.295105,156.448227 
	C265.980774,154.833862 264.463257,165.630310 271.733185,166.157059 
	C269.147125,162.069031 267.049408,158.752945 265.796844,156.772888 
	C266.962463,152.954483 268.851990,149.878601 268.372284,147.232147 
	C268.056976,145.492447 264.323486,144.372314 261.229889,142.974106 
M250.610092,122.001877 
	C250.610092,114.759941 250.610092,107.518005 250.610092,100.196747 
	C248.192871,100.196747 246.270264,100.196747 244.275085,100.196747 
	C244.275085,107.916496 244.275085,115.409073 244.275085,123.112640 
	C246.469437,122.974594 248.275879,122.860947 250.610092,122.001877 
M356.983337,150.561508 
	C356.983337,155.645309 356.983337,160.729111 356.983337,165.516357 
	C361.459503,165.516357 365.255951,165.516357 369.052399,165.516357 
	C369.094086,165.034103 369.135773,164.551865 369.177490,164.069611 
	C366.182343,163.729874 363.187195,163.390152 360.094055,163.039307 
	C360.094055,160.534286 360.094055,158.275513 360.094055,156.048233 
	C362.926605,155.581238 365.504669,155.156204 368.082703,154.731171 
	C368.012238,154.193329 367.941772,153.655502 367.871277,153.117661 
	C365.349030,153.117661 362.826752,153.117661 360.237091,153.117661 
	C360.237091,150.181412 360.237091,147.827499 360.237091,145.536804 
	C363.346832,145.220764 366.058868,144.945145 368.770874,144.669525 
	C368.724060,144.238007 368.677216,143.806503 368.630371,143.374985 
	C364.829010,143.374985 361.027649,143.374985 356.983337,143.374985 
	C356.983337,145.627213 356.983337,147.604355 356.983337,150.561508 
M231.983368,160.392242 
	C231.983368,162.161423 231.983368,163.930588 231.983368,165.345642 
	C236.429260,165.345642 240.287262,165.345642 244.145279,165.345642 
	C244.145950,164.848907 244.146637,164.352173 244.147308,163.855423 
	C241.195755,163.634094 238.244202,163.412750 235.215454,163.185623 
	C235.215454,160.535965 235.215454,158.161301 235.215454,155.905624 
	C238.107101,155.531952 240.587189,155.211472 243.067276,154.890976 
	C243.029617,154.372665 242.991974,153.854370 242.954330,153.336060 
	C240.304642,153.109512 237.654968,152.882980 235.181839,152.671524 
	C235.181839,150.061798 235.181839,147.813446 235.181839,145.526382 
	C238.256744,145.228592 241.011856,144.961777 243.766968,144.694962 
	C243.726852,144.278488 243.686722,143.862030 243.646606,143.445557 
	C239.875549,143.445557 236.104492,143.445557 232.336273,143.445557 
	C232.212967,143.848572 232.041168,144.151245 232.039261,144.455002 
	C232.007950,149.442841 231.998047,154.430801 231.983368,160.392242 
M216.009003,163.751831 
	C209.224335,164.057770 205.615158,161.432373 205.554443,155.452316 
	C205.529175,152.962463 206.115906,149.209412 207.749680,148.220596 
	C211.184067,146.141983 215.494781,145.511261 219.838455,144.164474 
	C217.166122,141.672897 213.659210,142.155334 210.286911,143.128235 
	C205.435898,144.527740 202.340424,149.551422 202.454575,155.223373 
	C202.558731,160.399124 205.506546,164.872772 209.879837,165.908539 
	C213.434113,166.750320 217.051361,167.019211 219.850784,164.467743 
	C219.745224,164.016556 219.639648,163.565369 219.534073,163.114197 
	C218.616211,163.269592 217.698334,163.424988 216.009003,163.751831 
M329.960724,154.509506 
	C327.327698,153.782623 324.694672,153.055740 322.218384,152.372131 
	C322.218384,150.083603 322.218384,147.838104 322.218384,145.563522 
	C325.290436,145.259384 328.030792,144.988098 330.771149,144.716797 
	C330.737457,144.292130 330.703766,143.867447 330.670044,143.442780 
	C326.909027,143.442780 323.148010,143.442780 319.345673,143.442780 
	C319.345673,150.947327 319.345673,158.428421 319.345673,165.909500 
	C319.964325,166.002396 320.582977,166.095291 321.201630,166.188171 
	C321.566925,162.861633 321.932220,159.535095 322.294281,156.237976 
	C324.896576,155.930313 327.317627,155.644089 329.960724,154.509506 
M287.028687,153.554764 
	C287.028687,150.818314 287.028687,148.081848 287.028687,145.767258 
	C289.899475,145.203491 291.866943,144.817123 293.834381,144.430756 
	C293.754303,144.140915 293.674225,143.851089 293.594116,143.561249 
	C288.386841,143.561249 283.179596,143.561249 277.972321,143.561249 
	C277.952637,143.952667 277.932953,144.344086 277.913269,144.735504 
	C279.868805,145.018143 281.824371,145.300781 284.138885,145.635300 
	C284.138885,149.466675 283.881958,153.120773 284.216797,156.719849 
	C284.506134,159.829987 282.675110,163.596558 287.028687,167.286774 
	C287.028687,162.098663 287.028687,158.314316 287.028687,153.554764 
M305.394714,143.017838 
	C305.078644,143.076508 304.485992,143.133667 304.485687,143.194046 
	C304.444275,150.773453 304.446503,158.353119 304.446503,166.228149 
	C307.114502,164.233200 307.917389,151.390350 305.394714,143.017838 
M341.958588,146.748413 
	C341.958588,153.130051 341.958588,159.511688 341.958588,165.893341 
	C342.409241,166.036804 342.859894,166.180283 343.310547,166.323761 
	C343.830261,165.453537 344.781281,164.592636 344.800323,163.711594 
	C344.932373,157.606216 344.932861,151.495224 344.794525,145.390137 
	C344.776581,144.597641 343.721069,143.828659 343.146118,143.048782 
	C342.750580,143.968979 342.355011,144.889160 341.958588,146.748413 
M243.339828,93.496109 
	C244.675903,94.667580 245.855972,96.275864 247.411957,96.831551 
	C248.224976,97.121895 250.461914,95.741234 250.685822,94.792099 
	C250.981018,93.540779 250.359680,91.309853 249.373413,90.670090 
	C246.917282,89.076851 244.698105,89.943840 243.339828,93.496109 
z"/>
<path fill="#002050" opacity="1.000000" stroke="none" 
	d="
M511.058777,212.500671 
	C504.218170,212.317078 497.328827,211.669769 489.895721,210.971375 
	C489.895721,208.424667 489.895721,206.473862 489.895721,204.523056 
	C489.895721,171.693192 489.934723,138.863235 489.842896,106.033623 
	C489.832306,102.243439 489.564240,98.330757 488.599457,94.691193 
	C486.343842,86.182159 480.729706,80.549400 472.292297,77.967377 
	C445.131500,69.655617 417.957550,61.386631 390.771423,53.158089 
	C367.244171,46.036999 343.585175,39.329037 320.196808,31.780369 
	C307.684021,27.741827 295.741394,27.443230 283.147797,31.353001 
	C241.744049,44.207088 200.200684,56.611526 158.707718,69.178024 
	C150.126389,71.776939 141.509796,74.261070 132.947021,76.919113 
	C118.017502,81.553513 112.126053,89.532173 112.112854,105.123093 
	C112.084915,138.119583 112.104309,171.116104 112.104294,204.112610 
	C112.104294,206.097260 112.104294,208.081909 112.104294,210.800354 
	C105.176315,211.569748 98.487534,212.312576 91.345673,213.009857 
	C90.928276,175.822174 91.071716,138.679733 90.958931,101.538048 
	C90.892082,79.525841 104.436638,62.222855 125.720169,56.049625 
	C139.309998,52.107929 152.871140,48.065876 166.423569,43.996994 
	C200.762985,33.687191 235.163788,23.572218 269.383575,12.878669 
	C281.822327,8.991607 294.191559,5.721963 307.270477,7.087122 
	C313.188873,7.704877 319.158569,8.769259 324.848480,10.482752 
	C356.711487,20.078144 388.481720,29.980782 420.312683,39.683304 
	C440.611725,45.870724 461.020813,51.702312 481.269653,58.047451 
	C498.912354,63.575932 510.881805,81.379211 510.954285,99.106644 
	C511.108246,136.749542 511.006805,174.393478 511.058777,212.500671 
z"/>
<path fill="#002050" opacity="1.000000" stroke="none" 
	d="
M90.947563,399.545410 
	C97.681808,397.742310 104.459229,396.389832 111.654572,395.512360 
	C112.355103,411.463165 115.638954,426.256012 122.129158,440.326111 
	C133.833908,465.700806 152.306305,485.602112 173.657196,502.942688 
	C210.828522,533.132141 252.894577,554.677063 297.480133,571.544678 
	C299.671082,572.373535 302.755341,572.172791 304.999268,571.326477 
	C331.039124,561.505066 356.087402,549.540771 380.068451,535.425171 
	C410.900574,517.276855 439.717346,496.597809 462.221375,468.243103 
	C479.228455,446.814514 489.752655,422.916565 489.911133,395.102051 
	C496.817322,396.222076 503.723511,397.342133 510.863708,398.777008 
	C510.491943,428.541138 499.754974,454.378479 481.973694,477.273895 
	C473.314209,488.423981 463.748993,499.050842 453.474274,508.725647 
	C436.546143,524.665405 417.777527,538.453125 397.536957,549.937317 
	C380.138733,559.808838 362.431458,569.200500 344.442719,577.944092 
	C331.892853,584.044067 318.583374,588.565552 305.719818,594.042542 
	C299.643127,596.629822 294.375702,593.706482 289.451660,591.585144 
	C268.013031,582.348755 246.433151,573.294922 225.667404,562.682129 
	C204.082947,551.651001 183.470581,538.714783 164.751984,523.140930 
	C154.898376,514.942749 145.018158,506.638947 136.151627,497.419464 
	C115.404007,475.845947 99.858322,451.045959 93.307533,421.429352 
	C91.764969,414.455261 91.723030,407.149323 90.947563,399.545410 
z"/>
<path fill="#FEFEFE" opacity="1.000000" stroke="none" 
	d="
M399.941711,372.996277 
	C366.376526,371.714081 333.285736,369.523346 300.185699,369.374359 
	C250.393570,369.150146 200.660553,371.679535 151.207138,377.890381 
	C125.294861,381.144714 99.463943,385.055878 73.613914,388.792419 
	C62.939415,390.335388 53.853546,384.571655 51.760117,373.894257 
	C45.039719,339.617157 38.566017,305.291626 31.998507,270.984528 
	C31.154453,266.575378 30.369720,262.154144 29.469133,257.756622 
	C26.832424,244.881638 32.956974,235.217346 45.940624,232.986313 
	C64.465813,229.803024 82.998497,226.372589 101.670677,224.395447 
	C141.550781,220.172684 181.460968,215.768738 221.475052,213.414551 
	C257.513885,211.294250 293.741364,210.541321 329.824371,211.497635 
	C370.721771,212.581528 411.641937,215.265869 452.381927,219.075333 
	C486.804504,222.294052 521.018677,227.876221 555.254150,232.896225 
	C569.392456,234.969360 575.066284,244.355682 572.368774,258.423798 
	C565.133423,296.158081 557.994995,333.910980 550.864868,371.665314 
	C548.407288,384.678345 539.760803,390.593536 526.747559,388.394592 
	C484.875275,381.319092 442.766693,376.139404 399.941711,372.996277 
M263.508118,328.893860 
	C263.301544,329.549805 263.094971,330.205719 262.717194,331.405365 
	C257.406006,323.531555 252.305008,316.357086 247.644012,308.907318 
	C245.039413,304.744354 242.077347,302.641449 237.528305,304.313141 
	C237.528305,316.843353 237.528305,329.217773 237.528305,341.921082 
	C239.975281,341.789154 241.718552,341.695129 243.441788,341.602234 
	C243.441788,332.030304 243.441788,322.853363 243.441788,312.911285 
	C249.111023,321.216522 254.624054,328.837036 259.609894,336.788177 
	C262.125336,340.799683 264.997437,342.222717 269.120544,340.814270 
	C269.120544,328.342133 269.120544,315.974365 269.120544,303.411774 
	C266.636627,303.544220 264.874695,303.638153 263.446686,303.714264 
	C263.446686,312.068420 263.446686,320.036163 263.508118,328.893860 
M336.817993,303.206421 
	C336.453156,303.492554 335.770416,303.777313 335.769165,304.065033 
	C335.715942,316.313599 335.723419,328.562439 335.723419,340.860840 
	C337.054230,340.860840 338.774353,340.860840 341.124908,340.860840 
	C341.124908,331.503845 341.124908,322.467072 341.124908,313.430298 
	C347.150421,321.140106 352.283447,329.007965 356.917480,337.159485 
	C359.233154,341.232910 361.883087,343.036835 366.951660,341.161743 
	C366.951660,328.951416 366.951660,316.582306 366.951660,304.143494 
	C365.280029,304.143494 363.640839,304.143494 361.072479,304.143494 
	C361.072479,313.371490 361.072479,322.462189 361.072479,331.552887 
	C355.363342,323.912018 350.476440,316.365814 346.105530,308.531647 
	C344.110565,304.955963 341.798615,302.879791 336.817993,303.206421 
M299.303619,308.014496 
	C302.022614,308.616669 304.741608,309.218872 307.648895,309.862762 
	C307.648895,308.040039 307.648895,306.256378 307.648895,304.546021 
	C299.459747,301.122345 290.171387,302.040771 284.340668,306.759888 
	C276.591217,313.031921 274.715027,325.672546 280.312714,333.897919 
	C285.493561,341.510773 299.194092,344.174286 307.393402,339.097656 
	C308.137115,338.637207 309.074005,337.711548 309.092651,336.980804 
	C309.234619,331.415894 309.170441,325.845703 309.170441,320.003510 
	C303.889038,320.245300 299.600281,320.441650 294.950104,320.654572 
	C295.066498,322.522827 295.163422,324.078735 295.261810,325.658142 
	C297.967224,325.810272 300.238098,325.937988 302.736969,326.078522 
	C302.736969,329.123932 302.736969,331.881989 302.736969,334.580353 
	C294.773560,337.542572 288.623718,336.035797 285.669037,330.166992 
	C280.225372,319.354340 286.824188,306.787903 299.303619,308.014496 
M459.621368,339.841553 
	C457.535187,336.347595 455.449036,332.853638 453.360138,329.355103 
	C459.494354,326.731567 461.827606,323.507996 461.457092,318.211182 
	C461.133240,313.580719 458.078705,310.032074 452.893127,309.181793 
	C448.005676,308.380432 443.018158,308.189697 437.657837,307.691589 
	C436.647919,320.383148 435.675262,332.606873 434.667816,345.267639 
	C436.927277,345.483917 438.789734,345.662201 440.767670,345.851532 
	C441.270447,340.513702 441.720306,335.737518 442.162720,331.040222 
	C446.496307,330.208344 449.062134,332.201813 450.777771,335.679749 
	C451.953156,338.062500 453.065826,340.476318 454.249451,342.854889 
	C456.719788,347.819336 457.131561,347.991486 463.137543,346.674988 
	C462.065155,344.585907 461.016022,342.542145 459.621368,339.841553 
M317.849701,246.835602 
	C318.295715,241.350281 314.562592,243.496887 311.507812,243.303802 
	C311.507812,246.401428 311.556396,249.205582 311.497711,252.007492 
	C311.375793,257.824280 311.654938,263.698486 310.919983,269.440369 
	C310.094269,275.891113 301.831970,278.830292 297.701721,274.076782 
	C295.663025,271.730438 294.843140,267.794586 294.629730,264.502869 
	C294.179840,257.565125 294.492920,250.577911 294.492920,243.520798 
	C292.182098,243.520798 290.320282,243.520798 288.186646,243.520798 
	C288.186646,252.022797 287.965881,260.167023 288.264404,268.292175 
	C288.462921,273.695740 290.451172,278.440704 296.051880,280.595428 
	C307.728149,285.087524 317.479675,278.694427 317.819489,266.247711 
	C317.987518,260.092010 317.849365,253.927933 317.849701,246.835602 
M343.118439,271.383057 
	C344.441620,273.683960 346.069519,275.866119 347.022552,278.311279 
	C348.826599,282.939972 352.100555,282.961731 356.734802,282.036133 
	C352.817108,276.021423 349.247681,270.541351 345.652435,265.021698 
	C346.555817,264.469421 348.396667,263.990570 348.985535,262.859772 
	C350.587311,259.783600 352.941528,256.271790 352.563171,253.236038 
	C352.218658,250.471619 349.091919,246.588425 346.464569,245.874771 
	C340.743561,244.320770 334.559601,244.471298 328.157318,243.888062 
	C328.157318,257.200317 328.157318,269.424164 328.157318,281.919373 
	C330.042023,281.919373 331.791290,281.919373 334.143066,281.919373 
	C334.143066,276.988220 334.143066,272.096375 334.143066,267.392792 
	C338.324738,266.308685 340.873749,267.733398 343.118439,271.383057 
M219.982697,263.344971 
	C217.872192,269.745331 215.761688,276.145691 213.654694,282.535400 
	C222.873917,285.186523 220.842560,276.914459 223.839539,272.828949 
	C226.626480,272.828949 229.872437,273.320221 232.896378,272.710449 
	C237.125671,271.857635 239.279037,273.347595 239.968323,277.302338 
	C240.834686,282.273254 243.887619,282.801178 248.165298,281.452179 
	C247.939026,280.533264 247.820312,279.546967 247.458710,278.659637 
	C243.262405,268.362122 238.950638,258.110718 234.861313,247.771179 
	C233.835098,245.176498 232.389786,244.423843 229.677719,244.422623 
	C226.659241,244.421280 225.754013,245.974548 224.997955,248.416245 
	C223.523605,253.177795 221.815735,257.867035 219.982697,263.344971 
M138.321884,347.828247 
	C141.204987,347.862244 143.072098,346.826752 143.206284,343.588928 
	C143.422989,338.359833 146.377197,336.423035 151.371536,337.001007 
	C152.348724,337.114105 153.416977,337.093475 154.350357,336.818878 
	C158.336716,335.646271 160.741577,337.137482 161.655823,341.065491 
	C162.872269,346.291931 166.149734,346.044281 170.309891,344.611969 
	C165.064789,333.313568 160.073883,322.265564 154.712616,311.400299 
	C154.061890,310.081543 151.432785,309.196564 149.687943,309.141327 
	C148.419357,309.101135 146.290100,310.512451 145.924133,311.701294 
	C142.500809,322.821747 139.341385,334.024475 136.246155,345.242218 
	C136.053040,345.942108 137.039536,346.967499 138.321884,347.828247 
M265.958740,258.414124 
	C261.381531,266.149384 254.691605,272.674011 251.676926,281.500244 
	C261.972656,281.500244 271.384552,281.500244 281.270691,281.500244 
	C281.080261,279.414948 280.940552,277.885010 280.779022,276.116119 
	C274.137573,276.116119 267.973022,276.116119 261.123932,276.116119 
	C268.223785,265.330963 274.934387,255.137115 282.124603,244.214691 
	C271.375214,244.214691 262.310669,244.214691 253.157440,244.214691 
	C253.157440,246.086227 253.157440,247.545700 253.157440,249.426178 
	C259.304840,249.426178 265.302185,249.426178 271.939514,249.426178 
	C269.799591,252.608124 268.057068,255.199127 265.958740,258.414124 
M218.529388,310.935547 
	C221.584686,310.732513 224.639984,310.529510 228.013504,310.305328 
	C227.607147,308.187439 227.336288,306.775787 227.012466,305.088013 
	C220.267548,305.456879 213.748230,305.813416 207.103851,306.176819 
	C207.648575,319.093079 208.164413,331.324493 208.692215,343.839539 
	C215.986511,343.505920 222.740479,343.196991 229.849548,342.871857 
	C229.758682,341.044739 229.683075,339.524719 229.603989,337.934509 
	C224.491302,337.934509 219.884354,337.934509 214.911301,337.934509 
	C214.662033,334.346466 214.425110,330.936218 214.172607,327.301697 
	C218.614426,326.987885 222.812378,326.691345 227.302032,326.374176 
	C227.077438,324.273315 226.926880,322.864990 226.779358,321.485046 
	C222.401993,321.485046 218.359604,321.485046 214.084625,321.485046 
	C214.084625,317.962402 214.084625,314.705200 214.084625,311.003021 
	C215.328568,311.003021 216.454041,311.003021 218.529388,310.935547 
M423.446198,328.832367 
	C424.566528,328.832367 425.686859,328.832367 427.054047,328.832367 
	C426.968201,326.877289 426.900116,325.326569 426.828339,323.691711 
	C422.386108,323.334412 418.340973,323.009064 414.098419,322.667847 
	C414.454956,318.895111 414.762573,315.640350 415.089905,312.176544 
	C419.901825,312.461273 424.310333,312.722107 428.848022,312.990601 
	C428.848022,310.976532 428.848022,309.417053 428.848022,307.593414 
	C422.145264,307.236298 415.726654,306.894318 408.898926,306.530548 
	C408.158569,319.272217 407.442047,331.603577 406.705536,344.279297 
	C414.141449,344.690582 420.879883,345.063263 427.726288,345.441956 
	C427.726288,343.440887 427.726288,341.898834 427.726288,340.263245 
	C422.704468,339.930542 417.986603,339.617950 413.117035,339.295349 
	C413.514801,335.091034 413.837799,331.676758 414.178558,328.074768 
	C417.259186,328.346436 419.902985,328.579590 423.446198,328.832367 
M390.188354,326.189209 
	C392.634003,326.189209 395.079620,326.189209 397.574768,326.189209 
	C397.574768,324.449402 397.574768,323.027191 397.574768,321.269592 
	C393.277863,321.059601 389.202881,320.860504 385.385681,320.673950 
	C385.385681,316.839966 385.385681,313.569946 385.385681,310.200134 
	C390.182434,310.200134 394.605164,310.200134 399.431641,310.200134 
	C399.351715,308.387787 399.283997,306.852386 399.199646,304.940186 
	C392.300446,304.940186 385.883545,304.940186 378.638733,304.940186 
	C378.638733,317.425140 378.638733,329.668091 378.638733,342.165100 
	C385.081940,342.472870 391.842560,342.795776 398.724304,343.124481 
	C398.724304,341.046967 398.724304,339.493805 398.724304,337.948822 
	C393.830597,337.612366 389.216675,337.295166 384.537476,336.973480 
	C384.537476,333.241608 384.537476,329.827423 384.537476,326.184875 
	C386.349182,326.184875 387.818024,326.184875 390.188354,326.189209 
M377.277069,266.188416 
	C381.258881,266.833130 382.038879,264.739624 381.608185,261.162933 
	C377.302185,260.962585 373.219269,260.772644 369.153229,260.583466 
	C369.153229,256.877289 369.153229,253.617981 369.153229,250.113190 
	C373.883728,250.113190 378.301178,250.113190 382.900940,250.113190 
	C382.900940,248.322327 382.900940,246.793106 382.900940,244.876892 
	C376.201141,244.876892 369.780396,244.876892 362.583313,244.876892 
	C362.583313,257.238403 362.583313,269.617371 362.583313,282.448853 
	C369.198181,282.448853 375.974396,282.448853 383.025177,282.448853 
	C382.941345,280.941467 382.854401,279.377808 382.763824,277.748383 
	C377.688934,277.430969 372.963440,277.135406 368.064911,276.829010 
	C368.251099,272.910278 368.407990,269.608612 368.570648,266.185455 
	C371.384644,266.185455 373.866455,266.185455 377.277069,266.188416 
M181.009293,326.421631 
	C180.557800,319.866821 180.106293,313.312012 179.635239,306.473358 
	C177.270157,306.697601 175.362701,306.878479 173.265717,307.077301 
	C174.072693,319.790497 174.855896,332.128876 175.651947,344.669922 
	C178.017624,344.489929 179.928513,344.344543 182.107742,344.178772 
	C181.722427,338.257141 181.368240,332.813629 181.009293,326.421631 
M325.426575,309.585327 
	C325.426575,307.519409 325.426575,305.453491 325.426575,303.469788 
	C322.824432,303.469788 321.078644,303.469788 319.167450,303.469788 
	C319.167450,316.123138 319.167450,328.486420 319.167450,341.047028 
	C321.271973,340.950287 323.018707,340.869995 325.425995,340.759338 
	C325.425995,330.472412 325.425995,320.522156 325.426575,309.585327 
z"/>
<path fill="#0164B5" opacity="1.000000" stroke="none" 
	d="
M489.511078,395.030334 
	C489.752655,422.916565 479.228455,446.814514 462.221375,468.243103 
	C439.717346,496.597809 410.900574,517.276855 380.068451,535.425171 
	C356.087402,549.540771 331.039124,561.505066 304.999268,571.326477 
	C302.755341,572.172791 299.671082,572.373535 297.480133,571.544678 
	C252.894577,554.677063 210.828522,533.132141 173.657196,502.942688 
	C152.306305,485.602112 133.833908,465.700806 122.129158,440.326111 
	C115.638954,426.256012 112.355103,411.463165 112.080727,395.544678 
	C127.554123,393.068695 142.988495,390.750061 158.492508,389.076752 
	C176.484970,387.134918 194.534760,385.715088 212.567780,384.163239 
	C218.527222,383.650391 224.507599,383.298859 230.485916,383.103394 
	C245.625610,382.608337 260.767944,381.979706 275.912201,381.887360 
	C299.863190,381.741333 323.836945,381.403625 347.763123,382.236725 
	C371.493317,383.063049 395.208252,384.872559 418.871216,386.926392 
	C440.695435,388.820618 462.442810,391.602661 484.220551,394.024963 
	C485.864990,394.207916 487.481506,394.641510 489.511078,395.030334 
M321.198669,523.895508 
	C328.414490,519.005310 335.630341,514.115051 342.945984,509.157166 
	C350.193451,514.362488 357.343109,519.497559 365.491821,525.350220 
	C362.363831,515.604187 359.644531,507.131622 356.927490,498.666077 
	C364.397247,493.221375 371.531555,488.021179 378.665863,482.820984 
	C378.524628,482.510986 378.383392,482.200989 378.242126,481.890991 
	C369.306580,481.890991 360.371002,481.890991 351.480865,481.890991 
	C348.597717,473.223602 345.828247,464.897827 342.692780,455.471832 
	C339.511047,465.161346 336.771118,473.505493 333.936951,482.136536 
	C324.835938,482.136536 315.945618,482.136536 305.912140,482.136536 
	C312.984802,487.298859 319.031219,491.904602 325.294586,496.193512 
	C327.979614,498.032043 328.441650,499.710327 327.320251,502.792908 
	C324.884064,509.489655 322.974030,516.377808 321.198669,523.895508 
M252.518829,476.033020 
	C251.807556,478.008728 251.096283,479.984436 250.254562,482.322510 
	C241.169922,482.322510 232.353683,482.322510 222.628891,482.322510 
	C230.705383,488.206757 237.922546,493.464905 245.077377,498.677643 
	C242.247971,507.528351 239.571213,515.901489 236.549667,525.353210 
	C244.863846,519.373596 252.108902,514.162842 259.286377,509.000732 
	C266.615234,514.283936 273.553040,519.285217 280.490845,524.286560 
	C279.147034,516.539368 277.067993,509.419098 274.559753,502.453369 
	C273.508698,499.534454 274.093872,497.998413 276.572571,496.288483 
	C282.899292,491.923828 289.026001,487.269257 296.240906,481.993500 
	C287.026245,481.993500 279.216827,481.897644 271.412109,482.047882 
	C268.838501,482.097412 267.623138,481.358276 266.854248,478.763580 
	C264.649719,471.324097 262.092316,463.989136 259.253021,455.330353 
	C256.857697,462.742676 254.831284,469.013397 252.518829,476.033020 
M269.167908,429.093353 
	C274.525146,434.935944 281.848724,436.218811 287.854065,432.366699 
	C293.414032,428.800262 295.606812,420.432831 292.748627,413.689056 
	C290.323914,407.967926 284.035858,404.897003 277.521851,406.252625 
	C267.985504,408.237213 264.050690,418.227478 269.167908,429.093353 
M346.053741,419.532501 
	C344.191711,424.380524 342.329681,429.228546 340.372314,434.324829 
	C344.559448,434.825165 347.839294,435.326843 348.826965,430.593536 
	C348.990662,429.808990 350.670441,428.911621 351.711395,428.827118 
	C353.994904,428.641815 356.317963,428.943878 358.706146,429.050568 
	C359.381317,431.075836 359.995667,432.918671 360.616302,434.780396 
	C362.884918,434.780396 364.940460,434.780396 367.439331,434.780396 
	C364.849518,426.625702 362.270020,418.915985 359.993103,411.117950 
	C359.157471,408.256073 357.736023,407.220673 354.778290,407.029022 
	C351.570648,406.821198 350.361877,408.239868 349.510773,410.961304 
	C348.670715,413.647278 347.416626,416.203796 346.053741,419.532501 
M188.710266,419.078735 
	C186.909500,425.044037 185.108734,431.009338 183.182465,437.390442 
	C187.132919,437.170135 190.893021,438.287354 191.418503,432.873444 
	C191.496277,432.072174 194.207230,430.998901 195.704666,430.991394 
	C197.756943,430.981079 201.308319,431.421356 201.616241,432.448364 
	C203.151108,437.567657 206.498093,436.195496 210.318375,435.686157 
	C207.028046,427.749695 203.774796,420.158386 200.755905,412.475006 
	C199.768341,409.961517 198.541061,408.806763 195.670715,409.051025 
	C192.872055,409.289154 190.909607,409.903473 190.421616,413.052673 
	C190.145111,414.837128 189.432709,416.553986 188.710266,419.078735 
M248.537048,422.968353 
	C249.305374,423.284729 250.250061,423.418488 250.805725,423.955078 
	C251.999802,425.108246 252.993454,426.468994 254.069153,427.744751 
	C252.351776,428.460907 250.633179,429.751038 248.917313,429.747375 
	C246.787460,429.742828 244.659897,428.667664 242.711334,428.106720 
	C241.006546,433.950745 244.357391,435.006470 248.753464,435.006439 
	C250.413239,435.006409 252.127289,435.090485 253.721909,434.724152 
	C257.445953,433.868500 260.637299,432.345581 261.139679,427.837067 
	C261.620300,423.523987 259.447357,420.920227 255.920044,419.096558 
	C254.594086,418.411072 253.012817,418.104218 251.869690,417.212341 
	C250.713699,416.310364 249.955963,414.897949 249.023773,413.709137 
	C250.435883,413.087555 251.821899,412.035400 253.266373,411.947845 
	C255.305923,411.824219 257.388702,412.414001 259.437408,412.696655 
	C261.042755,408.013397 258.670593,406.720490 254.646317,406.457520 
	C248.419250,406.050629 243.183365,408.366943 242.147552,412.462738 
	C240.861053,417.549866 243.345993,420.729980 248.537048,422.968353 
M219.046371,435.687195 
	C221.853882,435.609314 224.692810,435.766907 227.461472,435.397644 
	C231.485275,434.860962 234.318069,432.592987 234.702499,428.357819 
	C235.080688,424.191406 232.736771,421.498535 229.077393,419.838074 
	C227.415085,419.083801 225.643127,418.512329 224.110214,417.554901 
	C223.248352,417.016571 222.772308,415.860626 222.122452,414.982910 
	C223.109451,414.259705 224.066513,412.978394 225.089371,412.923553 
	C227.613525,412.788208 230.167877,413.215393 232.708206,413.431061 
	C233.994629,408.691284 231.817307,407.015503 227.352692,407.408600 
	C225.370209,407.583130 222.929642,407.173645 221.516678,408.180054 
	C219.029343,409.951752 216.257294,412.275848 215.278793,414.975494 
	C214.023468,418.438904 216.596329,421.261963 219.815338,422.920898 
	C221.581818,423.831299 223.590744,424.304901 225.273926,425.330627 
	C226.287338,425.948181 226.884750,427.248383 227.669113,428.241791 
	C226.527420,429.059540 225.384842,430.559875 224.244202,430.558411 
	C221.551453,430.554932 218.859634,429.836517 214.804977,429.190033 
	C216.191269,431.714661 217.205032,433.560822 219.046371,435.687195 
M414.006653,411.607971 
	C413.696014,411.093689 413.421387,410.158661 413.069336,410.128540 
	C408.169464,409.709412 403.258972,409.414124 398.122620,409.073425 
	C397.764496,413.412628 397.343811,417.181641 397.168640,420.962036 
	C396.939392,425.909332 394.967529,432.457520 397.349030,435.354828 
	C399.576447,438.064667 406.507385,436.919495 411.372467,437.430878 
	C411.805573,437.476379 412.269867,437.225708 412.931610,437.059326 
	C412.931610,435.540314 412.931610,434.097656 412.931610,432.340118 
	C409.778259,432.083313 406.695923,431.832275 403.124786,431.541443 
	C403.346527,429.507751 403.531647,427.809723 403.735077,425.943756 
	C406.832977,425.943756 409.443054,425.943756 412.276154,425.943756 
	C412.457642,424.343048 412.616608,422.941101 412.810181,421.233826 
	C409.762451,420.925110 407.019348,420.647278 404.265778,420.368378 
	C404.265778,418.413422 404.265778,416.832947 404.265778,415.107941 
	C406.651154,415.107941 408.834900,415.402435 410.878052,414.993896 
	C412.042358,414.761078 412.977203,413.380676 414.006653,411.607971 
M313.564270,434.580444 
	C321.638733,433.511261 321.638733,433.511261 320.315704,427.714661 
	C315.702240,429.164093 311.014252,430.138153 307.785492,425.266754 
	C305.575806,421.932800 305.718903,418.177032 308.038269,414.973267 
	C311.388794,410.345093 316.118713,411.604736 320.705902,412.768799 
	C322.155273,408.421112 321.080292,406.236237 316.173706,406.001709 
	C306.916534,405.559143 300.791626,410.141937 299.708771,418.814301 
	C298.590210,427.773071 302.920990,433.001587 313.564270,434.580444 
M376.778137,435.475464 
	C378.385040,435.616302 379.991974,435.757111 382.130127,435.944458 
	C382.550079,428.484436 382.946320,421.445160 383.358734,414.118896 
	C386.004730,413.999146 388.397858,413.890839 390.956543,413.775024 
	C390.956543,412.067993 390.956543,410.648621 390.956543,408.577271 
	C383.559052,408.577271 376.384308,408.577271 368.965759,408.577271 
	C369.046295,409.932312 369.130707,411.353027 369.222748,412.901794 
	C371.885254,413.119659 374.255066,413.313599 376.106110,413.465057 
	C376.106110,421.019287 376.106110,427.957184 376.778137,435.475464 
M332.447205,434.174561 
	C333.288666,433.656189 334.853668,433.151031 334.863403,432.617462 
	C335.017334,424.181213 334.971558,415.741364 334.971558,407.073059 
	C333.168457,407.073059 331.272186,407.073059 328.829407,407.073059 
	C328.829407,415.438416 328.750885,423.562012 328.945679,431.679016 
	C328.966156,432.530670 330.599579,433.343658 332.447205,434.174561 
z"/>
<path fill="#F7F7F7" opacity="1.000000" stroke="none" 
	d="
M207.793350,122.872131 
	C205.884720,122.984436 204.411865,122.984436 202.713989,122.984436 
	C202.713989,112.552986 202.713989,102.468208 202.713989,92.508064 
	C203.107925,92.313507 203.245712,92.193558 203.393280,92.180008 
	C212.420044,91.350693 212.414139,91.353569 215.389450,99.962952 
	C216.799042,104.041809 218.234863,108.111633 219.668854,112.181999 
	C219.717987,112.321487 219.875916,112.422653 220.410812,113.016434 
	C222.021805,108.349586 223.552139,103.993652 225.029663,99.619865 
	C227.955597,90.958466 227.943542,90.954399 237.483124,92.542732 
	C237.483124,102.424561 237.483124,112.348236 237.483124,122.646347 
	C235.392319,122.646347 233.366119,122.646347 231.047119,122.646347 
	C231.047119,115.856598 231.047119,109.083435 231.047119,102.310265 
	C230.704254,102.211975 230.361404,102.113693 230.018539,102.015404 
	C228.049698,107.595253 226.060562,113.168060 224.122345,118.758530 
	C223.383698,120.889015 223.308075,123.134087 219.878372,123.151642 
	C216.482971,123.169029 216.283707,120.980080 215.525818,118.839401 
	C213.611542,113.432457 211.661713,108.038101 209.253510,101.320297 
	C208.865494,109.441109 208.547318,116.100464 207.793350,122.872131 
z"/>
<path fill="#FAFAFA" opacity="1.000000" stroke="none" 
	d="
M318.279846,111.051468 
	C317.312592,119.927299 312.212341,124.082207 304.214142,122.955452 
	C297.471893,122.005623 293.801910,116.882790 294.716949,109.698608 
	C295.491119,103.620628 299.843384,100.021950 306.460815,99.988152 
	C313.492615,99.952240 317.222198,103.313759 318.279846,111.051468 
M311.501251,112.249542 
	C311.050171,106.351082 308.202148,103.245834 304.936584,105.516876 
	C303.010040,106.856712 301.750305,110.319122 301.733948,112.836975 
	C301.722870,114.544334 304.109619,117.248123 305.924988,117.772842 
	C309.233215,118.729027 310.916534,116.197319 311.501251,112.249542 
z"/>
<path fill="#FAFAFA" opacity="1.000000" stroke="none" 
	d="
M349.596710,122.855804 
	C341.424683,119.995415 338.419037,113.475739 341.605743,106.314880 
	C344.191956,100.503433 352.482178,98.089645 358.781921,101.313835 
	C363.080872,103.514038 365.076202,108.406830 364.019653,114.157234 
	C363.151917,118.880035 359.529663,122.268723 354.468567,122.920364 
	C353.002747,123.109093 351.491180,122.942871 349.596710,122.855804 
M357.193726,113.748993 
	C357.900513,107.386284 355.356842,103.511482 351.391907,105.331314 
	C349.520569,106.190193 347.684357,109.214485 347.612335,111.318581 
	C347.539886,113.433144 349.162750,116.482452 350.974792,117.572006 
	C353.468109,119.071213 356.031036,117.590775 357.193726,113.748993 
z"/>
<path fill="#F8F8F8" opacity="1.000000" stroke="none" 
	d="
M330.514893,122.932800 
	C328.765686,122.999397 327.434296,123.064835 326.110901,122.989372 
	C322.262848,122.769943 320.203491,121.151855 321.529205,117.131927 
	C324.826965,117.338959 328.122070,117.545830 331.417175,117.752693 
	C331.537506,117.091820 331.657837,116.430946 331.778198,115.770073 
	C329.778534,114.854744 327.462677,114.306335 325.862457,112.927444 
	C324.028656,111.347267 321.536652,108.923180 321.690613,107.060814 
	C321.872955,104.854744 324.231415,102.362640 326.295990,100.930618 
	C327.850098,99.852654 330.422150,100.096123 332.550232,100.025040 
	C336.018738,99.909187 337.928711,101.324348 336.615448,105.747375 
	C334.046936,105.747375 331.187714,105.747375 327.018219,105.747375 
	C331.352417,110.354362 340.207977,109.563408 337.773621,117.398468 
	C337.056488,119.706696 333.299988,121.070610 330.514893,122.932800 
z"/>
<path fill="#FEFEFE" opacity="1.000000" stroke="none" 
	d="
M377.961670,99.641518 
	C381.787506,99.536179 383.196625,100.935234 382.045563,104.684456 
	C380.717438,104.871918 379.295593,105.072594 377.550629,105.318878 
	C377.550629,111.007607 377.550629,116.611183 377.550629,122.605759 
	C375.203369,122.605759 373.189209,122.605759 370.683167,122.605759 
	C370.683167,118.440407 370.831879,114.330391 370.620850,110.238922 
	C370.514099,108.168724 372.210144,104.797165 367.781433,104.903366 
	C367.782196,103.303253 367.782959,101.703148 367.783691,100.103035 
	C371.326721,100.475914 370.466461,97.676842 370.935913,95.783707 
	C371.907349,91.866089 377.470612,88.652832 381.115448,90.245789 
	C382.322144,90.773170 382.907013,92.723343 384.323669,94.841606 
	C380.200653,95.063118 376.690704,94.783638 377.961670,99.641518 
z"/>
<path fill="#F9F9F9" opacity="1.000000" stroke="none" 
	d="
M395.207397,97.861923 
	C396.583679,99.090607 397.951263,99.892143 399.816406,100.985283 
	C399.816406,101.694809 399.816406,103.096596 399.816406,104.801201 
	C398.377686,104.959229 396.975800,105.113213 395.642822,105.259636 
	C394.327240,115.996071 394.760101,117.313583 401.190338,118.460663 
	C399.622223,120.326195 398.687012,122.538544 397.357819,122.808113 
	C393.774445,123.534843 390.126648,122.849838 388.994873,118.614540 
	C388.322784,116.099525 388.587616,113.347107 388.264709,110.721901 
	C387.985535,108.452003 389.728851,105.221748 385.497131,104.561615 
	C385.159363,104.508926 384.575378,102.063965 385.041199,101.490540 
	C387.600525,98.339790 390.451385,95.425835 393.202179,92.430595 
	C393.752655,92.734100 394.303101,93.037598 394.853546,93.341103 
	C394.968597,94.705658 395.083649,96.070213 395.207397,97.861923 
z"/>
<path fill="#FAFAFA" opacity="1.000000" stroke="none" 
	d="
M263.297882,115.212234 
	C266.532257,116.503716 269.562225,117.427681 273.661316,118.677658 
	C274.630615,121.055344 272.772797,122.692711 269.111755,122.976501 
	C264.201599,123.357124 259.649170,122.441772 257.086060,117.733162 
	C254.678406,113.310112 254.902344,108.722694 257.843536,104.538780 
	C260.397980,100.905045 266.438477,98.719810 270.800415,100.285652 
	C272.305908,100.826080 273.159027,103.183815 274.226196,104.599968 
	C270.069366,105.528374 266.400238,105.379608 264.345551,107.128052 
	C262.833923,108.414330 263.434265,112.182503 263.297882,115.212234 
z"/>
<path fill="#F8F8F8" opacity="1.000000" stroke="none" 
	d="
M277.800049,115.938705 
	C277.800018,110.500793 277.800018,105.555016 277.800018,99.576866 
	C280.709534,100.186584 283.120117,100.691750 285.530701,101.196915 
	C285.395935,101.559593 285.261169,101.922272 285.126434,102.284950 
	C287.126678,101.367157 289.126953,100.449371 291.803131,99.221436 
	C291.803131,101.988449 291.803131,103.845726 291.803131,105.713577 
	C279.416382,106.859840 287.398163,117.277527 283.806244,122.809875 
	C282.248199,122.809875 280.324707,122.809875 277.800079,122.809875 
	C277.800079,120.615616 277.800079,118.523232 277.800049,115.938705 
z"/>
<path fill="#F3F3F3" opacity="1.000000" stroke="none" 
	d="
M379.970001,148.118774 
	C380.040985,146.193085 380.111938,144.753815 380.195526,143.058884 
	C386.298615,143.221954 392.722748,141.274399 396.791931,147.303802 
	C399.579559,151.434296 399.493500,156.243515 396.943298,160.505585 
	C393.138367,166.864716 386.776611,166.249603 379.970001,165.839828 
	C379.970001,160.068176 379.970001,154.336685 379.970001,148.118774 
M395.427490,151.325470 
	C393.074280,146.005295 390.424469,144.758224 383.212677,145.681381 
	C383.212677,151.534409 383.212677,157.405518 383.212677,163.239883 
	C392.690399,164.031387 395.872314,161.086914 395.427490,151.325470 
z"/>
<path fill="#F5F5F5" opacity="1.000000" stroke="none" 
	d="
M261.675293,142.974426 
	C264.323486,144.372314 268.056976,145.492447 268.372284,147.232147 
	C268.851990,149.878601 266.962463,152.954483 265.796844,156.772888 
	C267.049408,158.752945 269.147125,162.069031 271.733185,166.157059 
	C264.463257,165.630310 265.980774,154.833862 258.295105,156.448227 
	C257.922913,159.713837 257.555542,162.937241 257.188141,166.160645 
	C256.590393,166.077164 255.992630,165.993683 255.394867,165.910202 
	C255.394867,158.425949 255.394867,150.941696 255.394867,142.974106 
	C257.333801,142.974106 259.281860,142.974106 261.675293,142.974426 
M257.819244,149.506042 
	C257.932037,150.905624 258.044861,152.305206 258.153198,153.649567 
	C263.817810,153.778214 265.630646,152.843735 265.967682,149.866806 
	C266.345337,146.530991 264.172516,145.676971 261.498566,145.221085 
	C258.730377,144.749115 257.431702,145.740082 257.819244,149.506042 
z"/>
<path fill="#F5F5F5" opacity="1.000000" stroke="none" 
	d="
M250.346207,122.374588 
	C248.275879,122.860947 246.469437,122.974594 244.275085,123.112640 
	C244.275085,115.409073 244.275085,107.916496 244.275085,100.196747 
	C246.270264,100.196747 248.192871,100.196747 250.610092,100.196747 
	C250.610092,107.518005 250.610092,114.759941 250.346207,122.374588 
z"/>
<path fill="#F8F8F8" opacity="1.000000" stroke="none" 
	d="
M356.983337,150.071503 
	C356.983337,147.604355 356.983337,145.627213 356.983337,143.374985 
	C361.027649,143.374985 364.829010,143.374985 368.630371,143.374985 
	C368.677216,143.806503 368.724060,144.238007 368.770874,144.669525 
	C366.058868,144.945145 363.346832,145.220764 360.237091,145.536804 
	C360.237091,147.827499 360.237091,150.181412 360.237091,153.117661 
	C362.826752,153.117661 365.349030,153.117661 367.871277,153.117661 
	C367.941772,153.655502 368.012238,154.193329 368.082703,154.731171 
	C365.504669,155.156204 362.926605,155.581238 360.094055,156.048233 
	C360.094055,158.275513 360.094055,160.534286 360.094055,163.039307 
	C363.187195,163.390152 366.182343,163.729874 369.177490,164.069611 
	C369.135773,164.551865 369.094086,165.034103 369.052399,165.516357 
	C365.255951,165.516357 361.459503,165.516357 356.983337,165.516357 
	C356.983337,160.729111 356.983337,155.645309 356.983337,150.071503 
z"/>
<path fill="#F8F8F8" opacity="1.000000" stroke="none" 
	d="
M231.983368,159.905487 
	C231.998047,154.430801 232.007950,149.442841 232.039261,144.455002 
	C232.041168,144.151245 232.212967,143.848572 232.336273,143.445557 
	C236.104492,143.445557 239.875549,143.445557 243.646606,143.445557 
	C243.686722,143.862030 243.726852,144.278488 243.766968,144.694962 
	C241.011856,144.961777 238.256744,145.228592 235.181839,145.526382 
	C235.181839,147.813446 235.181839,150.061798 235.181839,152.671524 
	C237.654968,152.882980 240.304642,153.109512 242.954330,153.336060 
	C242.991974,153.854370 243.029617,154.372665 243.067276,154.890976 
	C240.587189,155.211472 238.107101,155.531952 235.215454,155.905624 
	C235.215454,158.161301 235.215454,160.535965 235.215454,163.185623 
	C238.244202,163.412750 241.195755,163.634094 244.147308,163.855423 
	C244.146637,164.352173 244.145950,164.848907 244.145279,165.345642 
	C240.287262,165.345642 236.429260,165.345642 231.983368,165.345642 
	C231.983368,163.930588 231.983368,162.161423 231.983368,159.905487 
z"/>
<path fill="#F3F3F3" opacity="1.000000" stroke="none" 
	d="
M216.394745,163.666107 
	C217.698334,163.424988 218.616211,163.269592 219.534073,163.114197 
	C219.639648,163.565369 219.745224,164.016556 219.850784,164.467743 
	C217.051361,167.019211 213.434113,166.750320 209.879837,165.908539 
	C205.506546,164.872772 202.558731,160.399124 202.454575,155.223373 
	C202.340424,149.551422 205.435898,144.527740 210.286911,143.128235 
	C213.659210,142.155334 217.166122,141.672897 219.838455,144.164474 
	C215.494781,145.511261 211.184067,146.141983 207.749680,148.220596 
	C206.115906,149.209412 205.529175,152.962463 205.554443,155.452316 
	C205.615158,161.432373 209.224335,164.057770 216.394745,163.666107 
z"/>
<path fill="#EFEFEF" opacity="1.000000" stroke="none" 
	d="
M329.849701,154.933685 
	C327.317627,155.644089 324.896576,155.930313 322.294281,156.237976 
	C321.932220,159.535095 321.566925,162.861633 321.201630,166.188171 
	C320.582977,166.095291 319.964325,166.002396 319.345673,165.909500 
	C319.345673,158.428421 319.345673,150.947327 319.345673,143.442780 
	C323.148010,143.442780 326.909027,143.442780 330.670044,143.442780 
	C330.703766,143.867447 330.737457,144.292130 330.771149,144.716797 
	C328.030792,144.988098 325.290436,145.259384 322.218384,145.563522 
	C322.218384,147.838104 322.218384,150.083603 322.218384,152.372131 
	C324.694672,153.055740 327.327698,153.782623 329.849701,154.933685 
z"/>
<path fill="#F4F4F4" opacity="1.000000" stroke="none" 
	d="
M287.028687,154.042358 
	C287.028687,158.314316 287.028687,162.098663 287.028687,167.286774 
	C282.675110,163.596558 284.506134,159.829987 284.216797,156.719849 
	C283.881958,153.120773 284.138885,149.466675 284.138885,145.635300 
	C281.824371,145.300781 279.868805,145.018143 277.913269,144.735504 
	C277.932953,144.344086 277.952637,143.952667 277.972321,143.561249 
	C283.179596,143.561249 288.386841,143.561249 293.594116,143.561249 
	C293.674225,143.851089 293.754303,144.140915 293.834381,144.430756 
	C291.866943,144.817123 289.899475,145.203491 287.028687,145.767258 
	C287.028687,148.081848 287.028687,150.818314 287.028687,154.042358 
z"/>
<path fill="#EFEFEF" opacity="1.000000" stroke="none" 
	d="
M305.838470,143.125763 
	C307.917389,151.390350 307.114502,164.233200 304.446503,166.228149 
	C304.446503,158.353119 304.444275,150.773453 304.485687,143.194046 
	C304.485992,143.133667 305.078644,143.076508 305.838470,143.125763 
z"/>
<path fill="#EFEFEF" opacity="1.000000" stroke="none" 
	d="
M341.959015,146.278870 
	C342.355011,144.889160 342.750580,143.968979 343.146118,143.048767 
	C343.721069,143.828659 344.776581,144.597641 344.794525,145.390137 
	C344.932861,151.495224 344.932373,157.606216 344.800323,163.711594 
	C344.781281,164.592636 343.830261,165.453537 343.310547,166.323761 
	C342.859894,166.180283 342.409241,166.036804 341.958588,165.893341 
	C341.958588,159.511688 341.958588,153.130051 341.959015,146.278870 
z"/>
<path fill="#F5F5F5" opacity="1.000000" stroke="none" 
	d="
M243.405884,93.127342 
	C244.698105,89.943840 246.917282,89.076851 249.373413,90.670090 
	C250.359680,91.309853 250.981018,93.540779 250.685822,94.792099 
	C250.461914,95.741234 248.224976,97.121895 247.411957,96.831551 
	C245.855972,96.275864 244.675903,94.667580 243.405884,93.127342 
z"/>
<path fill="#2F2F2F" opacity="1.000000" stroke="none" 
	d="
M263.477417,328.448883 
	C263.446686,320.036163 263.446686,312.068420 263.446686,303.714264 
	C264.874695,303.638153 266.636627,303.544220 269.120544,303.411774 
	C269.120544,315.974365 269.120544,328.342133 269.120544,340.814270 
	C264.997437,342.222717 262.125336,340.799683 259.609894,336.788177 
	C254.624054,328.837036 249.111023,321.216522 243.441788,312.911285 
	C243.441788,322.853363 243.441788,332.030304 243.441788,341.602234 
	C241.718552,341.695129 239.975281,341.789154 237.528305,341.921082 
	C237.528305,329.217773 237.528305,316.843353 237.528305,304.313141 
	C242.077347,302.641449 245.039413,304.744354 247.644012,308.907318 
	C252.305008,316.357086 257.406006,323.531555 262.717194,331.405365 
	C263.094971,330.205719 263.301544,329.549805 263.477417,328.448883 
z"/>
<path fill="#2E2E2E" opacity="1.000000" stroke="none" 
	d="
M337.235107,303.196777 
	C341.798615,302.879791 344.110565,304.955963 346.105530,308.531647 
	C350.476440,316.365814 355.363342,323.912018 361.072479,331.552887 
	C361.072479,322.462189 361.072479,313.371490 361.072479,304.143494 
	C363.640839,304.143494 365.280029,304.143494 366.951660,304.143494 
	C366.951660,316.582306 366.951660,328.951416 366.951660,341.161743 
	C361.883087,343.036835 359.233154,341.232910 356.917480,337.159485 
	C352.283447,329.007965 347.150421,321.140106 341.124908,313.430298 
	C341.124908,322.467072 341.124908,331.503845 341.124908,340.860840 
	C338.774353,340.860840 337.054230,340.860840 335.723419,340.860840 
	C335.723419,328.562439 335.715942,316.313599 335.769165,304.065033 
	C335.770416,303.777313 336.453156,303.492554 337.235107,303.196777 
z"/>
<path fill="#2F2F2F" opacity="1.000000" stroke="none" 
	d="
M298.874146,308.014069 
	C286.824188,306.787903 280.225372,319.354340 285.669037,330.166992 
	C288.623718,336.035797 294.773560,337.542572 302.736969,334.580353 
	C302.736969,331.881989 302.736969,329.123932 302.736969,326.078522 
	C300.238098,325.937988 297.967224,325.810272 295.261810,325.658142 
	C295.163422,324.078735 295.066498,322.522827 294.950104,320.654572 
	C299.600281,320.441650 303.889038,320.245300 309.170441,320.003510 
	C309.170441,325.845703 309.234619,331.415894 309.092651,336.980804 
	C309.074005,337.711548 308.137115,338.637207 307.393402,339.097656 
	C299.194092,344.174286 285.493561,341.510773 280.312714,333.897919 
	C274.715027,325.672546 276.591217,313.031921 284.340668,306.759888 
	C290.171387,302.040771 299.459747,301.122345 307.648895,304.546021 
	C307.648895,306.256378 307.648895,308.040039 307.648895,309.862762 
	C304.741608,309.218872 302.022614,308.616669 298.874146,308.014069 
z"/>
<path fill="#2F2F2F" opacity="1.000000" stroke="none" 
	d="
M459.794128,340.169983 
	C461.016022,342.542145 462.065155,344.585907 463.137543,346.674988 
	C457.131561,347.991486 456.719788,347.819336 454.249451,342.854889 
	C453.065826,340.476318 451.953156,338.062500 450.777771,335.679749 
	C449.062134,332.201813 446.496307,330.208344 442.162720,331.040222 
	C441.720306,335.737518 441.270447,340.513702 440.767670,345.851532 
	C438.789734,345.662201 436.927277,345.483917 434.667816,345.267639 
	C435.675262,332.606873 436.647919,320.383148 437.657837,307.691589 
	C443.018158,308.189697 448.005676,308.380432 452.893127,309.181793 
	C458.078705,310.032074 461.133240,313.580719 461.457092,318.211182 
	C461.827606,323.507996 459.494354,326.731567 453.360138,329.355103 
	C455.449036,332.853638 457.535187,336.347595 459.794128,340.169983 
M445.510925,325.837982 
	C451.655426,326.106415 454.859924,324.012115 454.962585,319.660919 
	C455.068756,315.160919 451.754059,313.366058 443.441864,313.717285 
	C443.236176,316.416504 442.809357,319.198151 442.908264,321.960968 
	C442.954742,323.259613 444.012909,324.522034 445.510925,325.837982 
z"/>
<path fill="#333333" opacity="1.000000" stroke="none" 
	d="
M317.849731,247.301636 
	C317.849365,253.927933 317.987518,260.092010 317.819489,266.247711 
	C317.479675,278.694427 307.728149,285.087524 296.051880,280.595428 
	C290.451172,278.440704 288.462921,273.695740 288.264404,268.292175 
	C287.965881,260.167023 288.186646,252.022797 288.186646,243.520798 
	C290.320282,243.520798 292.182098,243.520798 294.492920,243.520798 
	C294.492920,250.577911 294.179840,257.565125 294.629730,264.502869 
	C294.843140,267.794586 295.663025,271.730438 297.701721,274.076782 
	C301.831970,278.830292 310.094269,275.891113 310.919983,269.440369 
	C311.654938,263.698486 311.375793,257.824280 311.497711,252.007492 
	C311.556396,249.205582 311.507812,246.401428 311.507812,243.303802 
	C314.562592,243.496887 318.295715,241.350281 317.849731,247.301636 
z"/>
<path fill="#2E2E2E" opacity="1.000000" stroke="none" 
	d="
M342.919617,271.064972 
	C340.873749,267.733398 338.324738,266.308685 334.143066,267.392792 
	C334.143066,272.096375 334.143066,276.988220 334.143066,281.919373 
	C331.791290,281.919373 330.042023,281.919373 328.157318,281.919373 
	C328.157318,269.424164 328.157318,257.200317 328.157318,243.888062 
	C334.559601,244.471298 340.743561,244.320770 346.464569,245.874771 
	C349.091919,246.588425 352.218658,250.471619 352.563171,253.236038 
	C352.941528,256.271790 350.587311,259.783600 348.985535,262.859772 
	C348.396667,263.990570 346.555817,264.469421 345.652435,265.021698 
	C349.247681,270.541351 352.817108,276.021423 356.734802,282.036133 
	C352.100555,282.961731 348.826599,282.939972 347.022552,278.311279 
	C346.069519,275.866119 344.441620,273.683960 342.919617,271.064972 
M336.653503,261.849579 
	C340.936768,261.963989 345.333130,262.118317 346.157684,256.391052 
	C346.956146,250.845245 342.780365,248.498169 333.840607,250.154648 
	C334.477905,253.994675 335.127472,257.908630 336.653503,261.849579 
z"/>
<path fill="#303030" opacity="1.000000" stroke="none" 
	d="
M220.093628,262.965576 
	C221.815735,257.867035 223.523605,253.177795 224.997955,248.416245 
	C225.754013,245.974548 226.659241,244.421280 229.677719,244.422623 
	C232.389786,244.423843 233.835098,245.176498 234.861313,247.771179 
	C238.950638,258.110718 243.262405,268.362122 247.458710,278.659637 
	C247.820312,279.546967 247.939026,280.533264 248.165298,281.452179 
	C243.887619,282.801178 240.834686,282.273254 239.968323,277.302338 
	C239.279037,273.347595 237.125671,271.857635 232.896378,272.710449 
	C229.872437,273.320221 226.626480,272.828949 223.839539,272.828949 
	C220.842560,276.914459 222.873917,285.186523 213.654694,282.535400 
	C215.761688,276.145691 217.872192,269.745331 220.093628,262.965576 
M228.073563,256.615845 
	C227.008652,260.218140 225.943741,263.820435 224.853821,267.507385 
	C228.782806,267.507385 232.202164,267.507385 236.302216,267.507385 
	C234.179001,262.029724 232.263657,257.088348 229.947815,251.113724 
	C229.112030,253.486237 228.692963,254.675858 228.073563,256.615845 
z"/>
<path fill="#2F2F2F" opacity="1.000000" stroke="none" 
	d="
M137.899551,347.834839 
	C137.039536,346.967499 136.053040,345.942108 136.246155,345.242218 
	C139.341385,334.024475 142.500809,322.821747 145.924133,311.701294 
	C146.290100,310.512451 148.419357,309.101135 149.687943,309.141327 
	C151.432785,309.196564 154.061890,310.081543 154.712616,311.400299 
	C160.073883,322.265564 165.064789,333.313568 170.309891,344.611969 
	C166.149734,346.044281 162.872269,346.291931 161.655823,341.065491 
	C160.741577,337.137482 158.336716,335.646271 154.350357,336.818878 
	C153.416977,337.093475 152.348724,337.114105 151.371536,337.001007 
	C146.377197,336.423035 143.422989,338.359833 143.206284,343.588928 
	C143.072098,346.826752 141.204987,347.862244 137.899551,347.834839 
M152.498734,320.138733 
	C151.855591,318.741241 151.212448,317.343719 150.282471,315.322906 
	C148.788147,321.245148 147.470612,326.466736 146.003906,332.279510 
	C150.004761,331.971771 153.485779,331.703979 157.424316,331.401001 
	C155.692856,327.401947 154.261993,324.097137 152.498734,320.138733 
z"/>
<path fill="#2F2F2F" opacity="1.000000" stroke="none" 
	d="
M266.136658,258.102112 
	C268.057068,255.199127 269.799591,252.608124 271.939514,249.426178 
	C265.302185,249.426178 259.304840,249.426178 253.157440,249.426178 
	C253.157440,247.545700 253.157440,246.086227 253.157440,244.214691 
	C262.310669,244.214691 271.375214,244.214691 282.124603,244.214691 
	C274.934387,255.137115 268.223785,265.330963 261.123932,276.116119 
	C267.973022,276.116119 274.137573,276.116119 280.779022,276.116119 
	C280.940552,277.885010 281.080261,279.414948 281.270691,281.500244 
	C271.384552,281.500244 261.972656,281.500244 251.676926,281.500244 
	C254.691605,272.674011 261.381531,266.149384 266.136658,258.102112 
z"/>
<path fill="#303030" opacity="1.000000" stroke="none" 
	d="
M218.054443,310.969299 
	C216.454041,311.003021 215.328568,311.003021 214.084625,311.003021 
	C214.084625,314.705200 214.084625,317.962402 214.084625,321.485046 
	C218.359604,321.485046 222.401993,321.485046 226.779358,321.485046 
	C226.926880,322.864990 227.077438,324.273315 227.302032,326.374176 
	C222.812378,326.691345 218.614426,326.987885 214.172607,327.301697 
	C214.425110,330.936218 214.662033,334.346466 214.911301,337.934509 
	C219.884354,337.934509 224.491302,337.934509 229.603989,337.934509 
	C229.683075,339.524719 229.758682,341.044739 229.849548,342.871857 
	C222.740479,343.196991 215.986511,343.505920 208.692215,343.839539 
	C208.164413,331.324493 207.648575,319.093079 207.103851,306.176819 
	C213.748230,305.813416 220.267548,305.456879 227.012466,305.088013 
	C227.336288,306.775787 227.607147,308.187439 228.013504,310.305328 
	C224.639984,310.529510 221.584686,310.732513 218.054443,310.969299 
z"/>
<path fill="#2E2E2E" opacity="1.000000" stroke="none" 
	d="
M422.996490,328.822540 
	C419.902985,328.579590 417.259186,328.346436 414.178558,328.074768 
	C413.837799,331.676758 413.514801,335.091034 413.117035,339.295349 
	C417.986603,339.617950 422.704468,339.930542 427.726288,340.263245 
	C427.726288,341.898834 427.726288,343.440887 427.726288,345.441956 
	C420.879883,345.063263 414.141449,344.690582 406.705536,344.279297 
	C407.442047,331.603577 408.158569,319.272217 408.898926,306.530548 
	C415.726654,306.894318 422.145264,307.236298 428.848022,307.593414 
	C428.848022,309.417053 428.848022,310.976532 428.848022,312.990601 
	C424.310333,312.722107 419.901825,312.461273 415.089905,312.176544 
	C414.762573,315.640350 414.454956,318.895111 414.098419,322.667847 
	C418.340973,323.009064 422.386108,323.334412 426.828339,323.691711 
	C426.900116,325.326569 426.968201,326.877289 427.054047,328.832367 
	C425.686859,328.832367 424.566528,328.832367 422.996490,328.822540 
z"/>
<path fill="#2D2D2D" opacity="1.000000" stroke="none" 
	d="
M389.737610,326.187042 
	C387.818024,326.184875 386.349182,326.184875 384.537476,326.184875 
	C384.537476,329.827423 384.537476,333.241608 384.537476,336.973480 
	C389.216675,337.295166 393.830597,337.612366 398.724304,337.948822 
	C398.724304,339.493805 398.724304,341.046967 398.724304,343.124481 
	C391.842560,342.795776 385.081940,342.472870 378.638733,342.165100 
	C378.638733,329.668091 378.638733,317.425140 378.638733,304.940186 
	C385.883545,304.940186 392.300446,304.940186 399.199646,304.940186 
	C399.283997,306.852386 399.351715,308.387787 399.431641,310.200134 
	C394.605164,310.200134 390.182434,310.200134 385.385681,310.200134 
	C385.385681,313.569946 385.385681,316.839966 385.385681,320.673950 
	C389.202881,320.860504 393.277863,321.059601 397.574768,321.269592 
	C397.574768,323.027191 397.574768,324.449402 397.574768,326.189209 
	C395.079620,326.189209 392.634003,326.189209 389.737610,326.187042 
z"/>
<path fill="#2C2C2C" opacity="1.000000" stroke="none" 
	d="
M376.812653,266.186951 
	C373.866455,266.185455 371.384644,266.185455 368.570648,266.185455 
	C368.407990,269.608612 368.251099,272.910278 368.064911,276.829010 
	C372.963440,277.135406 377.688934,277.430969 382.763824,277.748383 
	C382.854401,279.377808 382.941345,280.941467 383.025177,282.448853 
	C375.974396,282.448853 369.198181,282.448853 362.583313,282.448853 
	C362.583313,269.617371 362.583313,257.238403 362.583313,244.876892 
	C369.780396,244.876892 376.201141,244.876892 382.900940,244.876892 
	C382.900940,246.793106 382.900940,248.322327 382.900940,250.113190 
	C378.301178,250.113190 373.883728,250.113190 369.153229,250.113190 
	C369.153229,253.617981 369.153229,256.877289 369.153229,260.583466 
	C373.219269,260.772644 377.302185,260.962585 381.608185,261.162933 
	C382.038879,264.739624 381.258881,266.833130 376.812653,266.186951 
z"/>
<path fill="#2E2E2E" opacity="1.000000" stroke="none" 
	d="
M181.011658,326.895874 
	C181.368240,332.813629 181.722427,338.257141 182.107742,344.178772 
	C179.928513,344.344543 178.017624,344.489929 175.651947,344.669922 
	C174.855896,332.128876 174.072693,319.790497 173.265717,307.077301 
	C175.362701,306.878479 177.270157,306.697601 179.635239,306.473358 
	C180.106293,313.312012 180.557800,319.866821 181.011658,326.895874 
z"/>
<path fill="#2A2A2A" opacity="1.000000" stroke="none" 
	d="
M325.426270,310.078613 
	C325.425995,320.522156 325.425995,330.472412 325.425995,340.759338 
	C323.018707,340.869995 321.271973,340.950287 319.167450,341.047028 
	C319.167450,328.486420 319.167450,316.123138 319.167450,303.469788 
	C321.078644,303.469788 322.824432,303.469788 325.426575,303.469788 
	C325.426575,305.453491 325.426575,307.519409 325.426270,310.078613 
z"/>
<path fill="#FBFDFE" opacity="1.000000" stroke="none" 
	d="
M321.023773,523.541626 
	C322.974030,516.377808 324.884064,509.489655 327.320251,502.792908 
	C328.441650,499.710327 327.979614,498.032043 325.294586,496.193512 
	C319.031219,491.904602 312.984802,487.298859 305.912140,482.136536 
	C315.945618,482.136536 324.835938,482.136536 333.936951,482.136536 
	C336.771118,473.505493 339.511047,465.161346 342.692780,455.471832 
	C345.828247,464.897827 348.597717,473.223602 351.480865,481.890991 
	C360.371002,481.890991 369.306580,481.890991 378.242126,481.890991 
	C378.383392,482.200989 378.524628,482.510986 378.665863,482.820984 
	C371.531555,488.021179 364.397247,493.221375 356.927490,498.666077 
	C359.644531,507.131622 362.363831,515.604187 365.491821,525.350220 
	C357.343109,519.497559 350.193451,514.362488 342.945984,509.157166 
	C335.630341,514.115051 328.414490,519.005310 321.023773,523.541626 
z"/>
<path fill="#FBFDFE" opacity="1.000000" stroke="none" 
	d="
M252.661850,475.658569 
	C254.831284,469.013397 256.857697,462.742676 259.253021,455.330353 
	C262.092316,463.989136 264.649719,471.324097 266.854248,478.763580 
	C267.623138,481.358276 268.838501,482.097412 271.412109,482.047882 
	C279.216827,481.897644 287.026245,481.993500 296.240906,481.993500 
	C289.026001,487.269257 282.899292,491.923828 276.572571,496.288483 
	C274.093872,497.998413 273.508698,499.534454 274.559753,502.453369 
	C277.067993,509.419098 279.147034,516.539368 280.490845,524.286560 
	C273.553040,519.285217 266.615234,514.283936 259.286377,509.000732 
	C252.108902,514.162842 244.863846,519.373596 236.549667,525.353210 
	C239.571213,515.901489 242.247971,507.528351 245.077377,498.677643 
	C237.922546,493.464905 230.705383,488.206757 222.628891,482.322510 
	C232.353683,482.322510 241.169922,482.322510 250.254562,482.322510 
	C251.096283,479.984436 251.807556,478.008728 252.661850,475.658569 
z"/>
<path fill="#F3F8FC" opacity="1.000000" stroke="none" 
	d="
M268.980530,428.753845 
	C264.050690,418.227478 267.985504,408.237213 277.521851,406.252625 
	C284.035858,404.897003 290.323914,407.967926 292.748627,413.689056 
	C295.606812,420.432831 293.414032,428.800262 287.854065,432.366699 
	C281.848724,436.218811 274.525146,434.935944 268.980530,428.753845 
M284.899506,413.553162 
	C282.172302,413.318054 278.920410,412.034668 276.833649,413.079132 
	C273.165192,414.915283 273.224792,419.055634 273.903534,422.805725 
	C274.574158,426.510864 276.757385,428.983063 280.610321,428.847473 
	C284.482788,428.711182 286.701508,425.977966 286.838379,422.322144 
	C286.939087,419.631439 285.932129,416.899261 284.899506,413.553162 
z"/>
<path fill="#F3F8FC" opacity="1.000000" stroke="none" 
	d="
M346.198944,419.174805 
	C347.416626,416.203796 348.670715,413.647278 349.510773,410.961304 
	C350.361877,408.239868 351.570648,406.821198 354.778290,407.029022 
	C357.736023,407.220673 359.157471,408.256073 359.993103,411.117950 
	C362.270020,418.915985 364.849518,426.625702 367.439331,434.780396 
	C364.940460,434.780396 362.884918,434.780396 360.616302,434.780396 
	C359.995667,432.918671 359.381317,431.075836 358.706146,429.050568 
	C356.317963,428.943878 353.994904,428.641815 351.711395,428.827118 
	C350.670441,428.911621 348.990662,429.808990 348.826965,430.593536 
	C347.839294,435.326843 344.559448,434.825165 340.372314,434.324829 
	C342.329681,429.228546 344.191711,424.380524 346.198944,419.174805 
M354.546722,423.881500 
	C355.313507,423.035004 356.819397,422.076233 356.710999,421.362701 
	C356.360291,419.054291 355.416626,416.835938 354.430115,413.728271 
	C353.076416,417.503754 352.030701,420.420288 350.885376,423.614655 
	C352.138031,423.732819 352.933899,423.807892 354.546722,423.881500 
z"/>
<path fill="#F3F8FC" opacity="1.000000" stroke="none" 
	d="
M188.813446,418.690002 
	C189.432709,416.553986 190.145111,414.837128 190.421616,413.052673 
	C190.909607,409.903473 192.872055,409.289154 195.670715,409.051025 
	C198.541061,408.806763 199.768341,409.961517 200.755905,412.475006 
	C203.774796,420.158386 207.028046,427.749695 210.318375,435.686157 
	C206.498093,436.195496 203.151108,437.567657 201.616241,432.448364 
	C201.308319,431.421356 197.756943,430.981079 195.704666,430.991394 
	C194.207230,430.998901 191.496277,432.072174 191.418503,432.873444 
	C190.893021,438.287354 187.132919,437.170135 183.182465,437.390442 
	C185.108734,431.009338 186.909500,425.044037 188.813446,418.690002 
M196.629333,418.146881 
	C196.300446,417.589783 195.971542,417.032654 195.386734,416.042084 
	C194.490417,419.446381 193.715088,422.391205 192.786118,425.919586 
	C195.130081,425.771912 196.969696,425.656006 199.289337,425.509857 
	C198.334122,422.821686 197.624359,420.824249 196.629333,418.146881 
z"/>
<path fill="#F2F7FB" opacity="1.000000" stroke="none" 
	d="
M248.183655,422.840271 
	C243.345993,420.729980 240.861053,417.549866 242.147552,412.462738 
	C243.183365,408.366943 248.419250,406.050629 254.646317,406.457520 
	C258.670593,406.720490 261.042755,408.013397 259.437408,412.696655 
	C257.388702,412.414001 255.305923,411.824219 253.266373,411.947845 
	C251.821899,412.035400 250.435883,413.087555 249.023773,413.709137 
	C249.955963,414.897949 250.713699,416.310364 251.869690,417.212341 
	C253.012817,418.104218 254.594086,418.411072 255.920044,419.096558 
	C259.447357,420.920227 261.620300,423.523987 261.139679,427.837067 
	C260.637299,432.345581 257.445953,433.868500 253.721909,434.724152 
	C252.127289,435.090485 250.413239,435.006409 248.753464,435.006439 
	C244.357391,435.006470 241.006546,433.950745 242.711334,428.106720 
	C244.659897,428.667664 246.787460,429.742828 248.917313,429.747375 
	C250.633179,429.751038 252.351776,428.460907 254.069153,427.744751 
	C252.993454,426.468994 251.999802,425.108246 250.805725,423.955078 
	C250.250061,423.418488 249.305374,423.284729 248.183655,422.840271 
z"/>
<path fill="#F1F6FB" opacity="1.000000" stroke="none" 
	d="
M218.632584,435.547119 
	C217.205032,433.560822 216.191269,431.714661 214.804977,429.190033 
	C218.859634,429.836517 221.551453,430.554932 224.244202,430.558411 
	C225.384842,430.559875 226.527420,429.059540 227.669113,428.241791 
	C226.884750,427.248383 226.287338,425.948181 225.273926,425.330627 
	C223.590744,424.304901 221.581818,423.831299 219.815338,422.920898 
	C216.596329,421.261963 214.023468,418.438904 215.278793,414.975494 
	C216.257294,412.275848 219.029343,409.951752 221.516678,408.180054 
	C222.929642,407.173645 225.370209,407.583130 227.352692,407.408600 
	C231.817307,407.015503 233.994629,408.691284 232.709137,413.423767 
	C230.167877,413.215393 227.613525,412.788208 225.089371,412.923553 
	C224.066513,412.978394 223.109451,414.259705 222.122452,414.982910 
	C222.772308,415.860626 223.248352,417.016571 224.110214,417.554901 
	C225.643127,418.512329 227.415085,419.083801 229.077393,419.838074 
	C232.736771,421.498535 235.080688,424.191406 234.702499,428.357819 
	C234.318069,432.592987 231.485275,434.860962 227.461472,435.397644 
	C224.692810,435.766907 221.853882,435.609314 218.632584,435.547119 
z"/>
<path fill="#F3F8FC" opacity="1.000000" stroke="none" 
	d="
M414.011017,412.062500 
	C412.977203,413.380676 412.042358,414.761078 410.878052,414.993896 
	C408.834900,415.402435 406.651154,415.107941 404.265778,415.107941 
	C404.265778,416.832947 404.265778,418.413422 404.265778,420.368378 
	C407.019348,420.647278 409.762451,420.925110 412.810181,421.233826 
	C412.616608,422.941101 412.457642,424.343048 412.276154,425.943756 
	C409.443054,425.943756 406.832977,425.943756 403.735077,425.943756 
	C403.531647,427.809723 403.346527,429.507751 403.124786,431.541443 
	C406.695923,431.832275 409.778259,432.083313 412.931610,432.340118 
	C412.931610,434.097656 412.931610,435.540314 412.931610,437.059326 
	C412.269867,437.225708 411.805573,437.476379 411.372467,437.430878 
	C406.507385,436.919495 399.576447,438.064667 397.349030,435.354828 
	C394.967529,432.457520 396.939392,425.909332 397.168640,420.962036 
	C397.343811,417.181641 397.764496,413.412628 398.122620,409.073425 
	C403.258972,409.414124 408.169464,409.709412 413.069336,410.128540 
	C413.421387,410.158661 413.696014,411.093689 414.011017,412.062500 
z"/>
<path fill="#F2F7FB" opacity="1.000000" stroke="none" 
	d="
M313.156494,434.568817 
	C302.920990,433.001587 298.590210,427.773071 299.708771,418.814301 
	C300.791626,410.141937 306.916534,405.559143 316.173706,406.001709 
	C321.080292,406.236237 322.155273,408.421112 320.705902,412.768799 
	C316.118713,411.604736 311.388794,410.345093 308.038269,414.973267 
	C305.718903,418.177032 305.575806,421.932800 307.785492,425.266754 
	C311.014252,430.138153 315.702240,429.164093 320.315704,427.714661 
	C321.638733,433.511261 321.638733,433.511261 313.156494,434.568817 
z"/>
<path fill="#F1F6FB" opacity="1.000000" stroke="none" 
	d="
M376.442139,435.185272 
	C376.106110,427.957184 376.106110,421.019287 376.106110,413.465057 
	C374.255066,413.313599 371.885254,413.119659 369.222748,412.901794 
	C369.130707,411.353027 369.046295,409.932312 368.965759,408.577271 
	C376.384308,408.577271 383.559052,408.577271 390.956543,408.577271 
	C390.956543,410.648621 390.956543,412.067993 390.956543,413.775024 
	C388.397858,413.890839 386.004730,413.999146 383.358734,414.118896 
	C382.946320,421.445160 382.550079,428.484436 382.130127,435.944458 
	C379.991974,435.757111 378.385040,435.616302 376.442139,435.185272 
z"/>
<path fill="#F8FBFD" opacity="1.000000" stroke="none" 
	d="
M331.965942,434.174561 
	C330.599579,433.343658 328.966156,432.530670 328.945679,431.679016 
	C328.750885,423.562012 328.829407,415.438416 328.829407,407.073059 
	C331.272186,407.073059 333.168457,407.073059 334.971558,407.073059 
	C334.971558,415.741364 335.017334,424.181213 334.863403,432.617462 
	C334.853668,433.151031 333.288666,433.656189 331.965942,434.174561 
z"/>
<path fill="#585858" opacity="1.000000" stroke="none" 
	d="
M311.427856,112.625710 
	C310.916534,116.197319 309.233215,118.729027 305.924988,117.772842 
	C304.109619,117.248123 301.722870,114.544334 301.733948,112.836975 
	C301.750305,110.319122 303.010040,106.856712 304.936584,105.516876 
	C308.202148,103.245834 311.050171,106.351082 311.427856,112.625710 
z"/>
<path fill="#585858" opacity="1.000000" stroke="none" 
	d="
M357.115051,114.125999 
	C356.031036,117.590775 353.468109,119.071213 350.974792,117.572006 
	C349.162750,116.482452 347.539886,113.433144 347.612335,111.318581 
	C347.684357,109.214485 349.520569,106.190193 351.391907,105.331314 
	C355.356842,103.511482 357.900513,107.386284 357.115051,114.125999 
z"/>
<path fill="#575757" opacity="1.000000" stroke="none" 
	d="
M395.552612,151.702011 
	C395.872314,161.086914 392.690399,164.031387 383.212677,163.239883 
	C383.212677,157.405518 383.212677,151.534409 383.212677,145.681381 
	C390.424469,144.758224 393.074280,146.005295 395.552612,151.702011 
z"/>
<path fill="#5C5C5C" opacity="1.000000" stroke="none" 
	d="
M257.819458,149.063385 
	C257.431702,145.740082 258.730377,144.749115 261.498566,145.221085 
	C264.172516,145.676971 266.345337,146.530991 265.967682,149.866806 
	C265.630646,152.843735 263.817810,153.778214 258.153198,153.649567 
	C258.044861,152.305206 257.932037,150.905624 257.819458,149.063385 
z"/>
<path fill="#F4F4F4" opacity="1.000000" stroke="none" 
	d="
M445.061768,325.819427 
	C444.012909,324.522034 442.954742,323.259613 442.908264,321.960968 
	C442.809357,319.198151 443.236176,316.416504 443.441864,313.717285 
	C451.754059,313.366058 455.068756,315.160919 454.962585,319.660919 
	C454.859924,324.012115 451.655426,326.106415 445.061768,325.819427 
z"/>
<path fill="#EEEEEE" opacity="1.000000" stroke="none" 
	d="
M336.215271,261.836090 
	C335.127472,257.908630 334.477905,253.994675 333.840607,250.154648 
	C342.780365,248.498169 346.956146,250.845245 346.157684,256.391052 
	C345.333130,262.118317 340.936768,261.963989 336.215271,261.836090 
z"/>
<path fill="#ECECEC" opacity="1.000000" stroke="none" 
	d="
M228.173721,256.240662 
	C228.692963,254.675858 229.112030,253.486237 229.947815,251.113724 
	C232.263657,257.088348 234.179001,262.029724 236.302216,267.507385 
	C232.202164,267.507385 228.782806,267.507385 224.853821,267.507385 
	C225.943741,263.820435 227.008652,260.218140 228.173721,256.240662 
z"/>
<path fill="#F0F0F0" opacity="1.000000" stroke="none" 
	d="
M152.664932,320.465546 
	C154.261993,324.097137 155.692856,327.401947 157.424316,331.401001 
	C153.485779,331.703979 150.004761,331.971771 146.003906,332.279510 
	C147.470612,326.466736 148.788147,321.245148 150.282471,315.322906 
	C151.212448,317.343719 151.855591,318.741241 152.664932,320.465546 
z"/>
<path fill="#0668B7" opacity="1.000000" stroke="none" 
	d="
M285.159119,413.869385 
	C285.932129,416.899261 286.939087,419.631439 286.838379,422.322144 
	C286.701508,425.977966 284.482788,428.711182 280.610321,428.847473 
	C276.757385,428.983063 274.574158,426.510864 273.903534,422.805725 
	C273.224792,419.055634 273.165192,414.915283 276.833649,413.079132 
	C278.920410,412.034668 282.172302,413.318054 285.159119,413.869385 
z"/>
<path fill="#1E76BE" opacity="1.000000" stroke="none" 
	d="
M354.138245,423.882233 
	C352.933899,423.807892 352.138031,423.732819 350.885376,423.614655 
	C352.030701,420.420288 353.076416,417.503754 354.430115,413.728271 
	C355.416626,416.835938 356.360291,419.054291 356.710999,421.362701 
	C356.819397,422.076233 355.313507,423.035004 354.138245,423.882233 
z"/>
<path fill="#1E76BE" opacity="1.000000" stroke="none" 
	d="
M196.771973,418.486847 
	C197.624359,420.824249 198.334122,422.821686 199.289337,425.509857 
	C196.969696,425.656006 195.130081,425.771912 192.786118,425.919586 
	C193.715088,422.391205 194.490417,419.446381 195.386734,416.042084 
	C195.971542,417.032654 196.300446,417.589783 196.771973,418.486847 
z"/>
</svg>