<svg version="1.1" id="Layer_1" xmlns="http://www.w3.org/2000/svg" xmlns:xlink="http://www.w3.org/1999/xlink" x="0px" y="0px"
	 width="100%" viewBox="0 0 600 600" enable-background="new 0 0 600 600" xml:space="preserve">
<path fill="#FFFFFF" opacity="1.000000" stroke="none" 
	d="
M601.000000,222.000000 
	C601.000000,348.666656 601.000000,474.833344 601.000000,601.000000 
	C401.000000,601.000000 201.000000,601.000000 1.000000,601.000000 
	C1.000000,401.000000 1.000000,201.000000 1.000000,1.000000 
	C201.000000,1.000000 401.000000,1.000000 601.000000,1.000000 
	C601.000000,74.500000 601.000000,148.000000 601.000000,222.000000 
M511.010040,212.036987 
	C511.006805,174.393478 511.108246,136.749542 510.954285,99.106644 
	C510.881805,81.379211 498.912354,63.575932 481.269653,58.047451 
	C461.020813,51.702312 440.611725,45.870724 420.312683,39.683304 
	C388.481720,29.980782 356.711487,20.078144 324.848480,10.482752 
	C319.158569,8.769259 313.188873,7.704877 307.270477,7.087122 
	C294.191559,5.721963 281.822327,8.991607 269.383575,12.878669 
	C235.163788,23.572218 200.762985,33.687191 166.423569,43.996994 
	C152.871140,48.065876 139.309998,52.107929 125.720169,56.049625 
	C104.436638,62.222855 90.892082,79.525841 90.958931,101.538048 
	C91.071716,138.679733 90.928276,175.822174 90.075241,213.022598 
	C87.666283,213.370071 85.251892,213.683823 82.849281,214.070679 
	C70.637604,216.036942 58.464790,218.287842 46.211040,219.939484 
	C26.989542,222.530304 12.786874,239.728546 16.754473,257.454926 
	C21.685677,279.486481 24.945475,301.889038 29.083189,324.102264 
	C32.264946,341.183472 35.721497,358.213257 38.993446,375.277893 
	C41.784092,389.832397 53.793472,402.043488 69.371948,400.978027 
	C76.558731,400.486481 83.727440,399.730713 90.990784,399.996307 
	C91.723091,407.149567 91.765083,414.455536 93.307640,421.429596 
	C99.858421,451.046204 115.403870,475.846313 136.151749,497.419678 
	C145.018326,506.639069 154.898438,514.942932 164.752090,523.141113 
	C183.470718,538.714783 204.083084,551.651062 225.667542,562.682251 
	C246.433289,573.295044 268.013153,582.348877 289.451782,591.585205 
	C294.375854,593.706604 299.643250,596.629639 305.719879,594.042358 
	C318.583405,588.565308 331.892975,584.044006 344.442841,577.944092 
	C362.431580,569.200500 380.138855,559.808777 397.537048,549.937317 
	C417.777557,538.453064 436.546173,524.665405 453.474274,508.725586 
	C463.748993,499.050812 473.314240,488.423950 481.973724,477.273834 
	C499.755005,454.378418 510.491943,428.541138 511.959290,399.014435 
	C515.664001,399.535645 519.358826,400.145172 523.075195,400.562469 
	C537.723450,402.207306 551.583435,401.498108 559.912231,383.530792 
	C562.305054,378.368927 562.958069,372.353760 564.101013,366.667969 
	C567.812683,348.204071 571.452209,329.724976 574.985413,311.226105 
	C578.460632,293.031494 581.229004,274.682312 585.327576,256.632599 
	C588.599670,242.222855 578.292297,227.079697 566.607483,223.257843 
	C556.817871,220.055847 546.345947,218.891190 536.138306,217.031540 
	C527.823730,215.516724 519.453186,214.308517 511.010040,212.036987 
z"/>
<path fill="#515151" opacity="1.000000" stroke="none" 
	d="
M90.904343,399.094727 
	C83.727440,399.730713 76.558731,400.486481 69.371948,400.978027 
	C53.793472,402.043488 41.784092,389.832397 38.993446,375.277893 
	C35.721497,358.213257 32.264946,341.183472 29.083189,324.102264 
	C24.945475,301.889038 21.685677,279.486481 16.754473,257.454926 
	C12.786874,239.728546 26.989542,222.530304 46.211040,219.939484 
	C58.464790,218.287842 70.637604,216.036942 82.849281,214.070679 
	C85.251892,213.683823 87.666283,213.370071 90.936996,213.039001 
	C98.487534,212.312576 105.176315,211.569748 112.104294,210.800354 
	C112.104294,208.081909 112.104294,206.097260 112.104294,204.112610 
	C112.104309,171.116104 112.084915,138.119583 112.112854,105.123093 
	C112.126053,89.532173 118.017502,81.553513 132.947021,76.919113 
	C141.509796,74.261070 150.126389,71.776939 158.707718,69.178024 
	C200.200684,56.611526 241.744049,44.207088 283.147797,31.353001 
	C295.741394,27.443230 307.684021,27.741827 320.196808,31.780369 
	C343.585175,39.329037 367.244171,46.036999 390.771423,53.158089 
	C417.957550,61.386631 445.131500,69.655617 472.292297,77.967377 
	C480.729706,80.549400 486.343842,86.182159 488.599457,94.691193 
	C489.564240,98.330757 489.832306,102.243439 489.842896,106.033623 
	C489.934723,138.863235 489.895721,171.693192 489.895721,204.523056 
	C489.895721,206.473862 489.895721,208.424667 489.895721,210.971375 
	C497.328827,211.669769 504.218170,212.317078 511.107483,212.964355 
	C519.453186,214.308517 527.823730,215.516724 536.138306,217.031540 
	C546.345947,218.891190 556.817871,220.055847 566.607483,223.257843 
	C578.292297,227.079697 588.599670,242.222855 585.327576,256.632599 
	C581.229004,274.682312 578.460632,293.031494 574.985413,311.226105 
	C571.452209,329.724976 567.812683,348.204071 564.101013,366.667969 
	C562.958069,372.353760 562.305054,378.368927 559.912231,383.530792 
	C551.583435,401.498108 537.723450,402.207306 523.075195,400.562469 
	C519.358826,400.145172 515.664001,399.535645 511.294495,398.738312 
	C503.723511,397.342133 496.817322,396.222076 489.511078,395.030334 
	C487.481506,394.641510 485.864990,394.207916 484.220551,394.024963 
	C462.442810,391.602661 440.695435,388.820618 418.871216,386.926392 
	C395.208252,384.872559 371.493317,383.063049 347.763123,382.236725 
	C323.836945,381.403625 299.863190,381.741333 275.912201,381.887360 
	C260.767944,381.979706 245.625610,382.608337 230.485916,383.103394 
	C224.507599,383.298859 218.527222,383.650391 212.567780,384.163239 
	C194.534760,385.715088 176.484970,387.134918 158.492508,389.076752 
	C142.988495,390.750061 127.554123,393.068695 111.662804,395.069702 
	C104.459213,396.389801 97.681778,397.742279 90.904343,399.094727 
M536.594543,388.464691 
	C545.139221,386.095947 549.302429,380.147736 550.886353,371.696136 
	C557.964355,333.929199 565.130188,296.178558 572.364197,258.441193 
	C575.064636,244.353943 569.401794,234.971451 555.269653,232.899078 
	C521.031738,227.878387 486.815155,222.295334 452.390137,219.076141 
	C411.647186,215.266159 370.723999,212.573502 329.823700,211.498978 
	C293.571381,210.546585 257.175415,211.315079 220.967178,213.441116 
	C181.116470,215.781021 141.370087,220.183517 101.653603,224.397690 
	C82.980278,226.379013 64.445854,229.805084 45.919491,232.989548 
	C32.977814,235.214096 26.841848,244.922028 29.475054,257.779266 
	C30.375744,262.177063 31.156311,266.599396 32.000519,271.008881 
	C38.569218,305.318359 45.044022,339.646301 51.767136,373.925507 
	C53.858738,384.589935 62.965534,390.333893 73.647400,388.787964 
	C99.498611,385.046692 125.332947,381.147278 151.246521,377.887421 
	C200.204987,371.728668 249.445663,369.048096 298.735382,369.413330 
	C335.659363,369.686859 372.643127,371.272369 409.458191,374.114227 
	C443.108124,376.711761 476.566803,381.784607 510.110962,385.756439 
	C518.670349,386.769897 527.234192,387.744995 536.594543,388.464691 
M202.462753,95.824486 
	C202.462753,104.778946 202.462753,113.733414 202.462753,122.624329 
	C204.853165,122.624329 206.732300,122.624329 209.036621,122.624329 
	C209.036621,115.756523 209.036621,109.275276 209.036621,102.794029 
	C211.700195,108.129082 213.700470,113.530449 215.564972,118.978294 
	C216.333176,121.222954 216.838669,123.971603 219.976089,122.886475 
	C221.572754,122.334229 223.285172,120.644753 223.923233,119.058296 
	C226.175934,113.457298 227.986954,107.678665 229.965469,101.967392 
	C230.303116,102.035461 230.640747,102.103531 230.978394,102.171600 
	C230.978394,109.028236 230.978394,115.884872 230.978394,122.794525 
	C233.348724,122.794525 235.276260,122.794525 237.443451,122.794525 
	C237.443451,112.510155 237.443451,102.451279 237.443451,92.214058 
	C236.045471,92.124817 234.888046,92.170563 233.779526,91.959488 
	C228.931458,91.036377 226.726120,93.203888 225.577209,97.853935 
	C224.326202,102.917183 222.250397,107.776649 220.208008,113.665405 
	C217.481491,105.888000 215.048111,98.946739 212.606567,91.982208 
	C209.879532,91.982208 207.498291,91.678879 205.260605,92.113914 
	C204.188705,92.322304 203.388626,93.928833 202.462753,95.824486 
M351.660095,123.011131 
	C359.229980,122.699577 363.268616,119.613289 364.107849,113.498665 
	C364.989502,107.074608 362.607849,102.672859 357.219849,100.768425 
	C350.144653,98.267639 342.535645,101.474571 341.028809,107.847992 
	C339.158844,115.757538 342.692139,122.293190 351.660095,123.011131 
M309.795288,100.264473 
	C302.078705,99.572418 297.628357,101.508881 295.515900,106.477844 
	C292.850677,112.747055 295.325378,119.760796 301.011475,122.053459 
	C307.663727,124.735695 315.169281,122.069847 317.479553,116.204239 
	C320.154175,109.413521 317.474335,103.350693 309.795288,100.264473 
M338.089905,117.131340 
	C339.623474,109.330643 331.017731,110.408203 327.236694,105.592697 
	C331.246490,105.592697 334.020935,105.592697 336.767944,105.592697 
	C336.767944,103.805000 336.767944,102.369247 336.767944,100.451965 
	C333.930359,100.315971 331.270721,99.835175 328.709137,100.150505 
	C325.076385,100.597694 321.892883,102.181587 321.439758,106.417831 
	C321.003784,110.493729 323.694183,112.283928 327.036255,113.581421 
	C328.687225,114.222374 330.206360,115.202721 331.785156,116.029503 
	C331.628815,116.623848 331.472443,117.218193 331.316101,117.812538 
	C328.077423,117.566933 324.838715,117.321327 321.532501,117.070602 
	C321.532501,118.479797 321.532501,120.072517 321.532501,121.574791 
	C329.200439,124.379402 334.377594,123.182373 338.089905,117.131340 
M378.565704,95.672264 
	C380.070190,95.346931 381.574707,95.021591 384.183167,94.457535 
	C382.904083,92.661446 382.263672,90.736557 381.039734,90.234711 
	C377.286469,88.695778 371.837616,91.882294 370.936829,95.868248 
	C370.490814,97.841705 371.125549,100.471565 367.702881,100.115074 
	C367.624359,101.634949 367.371948,104.469635 367.492371,104.485565 
	C372.756409,105.181862 370.357666,109.219704 370.600891,111.820412 
	C370.934387,115.386101 370.684296,119.006363 370.684296,122.750397 
	C373.138000,122.750397 375.045044,122.750397 377.443604,122.750397 
	C377.443604,116.782875 377.443604,111.051941 377.443604,105.388084 
	C379.359283,105.073936 380.785278,104.840096 382.202942,104.607613 
	C382.202942,103.087044 382.202942,101.806992 382.202942,100.564423 
	C377.580383,99.695610 377.580383,99.695610 378.565704,95.672264 
M396.518616,123.009766 
	C397.705414,122.010452 398.969910,121.081131 399.998199,119.939125 
	C400.159180,119.760330 399.414673,118.284439 398.801605,117.972099 
	C395.812805,116.449287 393.686005,108.235191 395.830627,105.237564 
	C397.062042,105.078377 398.468048,104.896622 400.118622,104.683250 
	C400.001831,102.988197 399.905029,101.583191 399.817932,100.319054 
	C398.055176,99.999458 396.660492,99.746590 395.349396,99.508881 
	C395.201538,97.220474 395.077057,95.293922 394.927521,92.979156 
	C392.027832,94.517731 389.446106,94.115891 387.734924,98.208153 
	C386.180420,101.925682 383.528900,103.744644 388.177368,106.609085 
	C388.635559,106.891418 388.271362,108.504951 388.292480,109.500534 
	C388.338287,111.657692 388.322205,113.818520 388.446991,115.971146 
	C388.709137,120.492325 390.967377,123.031059 396.518616,123.009766 
M268.347198,123.008698 
	C272.221924,122.830910 274.804474,121.687370 273.564850,118.597633 
	C269.480255,117.433540 265.803925,117.385429 263.935181,115.523300 
	C262.547729,114.140778 262.376434,109.216858 263.673431,107.982674 
	C265.843475,105.917770 269.617706,105.538750 273.295044,104.247002 
	C273.598114,100.478859 273.279846,100.097176 268.481842,99.989464 
	C260.773041,99.816422 255.827362,104.205704 255.610397,111.412880 
	C255.396164,118.530190 259.515808,122.548248 268.347198,123.008698 
M279.508545,122.998535 
	C281.104828,122.998535 282.701111,122.998535 283.556122,122.998535 
	C287.352783,117.026833 279.371399,106.609642 291.926208,105.662308 
	C291.926208,103.752121 291.926208,101.985435 291.926208,99.297424 
	C289.254547,100.425468 287.145386,101.316017 285.036224,102.206558 
	C285.151947,101.852394 285.267639,101.498222 285.383362,101.144058 
	C283.075165,100.644928 280.766968,100.145798 277.424194,99.422943 
	C277.842957,107.921768 278.211700,115.405807 279.508545,122.998535 
M389.003876,143.010422 
	C386.082275,143.010422 383.160675,143.010422 380.252625,143.010422 
	C380.252625,150.962784 380.252625,158.338211 380.252625,165.680237 
	C391.341827,166.749069 397.035675,163.939163 398.367920,156.907043 
	C399.741913,149.654526 397.091888,145.347839 389.003876,143.010422 
M266.929016,144.364517 
	C263.144012,143.723450 259.359039,143.082382 255.302704,142.395370 
	C255.302704,150.890320 255.302704,158.382126 255.302704,165.873932 
	C255.893326,165.983795 256.483948,166.093674 257.074585,166.203552 
	C257.496704,162.926071 257.918854,159.648605 258.329163,156.462814 
	C266.073181,154.897720 264.360229,165.837936 271.615143,165.984650 
	C269.109528,162.027985 267.004150,158.703415 264.836365,155.280258 
	C268.767273,152.694595 270.588684,149.440811 266.929016,144.364517 
M244.004486,122.167473 
	C246.098770,122.506256 248.193039,122.845039 250.395050,123.201248 
	C250.395050,114.970871 250.395050,107.606407 250.395050,100.223175 
	C248.139282,100.223175 246.219742,100.223175 243.911041,100.223175 
	C243.911041,107.384880 243.911041,114.306313 244.004486,122.167473 
M362.327332,155.541229 
	C364.239471,155.337585 366.151611,155.133957 368.063751,154.930328 
	C367.994720,154.355515 367.925720,153.780701 367.856689,153.205902 
	C365.300415,153.059708 362.744141,152.913513 360.096497,152.762100 
	C360.096497,150.208786 360.096497,147.959564 360.096497,145.620270 
	C363.152039,145.259216 365.970642,144.926147 368.789246,144.593094 
	C368.732147,144.185654 368.675049,143.778198 368.617950,143.370758 
	C364.784332,143.370758 360.950684,143.370758 357.205444,143.370758 
	C357.205444,151.029434 357.205444,158.298889 357.205444,165.428284 
	C361.337830,165.428284 365.216156,165.428284 369.094482,165.428284 
	C369.120880,164.935333 369.147278,164.442368 369.173676,163.949417 
	C366.251221,163.687927 363.328735,163.426453 359.328735,163.068558 
	C360.059967,160.412781 360.723785,158.001846 362.327332,155.541229 
M234.845490,159.513916 
	C234.425980,156.626480 235.327301,155.147339 238.585770,155.460403 
	C240.054321,155.601486 241.596207,154.979111 243.104828,154.703125 
	C243.051712,154.244568 242.998581,153.786011 242.945465,153.327454 
	C240.291245,153.105667 237.637039,152.883865 235.192902,152.679642 
	C235.192902,150.043411 235.192902,147.794937 235.192902,145.531174 
	C238.275558,145.225479 241.023712,144.952942 243.771881,144.680420 
	C243.728928,144.263916 243.685989,143.847397 243.643036,143.430893 
	C239.865082,143.430893 236.087128,143.430893 232.287292,143.430893 
	C232.287292,150.963181 232.287292,158.350922 232.287292,165.558472 
	C236.416962,165.558472 240.227280,165.558472 244.037598,165.558472 
	C244.095551,165.058151 244.153488,164.557816 244.211426,164.057495 
	C242.167328,163.860367 240.120636,163.484634 238.079834,163.514252 
	C235.853043,163.546570 234.511032,163.003464 234.845490,159.513916 
M208.371368,165.334351 
	C212.439514,166.624619 216.428360,167.416321 220.716949,163.530991 
	C208.591400,163.596527 205.145172,161.389297 205.354431,154.365112 
	C205.567734,147.204803 209.526245,144.715698 219.826538,144.995743 
	C218.895554,143.952499 217.816788,142.935867 216.583054,142.686707 
	C211.133728,141.586319 205.984695,144.221512 203.732254,149.030899 
	C201.440872,153.923370 202.047562,161.928528 208.371368,165.334351 
M328.959045,155.793396 
	C328.651001,154.907089 328.447113,153.319473 328.016907,153.255585 
	C326.126984,152.974869 324.171692,153.134491 322.302063,153.134491 
	C322.302063,150.155228 322.302063,147.802322 322.302063,145.565292 
	C325.422119,145.241806 328.110321,144.963089 330.798553,144.684372 
	C330.749084,144.234497 330.699615,143.784622 330.650177,143.334747 
	C326.840698,143.334747 323.031250,143.334747 319.453247,143.334747 
	C319.453247,151.069687 319.453247,158.513306 319.453247,165.956909 
	C320.059784,166.032410 320.666321,166.107910 321.272858,166.183411 
	C321.617126,162.796082 321.961395,159.408768 322.321533,155.865295 
	C324.435150,155.865295 326.255035,155.865295 328.959045,155.793396 
M287.778900,145.379211 
	C289.792755,145.097244 291.806610,144.815277 293.820465,144.533295 
	C293.749420,144.200668 293.678345,143.868027 293.607300,143.535400 
	C288.401703,143.535400 283.196075,143.535400 277.990479,143.535400 
	C277.962189,143.930374 277.933929,144.325333 277.905640,144.720306 
	C279.851624,145.004349 281.797638,145.288391 284.137085,145.629868 
	C284.137085,149.433685 283.884094,153.088013 284.213715,156.689011 
	C284.499420,159.810135 282.692749,163.570801 285.595978,166.086319 
	C286.127533,166.017395 286.659119,165.948456 287.190674,165.879517 
	C287.190674,159.274780 287.190674,152.670044 287.778900,145.379211 
M304.028748,165.047394 
	C305.954956,166.720490 306.836578,165.962967 306.852142,163.730209 
	C306.895813,157.456436 306.918396,151.181061 306.791748,144.909485 
	C306.776581,144.158783 305.789490,143.427704 305.252930,142.687546 
	C304.824677,142.820618 304.396423,142.953705 303.968170,143.086792 
	C303.968170,150.098648 303.968170,157.110504 304.028748,165.047394 
M344.877350,157.432144 
	C344.877350,144.067505 344.877350,144.067505 342.437805,143.274155 
	C342.437805,150.829895 342.437805,158.386215 342.437805,165.942551 
	C343.082062,165.998184 343.726318,166.053833 344.370575,166.109467 
	C344.539490,163.540405 344.708405,160.971329 344.877350,157.432144 
M246.790131,89.995453 
	C245.723038,91.499474 244.655945,93.003487 243.588837,94.507500 
	C244.860840,95.342033 246.145248,96.844246 247.401337,96.820938 
	C248.626175,96.798218 249.822067,95.215904 251.030655,94.318298 
	C249.878189,92.874611 248.725723,91.430923 246.790131,89.995453 
z"/>
<path fill="#002050" opacity="1.000000" stroke="none" 
	d="
M511.058777,212.500671 
	C504.218170,212.317078 497.328827,211.669769 489.895721,210.971375 
	C489.895721,208.424667 489.895721,206.473862 489.895721,204.523056 
	C489.895721,171.693192 489.934723,138.863235 489.842896,106.033623 
	C489.832306,102.243439 489.564240,98.330757 488.599457,94.691193 
	C486.343842,86.182159 480.729706,80.549400 472.292297,77.967377 
	C445.131500,69.655617 417.957550,61.386631 390.771423,53.158089 
	C367.244171,46.036999 343.585175,39.329037 320.196808,31.780369 
	C307.684021,27.741827 295.741394,27.443230 283.147797,31.353001 
	C241.744049,44.207088 200.200684,56.611526 158.707718,69.178024 
	C150.126389,71.776939 141.509796,74.261070 132.947021,76.919113 
	C118.017502,81.553513 112.126053,89.532173 112.112854,105.123093 
	C112.084915,138.119583 112.104309,171.116104 112.104294,204.112610 
	C112.104294,206.097260 112.104294,208.081909 112.104294,210.800354 
	C105.176315,211.569748 98.487534,212.312576 91.345673,213.009857 
	C90.928276,175.822174 91.071716,138.679733 90.958931,101.538048 
	C90.892082,79.525841 104.436638,62.222855 125.720169,56.049625 
	C139.309998,52.107929 152.871140,48.065876 166.423569,43.996994 
	C200.762985,33.687191 235.163788,23.572218 269.383575,12.878669 
	C281.822327,8.991607 294.191559,5.721963 307.270477,7.087122 
	C313.188873,7.704877 319.158569,8.769259 324.848480,10.482752 
	C356.711487,20.078144 388.481720,29.980782 420.312683,39.683304 
	C440.611725,45.870724 461.020813,51.702312 481.269653,58.047451 
	C498.912354,63.575932 510.881805,81.379211 510.954285,99.106644 
	C511.108246,136.749542 511.006805,174.393478 511.058777,212.500671 
z"/>
<path fill="#002050" opacity="1.000000" stroke="none" 
	d="
M489.911133,395.102051 
	C496.817322,396.222076 503.723511,397.342133 510.863708,398.777008 
	C510.491943,428.541138 499.755005,454.378418 481.973724,477.273834 
	C473.314240,488.423950 463.748993,499.050812 453.474274,508.725586 
	C436.546173,524.665405 417.777557,538.453064 397.537048,549.937317 
	C380.138855,559.808777 362.431580,569.200500 344.442841,577.944092 
	C331.892975,584.044006 318.583405,588.565308 305.719879,594.042358 
	C299.643250,596.629639 294.375854,593.706604 289.451782,591.585205 
	C268.013153,582.348877 246.433289,573.295044 225.667542,562.682251 
	C204.083084,551.651062 183.470718,538.714783 164.752090,523.141113 
	C154.898438,514.942932 145.018326,506.639069 136.151749,497.419678 
	C115.403870,475.846313 99.858421,451.046204 93.307640,421.429596 
	C91.765083,414.455536 91.723091,407.149567 90.947563,399.545532 
	C97.681778,397.742279 104.459213,396.389801 111.654572,395.512360 
	C112.355103,411.463165 115.638954,426.256012 122.129158,440.326111 
	C133.833908,465.700806 152.306305,485.602112 173.657196,502.942688 
	C210.828522,533.132141 252.894577,554.677063 297.480133,571.544678 
	C299.671082,572.373535 302.755341,572.172791 304.999268,571.326477 
	C331.039124,561.505066 356.087402,549.540771 380.068451,535.425171 
	C410.900574,517.276855 439.717346,496.597809 462.221375,468.243103 
	C479.228455,446.814514 489.752655,422.916565 489.911133,395.102051 
z"/>
<path fill="#FEFEFE" opacity="1.000000" stroke="none" 
	d="
M536.195312,388.601196 
	C527.234192,387.744995 518.670349,386.769897 510.110962,385.756439 
	C476.566803,381.784607 443.108124,376.711761 409.458191,374.114227 
	C372.643127,371.272369 335.659363,369.686859 298.735382,369.413330 
	C249.445663,369.048096 200.204987,371.728668 151.246521,377.887421 
	C125.332947,381.147278 99.498611,385.046692 73.647400,388.787964 
	C62.965534,390.333893 53.858738,384.589935 51.767136,373.925507 
	C45.044022,339.646301 38.569218,305.318359 32.000519,271.008881 
	C31.156311,266.599396 30.375744,262.177063 29.475054,257.779266 
	C26.841848,244.922028 32.977814,235.214096 45.919491,232.989548 
	C64.445854,229.805084 82.980278,226.379013 101.653603,224.397690 
	C141.370087,220.183517 181.116470,215.781021 220.967178,213.441116 
	C257.175415,211.315079 293.571381,210.546585 329.823700,211.498978 
	C370.723999,212.573502 411.647186,215.266159 452.390137,219.076141 
	C486.815155,222.295334 521.031738,227.878387 555.269653,232.899078 
	C569.401794,234.971451 575.064636,244.353943 572.364197,258.441193 
	C565.130188,296.178558 557.964355,333.929199 550.886353,371.696136 
	C549.302429,380.147736 545.139221,386.095947 536.195312,388.601196 
M386.529480,321.752411 
	C386.322021,325.438965 386.114594,329.125519 385.837036,334.057800 
	C380.597382,325.233063 375.743378,317.711090 371.594421,309.818481 
	C369.210175,305.282928 366.321381,303.440399 360.617493,305.083832 
	C360.617493,317.210541 360.617493,329.580322 360.617493,342.205536 
	C362.153839,342.119812 363.877319,342.023651 365.670044,341.923615 
	C366.081848,332.545441 366.474243,323.609680 366.866638,314.673920 
	C372.609070,322.668671 377.614075,330.531219 382.074310,338.691498 
	C384.303772,342.770325 387.058105,344.084198 392.166504,342.587463 
	C392.166504,330.514801 392.166504,318.170807 392.166504,305.658142 
	C390.745300,305.551514 389.142059,305.431213 386.530914,305.235260 
	C386.530914,310.581879 386.530914,315.699707 386.529480,321.752411 
M123.882515,318.689178 
	C114.868950,309.847687 104.536140,314.046722 94.261459,314.927551 
	C95.783379,327.861511 97.211273,339.996429 98.665588,352.355896 
	C109.427612,351.215118 120.217560,351.691193 126.001175,341.018799 
	C129.992889,333.652954 128.762009,326.227783 123.882515,318.689178 
M317.849640,260.451752 
	C317.849640,254.836411 317.849640,249.221069 317.849640,243.382935 
	C315.548309,243.382935 313.779785,243.382935 311.767365,243.382935 
	C311.677399,244.769028 311.545654,246.071564 311.516083,247.376404 
	C311.350372,254.689026 311.454651,262.018555 310.968292,269.309082 
	C310.674072,273.719849 307.703674,276.057800 303.204132,276.106232 
	C298.755280,276.154083 295.882477,273.969574 295.070648,269.607483 
	C294.588013,267.014069 294.548309,264.317719 294.515686,261.665131 
	C294.440674,255.574280 294.491882,249.481873 294.491882,243.098984 
	C292.052643,243.210693 290.300018,243.290955 288.289673,243.383011 
	C288.289673,252.215973 287.910828,260.692413 288.404388,269.117737 
	C288.832336,276.422821 292.427338,280.053436 298.789246,281.280182 
	C310.471100,283.532806 317.541321,277.839508 317.843842,265.922974 
	C317.881836,264.425873 317.849396,262.926971 317.849640,260.451752 
M353.002960,255.365372 
	C353.174591,250.164749 350.665283,246.349121 345.779388,245.395645 
	C340.201996,244.307236 334.387665,244.432892 328.226135,243.999283 
	C328.226135,257.175446 328.226135,269.511963 328.226135,281.904846 
	C330.244598,281.904846 331.980103,281.904846 334.133240,281.904846 
	C334.133240,276.850677 334.133240,272.073700 334.133240,267.422852 
	C338.360382,266.198975 340.979462,267.793915 342.865326,270.988037 
	C344.298645,273.415741 346.003632,275.744019 347.030823,278.337128 
	C348.862762,282.961731 352.111115,282.985138 356.717133,282.000854 
	C352.812866,276.012512 349.242645,270.536530 346.365021,266.122864 
	C348.607208,262.722382 350.769379,259.443298 353.002960,255.365372 
M218.854675,337.737030 
	C219.546097,339.400330 220.237503,341.063629 220.985199,342.862366 
	C223.288559,342.564789 225.298050,342.305176 227.553970,342.013733 
	C222.741714,330.584442 218.271164,319.699921 213.506897,308.945526 
	C212.810211,307.372925 210.868500,305.690765 209.231140,305.344543 
	C206.495300,304.766113 204.500305,305.961792 203.589203,309.284882 
	C201.574707,316.632416 198.982437,323.821411 196.631012,331.076752 
	C195.283432,335.234711 193.946014,339.395905 192.632858,343.466309 
	C202.075958,346.168396 199.741943,337.747498 202.577545,333.993134 
	C205.894867,333.822510 209.419861,333.976288 212.809814,333.372192 
	C216.168762,332.773590 217.804214,333.982849 218.854675,337.737030 
M214.705627,279.310394 
	C214.402313,280.397614 214.099014,281.484863 213.797348,282.566162 
	C222.976807,285.417480 220.746170,276.545410 223.904938,272.821991 
	C226.965118,272.821991 230.223541,273.332031 233.241669,272.698120 
	C237.392410,271.826233 239.192703,273.596680 239.914200,277.156372 
	C240.916550,282.101746 243.740662,283.030670 248.465286,281.158630 
	C243.897568,270.008057 239.319672,259.006317 234.911087,247.937164 
	C233.923218,245.456787 232.714020,244.308197 229.848801,244.423141 
	C227.028488,244.536285 225.854279,245.635300 225.024200,248.238037 
	C221.793411,258.368103 218.324493,268.422241 214.705627,279.310394 
M141.164810,340.692413 
	C142.412247,339.868042 143.565460,338.616425 144.928421,338.315796 
	C147.177658,337.819641 149.641006,338.262909 151.872192,337.723358 
	C155.534576,336.837708 157.537460,338.106934 158.449844,341.607117 
	C159.670944,346.291687 162.557709,347.560364 167.309906,345.504150 
	C162.601776,335.471527 157.594208,325.572418 153.322983,315.365204 
	C151.266235,310.450043 148.723602,308.508514 143.268753,310.606384 
	C139.767944,323.026031 136.183960,335.740692 132.614731,348.403076 
	C139.431854,350.403717 140.207291,345.942322 141.164810,340.692413 
M270.278503,249.205063 
	C270.050293,250.461380 270.182800,251.955215 269.536743,252.936386 
	C264.412292,260.718994 259.089600,268.371002 253.954361,276.146698 
	C252.908493,277.730347 252.396729,279.666748 251.628784,281.463867 
	C261.995300,281.463867 271.414642,281.463867 281.306244,281.463867 
	C281.081726,279.340515 280.920624,277.816864 280.733704,276.049255 
	C274.070557,276.049255 267.917908,276.049255 261.144440,276.049255 
	C268.243286,265.297089 274.936523,255.159256 282.199890,244.157867 
	C271.547089,244.157867 262.485687,244.157867 253.287994,244.157867 
	C253.287994,246.065536 253.287994,247.615585 253.287994,249.197876 
	C258.890320,249.197876 264.195526,249.197876 270.278503,249.205063 
M344.133057,341.193420 
	C346.929260,341.193420 349.725494,341.193420 352.719696,341.193420 
	C352.719696,339.553467 352.719696,338.016754 352.719696,335.941406 
	C347.699158,335.941406 342.958710,335.941406 338.403687,335.941406 
	C338.403687,331.980865 338.403687,328.570496 338.403687,324.821533 
	C342.880707,324.821533 346.967926,324.821533 351.249939,324.821533 
	C351.141205,322.999969 351.054230,321.542908 350.953308,319.852692 
	C346.643066,319.641083 342.564331,319.440887 338.627136,319.247589 
	C338.627136,315.631317 338.627136,312.511871 338.627136,308.956543 
	C343.382507,308.956543 347.956268,308.956543 352.629333,308.956543 
	C352.629333,307.081848 352.629333,305.647217 352.629333,303.691101 
	C345.754730,303.691101 339.078186,303.691101 332.099487,303.691101 
	C332.099487,316.212585 332.099487,328.442719 332.099487,341.193298 
	C335.955994,341.193298 339.583069,341.193298 344.133057,341.193420 
M469.626587,345.199036 
	C474.471130,339.574036 474.123962,334.021393 468.297485,329.261780 
	C465.480255,326.960388 462.028229,325.419800 459.294617,323.039734 
	C458.045197,321.951935 457.096924,319.528595 457.389252,317.969055 
	C457.628204,316.694183 459.898651,314.928284 461.290192,314.908447 
	C465.114960,314.853943 468.951233,315.603149 474.003967,316.171722 
	C473.061920,314.176666 472.404022,310.728149 471.146362,310.493500 
	C466.843445,309.690460 462.268585,309.521484 457.915131,310.060669 
	C454.119659,310.530701 451.425781,313.159271 450.553162,317.252991 
	C449.688171,321.310944 451.108826,324.530884 454.170898,326.953156 
	C456.897675,329.110168 460.250854,330.551544 462.710480,332.943329 
	C464.352173,334.539795 466.235382,337.797058 465.606354,339.314423 
	C464.892487,341.036530 461.448853,342.623993 459.278015,342.517426 
	C455.804504,342.346832 452.401917,340.731781 448.781403,339.672363 
	C447.121674,343.330933 448.070312,345.750763 452.579315,346.818085 
	C458.227234,348.155029 463.731415,348.782379 469.626587,345.199036 
M369.901794,282.458771 
	C374.190063,282.458771 378.478302,282.458771 383.032776,282.458771 
	C382.942963,280.934357 382.850861,279.370911 382.755341,277.749268 
	C377.679596,277.429993 372.957581,277.132996 368.063873,276.825195 
	C368.250366,272.900360 368.407135,269.601074 368.572540,266.119843 
	C372.884888,266.119843 376.855774,266.119843 381.225006,266.119843 
	C381.411865,264.444305 381.581360,262.924225 381.775055,261.187042 
	C377.238159,260.958008 373.163727,260.752319 369.183533,260.551392 
	C369.183533,256.805908 369.183533,253.550552 369.183533,250.054657 
	C373.945282,250.054657 378.363037,250.054657 382.866089,250.054657 
	C382.866089,248.263428 382.866089,246.737213 382.866089,244.849243 
	C376.130585,244.849243 369.711029,244.849243 362.549835,244.849243 
	C362.549835,257.285950 362.549835,269.657654 362.549835,282.043884 
	C364.658173,282.174835 366.817108,282.308960 369.901794,282.458771 
M254.315277,304.540802 
	C250.230408,306.083344 247.497360,308.908478 247.299454,313.336823 
	C247.092636,317.964386 249.748154,321.101685 253.740204,323.152863 
	C256.536652,324.589722 259.660248,325.592834 262.070709,327.504578 
	C263.606140,328.722382 264.994263,331.351471 264.783630,333.153046 
	C264.618469,334.565430 261.934967,336.671448 260.308075,336.729614 
	C256.289551,336.873383 252.235229,336.017670 248.024719,335.544495 
	C246.611145,339.666718 248.590363,341.847595 253.271881,341.986115 
	C256.244354,342.074066 259.261902,342.285217 262.188354,341.901123 
	C266.742523,341.303406 270.496338,339.131195 271.700592,334.345673 
	C272.964264,329.323944 270.641144,325.572723 266.498505,322.976044 
	C263.700500,321.222168 260.446320,320.146759 257.804901,318.210388 
	C256.160522,317.004913 253.956238,314.322205 254.365952,313.084686 
	C254.969513,311.261597 257.533630,309.242493 259.526123,308.916382 
	C262.762665,308.386688 266.212524,309.160156 269.530029,309.380737 
	C269.530029,307.816528 269.530029,306.063782 269.530029,303.120850 
	C264.434784,303.500854 259.734650,303.851379 254.315277,304.540802 
M285.581238,339.095428 
	C290.747406,339.736847 295.936707,341.022766 301.073273,340.838654 
	C306.223846,340.654053 306.502197,339.528809 305.388733,334.121674 
	C296.510712,337.286560 290.581665,336.455963 286.651947,331.496826 
	C283.147614,327.074493 282.413055,318.839203 286.070679,314.207001 
	C288.159149,311.562042 291.578033,309.205536 294.807861,308.432831 
	C298.207733,307.619415 302.096313,308.848633 306.010529,309.207275 
	C306.010529,308.339722 306.036560,307.188629 306.000366,306.039520 
	C305.979950,305.390442 305.857178,304.744598 305.788788,304.167358 
	C295.617035,300.251831 285.049316,303.269012 280.109955,311.403748 
	C274.627014,320.433685 276.616425,331.706024 285.581238,339.095428 
M417.200378,323.873566 
	C417.481537,320.258881 417.762695,316.644196 418.061829,312.798462 
	C421.700562,312.798462 425.095856,312.798462 428.701111,312.798462 
	C428.701111,311.001617 428.701111,309.466644 428.701111,307.800751 
	C419.356110,307.283356 410.310608,306.782532 400.927002,306.263000 
	C401.041138,308.340881 401.126923,309.902405 401.220093,311.598145 
	C404.725861,311.835114 407.826508,312.044678 411.501953,312.293121 
	C410.952789,323.195984 410.416412,333.844543 409.867035,344.751465 
	C412.207764,344.751465 413.959656,344.751465 416.054230,344.751465 
	C416.439392,338.007904 416.816162,331.410797 417.200378,323.873566 
M490.039124,312.647339 
	C486.939087,312.287354 483.839081,311.927368 480.372772,311.524872 
	C480.203491,313.425323 480.064728,314.983093 479.913391,316.681976 
	C483.621002,317.206055 486.993195,317.682709 490.445221,318.170654 
	C489.192505,329.121124 488.005341,339.498230 486.773529,350.265869 
	C488.995178,350.562683 490.867920,350.812897 492.940582,351.089844 
	C494.262909,340.094391 495.523132,329.615295 496.810852,318.907562 
	C500.724091,319.261414 504.094666,319.566193 507.702271,319.892426 
	C507.802399,317.909637 507.875031,316.471161 507.964844,314.692932 
	C502.110962,314.028625 496.517883,313.393921 490.039124,312.647339 
M181.991409,326.478149 
	C181.670181,321.888489 181.348969,317.298859 181.010742,312.466187 
	C184.814148,312.164978 188.220764,311.895203 191.913025,311.602783 
	C191.743195,309.805969 191.609314,308.389618 191.425171,306.441437 
	C182.067276,307.011261 173.038956,307.561035 163.732101,308.127747 
	C163.867340,310.078461 163.975601,311.639984 164.080093,313.146973 
	C167.787888,313.146973 171.059677,313.146973 174.693848,313.146973 
	C175.411392,323.809265 176.119125,334.325897 176.848846,345.169312 
	C179.166519,345.055359 181.034943,344.963501 183.043869,344.864716 
	C182.675293,338.666656 182.341156,333.047638 181.991409,326.478149 
M434.710846,345.457520 
	C436.104340,345.457520 437.497803,345.457520 439.065613,345.457520 
	C439.966217,332.920105 440.840759,320.745148 441.741882,308.200043 
	C439.488770,308.053528 437.588318,307.929932 435.284851,307.780121 
	C434.449585,320.057648 433.628540,331.928528 432.880676,343.804047 
	C432.849274,344.302673 433.498749,344.844238 434.710846,345.457520 
M321.179688,326.495300 
	C321.179688,318.891235 321.179688,311.287140 321.179688,303.485657 
	C319.050232,303.485657 317.178223,303.485657 315.179291,303.485657 
	C315.179291,316.152435 315.179291,328.514069 315.179291,341.057373 
	C317.299469,340.950470 319.046356,340.862366 321.179688,340.754791 
	C321.179688,336.093262 321.179688,331.792603 321.179688,326.495300 
z"/>
<path fill="#0164B5" opacity="1.000000" stroke="none" 
	d="
M489.511078,395.030334 
	C489.752655,422.916565 479.228455,446.814514 462.221375,468.243103 
	C439.717346,496.597809 410.900574,517.276855 380.068451,535.425171 
	C356.087402,549.540771 331.039124,561.505066 304.999268,571.326477 
	C302.755341,572.172791 299.671082,572.373535 297.480133,571.544678 
	C252.894577,554.677063 210.828522,533.132141 173.657196,502.942688 
	C152.306305,485.602112 133.833908,465.700806 122.129158,440.326111 
	C115.638954,426.256012 112.355103,411.463165 112.080727,395.544678 
	C127.554123,393.068695 142.988495,390.750061 158.492508,389.076752 
	C176.484970,387.134918 194.534760,385.715088 212.567780,384.163239 
	C218.527222,383.650391 224.507599,383.298859 230.485916,383.103394 
	C245.625610,382.608337 260.767944,381.979706 275.912201,381.887360 
	C299.863190,381.741333 323.836945,381.403625 347.763123,382.236725 
	C371.493317,383.063049 395.208252,384.872559 418.871216,386.926392 
	C440.695435,388.820618 462.442810,391.602661 484.220551,394.024963 
	C485.864990,394.207916 487.481506,394.641510 489.511078,395.030334 
M341.868073,509.653442 
	C343.281799,510.239227 344.858124,510.592834 346.081848,511.449890 
	C352.275604,515.787781 358.377747,520.256531 365.494537,525.387817 
	C362.403625,515.755554 359.682617,507.276031 356.929596,498.696747 
	C364.282928,493.315186 371.444580,488.073883 379.695953,482.035095 
	C369.429077,482.035095 360.529205,482.035095 351.530212,482.035095 
	C348.622803,473.274261 345.828217,464.853363 342.668884,455.333435 
	C340.091614,463.398865 337.752869,470.149628 335.813934,477.013306 
	C334.765717,480.723877 333.216278,482.393799 328.961060,482.122528 
	C321.656128,481.656860 314.300018,481.993774 305.696411,481.993774 
	C312.972870,487.303162 318.899109,491.901093 325.124268,496.050598 
	C328.098755,498.033264 328.388153,499.876160 327.234985,503.057587 
	C324.772919,509.850067 322.775421,516.810974 320.587585,523.702942 
	C320.890564,523.906494 321.193512,524.110046 321.496490,524.313599 
	C328.060974,519.566162 334.625488,514.818787 341.868073,509.653442 
M237.059479,523.872314 
	C237.118256,524.028259 237.147980,524.207092 237.246414,524.331726 
	C237.308121,524.409851 237.521317,524.474854 237.584839,524.430054 
	C244.867874,519.291321 252.143204,514.141724 259.318634,509.063690 
	C266.647430,514.314026 273.578613,519.279480 280.509766,524.244934 
	C279.278992,516.949402 277.473175,510.240906 274.938751,503.819946 
	C273.321228,499.721893 274.402557,497.613037 277.845154,495.337921 
	C283.816376,491.391602 289.463013,486.954102 296.305847,481.946899 
	C285.971802,481.946899 277.153107,481.946899 268.012848,481.946899 
	C265.214233,473.466522 262.437592,465.052582 259.262177,455.430481 
	C256.104980,464.994507 253.320221,473.430298 250.423096,482.206482 
	C241.287888,482.206482 232.426697,482.206482 222.480484,482.206482 
	C230.635391,488.151489 237.843567,493.406311 245.132233,498.719788 
	C242.393600,507.070953 239.756042,515.113892 237.059479,523.872314 
M284.267426,433.975708 
	C292.521332,430.499786 295.959229,422.930054 293.064636,414.605591 
	C290.731995,407.897156 283.782898,404.504333 276.554596,406.544739 
	C269.081909,408.654083 265.284271,415.793671 267.093872,424.331085 
	C268.634857,431.601257 274.980438,435.377960 284.267426,433.975708 
M343.847992,425.265289 
	C342.730530,428.171021 341.613068,431.076782 340.421844,434.174316 
	C344.515320,434.966858 347.829437,435.372009 348.871246,430.439789 
	C349.023346,429.719696 350.471924,428.847961 351.373444,428.783295 
	C355.946289,428.455353 360.692627,428.123962 360.293243,434.907013 
	C362.909363,434.907013 364.861664,434.907013 367.491882,434.907013 
	C364.655731,426.062683 362.085968,417.526062 359.037964,409.163757 
	C358.627380,408.037170 355.792694,407.248077 354.111389,407.300201 
	C352.718628,407.343384 350.705719,408.542633 350.121796,409.776093 
	C347.850128,414.574707 346.038361,419.591064 343.847992,425.265289 
M184.274277,433.479126 
	C184.035828,434.701874 183.797363,435.924622 183.531265,437.289032 
	C187.422638,437.399628 190.853317,437.929138 191.532913,432.734589 
	C191.652008,431.824310 195.298599,430.977936 197.361465,430.853302 
	C198.843613,430.763702 201.453857,431.606140 201.748672,432.580902 
	C203.272797,437.620056 206.583923,436.172729 210.313950,435.636505 
	C206.970291,427.598816 203.672943,420.013702 200.686996,412.307892 
	C199.654922,409.644409 198.208771,408.804443 195.486633,409.082184 
	C192.977737,409.338196 191.257446,409.832092 190.494156,412.749207 
	C188.732788,419.480804 186.548004,426.101593 184.274277,433.479126 
M215.899780,430.738983 
	C215.304703,434.461578 217.233276,435.908295 220.643082,435.845612 
	C222.956177,435.803101 225.291473,435.735657 227.571243,435.383881 
	C231.620544,434.759094 234.359985,432.460846 234.719681,428.243011 
	C235.055740,424.302338 232.835480,421.658295 229.429047,419.977753 
	C227.644257,419.097260 225.693176,418.516388 224.007614,417.488068 
	C223.164459,416.973694 222.180237,415.672058 222.300674,414.885956 
	C222.418854,414.114655 223.832672,413.025970 224.719894,412.984955 
	C227.396729,412.861145 230.094009,413.179047 233.085220,413.341064 
	C232.915176,411.560730 232.750092,409.832214 232.557571,407.816559 
	C229.999451,407.662781 227.856064,407.368866 225.724243,407.436890 
	C219.491806,407.635895 215.674866,410.147247 215.131561,414.535675 
	C214.434143,420.168793 218.205368,422.394684 222.677155,424.187897 
	C224.650909,424.979370 226.364960,426.418457 228.196915,427.563507 
	C228.063080,428.299500 227.929260,429.035492 227.795425,429.771484 
	C225.257782,429.947754 222.722183,430.203461 220.181656,430.269226 
	C218.759552,430.306061 217.329285,430.028168 215.899780,430.738983 
M261.045441,424.950562 
	C260.735382,424.191498 260.643127,423.122284 260.078461,422.725769 
	C257.275635,420.757568 254.271683,419.072052 251.503662,417.059875 
	C250.445694,416.290802 249.827286,414.917084 249.008560,413.818878 
	C250.221725,413.168579 251.410980,412.035217 252.653305,411.973755 
	C254.884521,411.863281 257.147614,412.396484 259.572021,412.681213 
	C260.490753,408.950317 259.781250,406.422150 255.258377,406.605011 
	C252.785248,406.704926 249.882950,406.246399 247.960449,407.376831 
	C245.525681,408.808502 242.592850,411.429291 242.274704,413.852325 
	C241.955948,416.280090 244.201141,419.427490 246.068756,421.625397 
	C247.326263,423.105408 249.987762,423.308075 251.810944,424.425262 
	C252.810715,425.037872 253.374405,426.362122 254.134720,427.365479 
	C253.024323,428.186401 251.896072,429.716187 250.807068,429.688751 
	C248.073288,429.619843 245.357224,428.846771 242.011002,428.243805 
	C242.505753,430.163086 242.835556,433.679321 243.524689,433.751190 
	C247.860062,434.203430 252.387009,434.470581 256.630463,433.654327 
	C260.333862,432.941956 261.438965,429.442566 261.045441,424.950562 
M400.893036,436.873718 
	C404.812714,436.873718 408.732391,436.873718 412.811218,436.873718 
	C412.811218,435.478851 412.811218,433.946320 412.811218,432.253448 
	C409.524048,432.038330 406.586487,431.846130 403.142151,431.620728 
	C403.353729,429.531281 403.525940,427.830719 403.714874,425.964966 
	C406.801514,425.964966 409.414490,425.964966 412.258331,425.964966 
	C412.447388,424.374573 412.614502,422.969025 412.820465,421.236328 
	C409.788116,420.926208 407.041962,420.645355 404.253052,420.360138 
	C404.253052,418.439911 404.253052,416.857208 404.253052,414.866577 
	C407.549072,414.866577 410.600983,414.866577 413.728455,414.866577 
	C413.728455,413.053925 413.728455,411.655579 413.728455,410.087006 
	C408.400818,409.741608 403.352448,409.414307 397.962463,409.064850 
	C397.470306,417.772644 396.894623,425.862701 396.714996,433.961548 
	C396.694061,434.905457 398.862823,435.897919 400.893036,436.873718 
M307.984924,407.120880 
	C300.466888,411.556488 297.689484,418.404327 300.311920,426.039124 
	C302.486237,432.369324 308.418457,435.344452 316.568573,434.192200 
	C321.490082,433.496368 321.630127,433.257233 320.270264,427.719940 
	C315.647369,429.195770 310.544159,430.299469 307.943481,425.143646 
	C306.610199,422.500427 306.614502,418.057770 307.961395,415.424133 
	C310.673523,410.121124 315.979706,411.585876 320.684753,412.745453 
	C321.585358,406.742493 321.236572,406.170044 315.622192,406.066559 
	C313.338745,406.024475 311.043732,406.610504 307.984924,407.120880 
M388.391052,413.996948 
	C392.686218,414.178802 390.834778,411.281525 391.167389,408.599548 
	C383.597198,408.599548 376.427460,408.599548 369.232300,408.599548 
	C369.232300,409.877563 369.232300,411.294189 369.232300,412.897308 
	C371.849030,413.111847 374.226562,413.306824 376.335815,413.479767 
	C376.335815,421.068848 376.335815,428.120728 376.335815,435.550842 
	C378.148315,435.658478 379.892822,435.762054 382.221405,435.900330 
	C382.501831,429.750854 382.994385,423.998505 382.940460,418.251251 
	C382.907745,414.770569 383.994049,413.305176 388.391052,413.996948 
M335.179230,419.809998 
	C335.179230,415.577515 335.179230,411.345001 335.179230,407.006714 
	C333.016998,407.006714 331.239532,407.006714 328.843994,407.006714 
	C328.843994,411.635284 328.843994,416.089661 328.843994,420.544006 
	C328.843994,424.981567 328.843994,429.419128 328.843994,433.901825 
	C331.166046,433.901825 332.903076,433.901825 335.178894,433.901825 
	C335.178894,429.344299 335.178894,425.048004 335.179230,419.809998 
z"/>
<path fill="#F7F7F7" opacity="1.000000" stroke="none" 
	d="
M202.464096,95.363312 
	C203.388626,93.928833 204.188705,92.322304 205.260605,92.113914 
	C207.498291,91.678879 209.879532,91.982208 212.606567,91.982208 
	C215.048111,98.946739 217.481491,105.888000 220.208008,113.665405 
	C222.250397,107.776649 224.326202,102.917183 225.577209,97.853935 
	C226.726120,93.203888 228.931458,91.036377 233.779526,91.959488 
	C234.888046,92.170563 236.045471,92.124817 237.443451,92.214058 
	C237.443451,102.451279 237.443451,112.510155 237.443451,122.794525 
	C235.276260,122.794525 233.348724,122.794525 230.978394,122.794525 
	C230.978394,115.884872 230.978394,109.028236 230.978394,102.171600 
	C230.640747,102.103531 230.303116,102.035461 229.965469,101.967392 
	C227.986954,107.678665 226.175934,113.457298 223.923233,119.058296 
	C223.285172,120.644753 221.572754,122.334229 219.976089,122.886475 
	C216.838669,123.971603 216.333176,121.222954 215.564972,118.978294 
	C213.700470,113.530449 211.700195,108.129082 209.036621,102.794029 
	C209.036621,109.275276 209.036621,115.756523 209.036621,122.624329 
	C206.732300,122.624329 204.853165,122.624329 202.462753,122.624329 
	C202.462753,113.733414 202.462753,104.778946 202.464096,95.363312 
z"/>
<path fill="#FAFAFA" opacity="1.000000" stroke="none" 
	d="
M351.242554,123.007065 
	C342.692139,122.293190 339.158844,115.757538 341.028809,107.847992 
	C342.535645,101.474571 350.144653,98.267639 357.219849,100.768425 
	C362.607849,102.672859 364.989502,107.074608 364.107849,113.498665 
	C363.268616,119.613289 359.229980,122.699577 351.242554,123.007065 
M348.074524,115.309380 
	C351.273010,118.556030 354.948822,119.123604 356.061249,116.078011 
	C357.069916,113.316589 356.667358,109.818474 356.041779,106.821609 
	C355.863464,105.967430 351.612823,104.815788 351.161957,105.370712 
	C349.481384,107.438812 348.545044,110.134644 347.476746,112.657288 
	C347.269501,113.146629 347.723450,113.915977 348.074524,115.309380 
z"/>
<path fill="#FAFAFA" opacity="1.000000" stroke="none" 
	d="
M310.176849,100.405258 
	C317.474335,103.350693 320.154175,109.413521 317.479553,116.204239 
	C315.169281,122.069847 307.663727,124.735695 301.011475,122.053459 
	C295.325378,119.760796 292.850677,112.747055 295.515900,106.477844 
	C297.628357,101.508881 302.078705,99.572418 310.176849,100.405258 
M307.298950,105.018517 
	C301.908691,105.956993 299.411438,111.648491 302.475830,116.010963 
	C304.516479,118.916039 309.359802,118.748734 310.622650,115.442345 
	C312.071198,111.649857 312.682526,107.648972 307.298950,105.018517 
z"/>
<path fill="#F8F8F8" opacity="1.000000" stroke="none" 
	d="
M338.018463,117.528091 
	C334.377594,123.182373 329.200439,124.379402 321.532501,121.574791 
	C321.532501,120.072517 321.532501,118.479797 321.532501,117.070602 
	C324.838715,117.321327 328.077423,117.566933 331.316101,117.812538 
	C331.472443,117.218193 331.628815,116.623848 331.785156,116.029503 
	C330.206360,115.202721 328.687225,114.222374 327.036255,113.581421 
	C323.694183,112.283928 321.003784,110.493729 321.439758,106.417831 
	C321.892883,102.181587 325.076385,100.597694 328.709137,100.150505 
	C331.270721,99.835175 333.930359,100.315971 336.767944,100.451965 
	C336.767944,102.369247 336.767944,103.805000 336.767944,105.592697 
	C334.020935,105.592697 331.246490,105.592697 327.236694,105.592697 
	C331.017731,110.408203 339.623474,109.330643 338.018463,117.528091 
z"/>
<path fill="#FEFEFE" opacity="1.000000" stroke="none" 
	d="
M378.292511,95.968842 
	C377.580383,99.695610 377.580383,99.695610 382.202942,100.564423 
	C382.202942,101.806992 382.202942,103.087044 382.202942,104.607613 
	C380.785278,104.840096 379.359283,105.073936 377.443604,105.388084 
	C377.443604,111.051941 377.443604,116.782875 377.443604,122.750397 
	C375.045044,122.750397 373.138000,122.750397 370.684296,122.750397 
	C370.684296,119.006363 370.934387,115.386101 370.600891,111.820412 
	C370.357666,109.219704 372.756409,105.181862 367.492371,104.485565 
	C367.371948,104.469635 367.624359,101.634949 367.702881,100.115074 
	C371.125549,100.471565 370.490814,97.841705 370.936829,95.868248 
	C371.837616,91.882294 377.286469,88.695778 381.039734,90.234711 
	C382.263672,90.736557 382.904083,92.661446 384.183167,94.457535 
	C381.574707,95.021591 380.070190,95.346931 378.292511,95.968842 
z"/>
<path fill="#F9F9F9" opacity="1.000000" stroke="none" 
	d="
M396.099915,123.011002 
	C390.967377,123.031059 388.709137,120.492325 388.446991,115.971146 
	C388.322205,113.818520 388.338287,111.657692 388.292480,109.500534 
	C388.271362,108.504951 388.635559,106.891418 388.177368,106.609085 
	C383.528900,103.744644 386.180420,101.925682 387.734924,98.208153 
	C389.446106,94.115891 392.027832,94.517731 394.927521,92.979156 
	C395.077057,95.293922 395.201538,97.220474 395.349396,99.508881 
	C396.660492,99.746590 398.055176,99.999458 399.817932,100.319054 
	C399.905029,101.583191 400.001831,102.988197 400.118622,104.683250 
	C398.468048,104.896622 397.062042,105.078377 395.830627,105.237564 
	C393.686005,108.235191 395.812805,116.449287 398.801605,117.972099 
	C399.414673,118.284439 400.159180,119.760330 399.998199,119.939125 
	C398.969910,121.081131 397.705414,122.010452 396.099915,123.011002 
z"/>
<path fill="#FAFAFA" opacity="1.000000" stroke="none" 
	d="
M267.924255,123.009674 
	C259.515808,122.548248 255.396164,118.530190 255.610397,111.412880 
	C255.827362,104.205704 260.773041,99.816422 268.481842,99.989464 
	C273.279846,100.097176 273.598114,100.478859 273.295044,104.247002 
	C269.617706,105.538750 265.843475,105.917770 263.673431,107.982674 
	C262.376434,109.216858 262.547729,114.140778 263.935181,115.523300 
	C265.803925,117.385429 269.480255,117.433540 273.564850,118.597633 
	C274.804474,121.687370 272.221924,122.830910 267.924255,123.009674 
z"/>
<path fill="#F8F8F8" opacity="1.000000" stroke="none" 
	d="
M279.044495,122.944199 
	C278.211700,115.405807 277.842957,107.921768 277.424194,99.422943 
	C280.766968,100.145798 283.075165,100.644928 285.383362,101.144058 
	C285.267639,101.498222 285.151947,101.852394 285.036224,102.206558 
	C287.145386,101.316017 289.254547,100.425468 291.926208,99.297424 
	C291.926208,101.985435 291.926208,103.752121 291.926208,105.662308 
	C279.371399,106.609642 287.352783,117.026833 283.556122,122.998535 
	C282.701111,122.998535 281.104828,122.998535 279.044495,122.944199 
z"/>
<path fill="#F3F3F3" opacity="1.000000" stroke="none" 
	d="
M389.433136,143.047333 
	C397.091888,145.347839 399.741913,149.654526 398.367920,156.907043 
	C397.035675,163.939163 391.341827,166.749069 380.252625,165.680237 
	C380.252625,158.338211 380.252625,150.962784 380.252625,143.010422 
	C383.160675,143.010422 386.082275,143.010422 389.433136,143.047333 
M384.504639,145.226257 
	C383.972565,145.736084 382.988800,146.236542 382.977997,146.757172 
	C382.865173,152.197495 382.908386,157.641083 382.908386,163.006729 
	C391.596375,164.286407 396.279663,160.629761 395.796173,153.378174 
	C395.434692,147.956024 392.807129,145.896332 384.504639,145.226257 
z"/>
<path fill="#F5F5F5" opacity="1.000000" stroke="none" 
	d="
M267.218628,144.652573 
	C270.588684,149.440811 268.767273,152.694595 264.836365,155.280258 
	C267.004150,158.703415 269.109528,162.027985 271.615143,165.984650 
	C264.360229,165.837936 266.073181,154.897720 258.329163,156.462814 
	C257.918854,159.648605 257.496704,162.926071 257.074585,166.203552 
	C256.483948,166.093674 255.893326,165.983795 255.302704,165.873932 
	C255.302704,158.382126 255.302704,150.890320 255.302704,142.395370 
	C259.359039,143.082382 263.144012,143.723450 267.218628,144.652573 
M257.819733,148.622742 
	C257.892975,150.225281 257.966217,151.827820 258.061829,153.919281 
	C260.161591,153.660645 262.217010,153.949432 263.513763,153.091507 
	C264.748718,152.274506 266.186462,149.803207 265.759857,148.875504 
	C265.043121,147.316895 263.059662,145.963745 261.326599,145.412552 
	C260.490662,145.146667 259.011597,146.902985 257.819733,148.622742 
z"/>
<path fill="#F5F5F5" opacity="1.000000" stroke="none" 
	d="
M243.957764,121.697609 
	C243.911041,114.306313 243.911041,107.384880 243.911041,100.223175 
	C246.219742,100.223175 248.139282,100.223175 250.395050,100.223175 
	C250.395050,107.606407 250.395050,114.970871 250.395050,123.201248 
	C248.193039,122.845039 246.098770,122.506256 243.957764,121.697609 
z"/>
<path fill="#F8F8F8" opacity="1.000000" stroke="none" 
	d="
M361.857483,155.566071 
	C360.723785,158.001846 360.059967,160.412781 359.328735,163.068558 
	C363.328735,163.426453 366.251221,163.687927 369.173676,163.949417 
	C369.147278,164.442368 369.120880,164.935333 369.094482,165.428284 
	C365.216156,165.428284 361.337830,165.428284 357.205444,165.428284 
	C357.205444,158.298889 357.205444,151.029434 357.205444,143.370758 
	C360.950684,143.370758 364.784332,143.370758 368.617950,143.370758 
	C368.675049,143.778198 368.732147,144.185654 368.789246,144.593094 
	C365.970642,144.926147 363.152039,145.259216 360.096497,145.620270 
	C360.096497,147.959564 360.096497,150.208786 360.096497,152.762100 
	C362.744141,152.913513 365.300415,153.059708 367.856689,153.205902 
	C367.925720,153.780701 367.994720,154.355515 368.063751,154.930328 
	C366.151611,155.133957 364.239471,155.337585 361.857483,155.566071 
z"/>
<path fill="#F8F8F8" opacity="1.000000" stroke="none" 
	d="
M234.846741,159.996140 
	C234.511032,163.003464 235.853043,163.546570 238.079834,163.514252 
	C240.120636,163.484634 242.167328,163.860367 244.211426,164.057495 
	C244.153488,164.557816 244.095551,165.058151 244.037598,165.558472 
	C240.227280,165.558472 236.416962,165.558472 232.287292,165.558472 
	C232.287292,158.350922 232.287292,150.963181 232.287292,143.430893 
	C236.087128,143.430893 239.865082,143.430893 243.643036,143.430893 
	C243.685989,143.847397 243.728928,144.263916 243.771881,144.680420 
	C241.023712,144.952942 238.275558,145.225479 235.192902,145.531174 
	C235.192902,147.794937 235.192902,150.043411 235.192902,152.679642 
	C237.637039,152.883865 240.291245,153.105667 242.945465,153.327454 
	C242.998581,153.786011 243.051712,154.244568 243.104828,154.703125 
	C241.596207,154.979111 240.054321,155.601486 238.585770,155.460403 
	C235.327301,155.147339 234.425980,156.626480 234.846741,159.996140 
z"/>
<path fill="#F3F3F3" opacity="1.000000" stroke="none" 
	d="
M208.030762,165.170715 
	C202.047562,161.928528 201.440872,153.923370 203.732254,149.030899 
	C205.984695,144.221512 211.133728,141.586319 216.583054,142.686707 
	C217.816788,142.935867 218.895554,143.952499 219.826538,144.995743 
	C209.526245,144.715698 205.567734,147.204803 205.354431,154.365112 
	C205.145172,161.389297 208.591400,163.596527 220.716949,163.530991 
	C216.428360,167.416321 212.439514,166.624619 208.030762,165.170715 
z"/>
<path fill="#F0F0F0" opacity="1.000000" stroke="none" 
	d="
M328.516968,155.829346 
	C326.255035,155.865295 324.435150,155.865295 322.321533,155.865295 
	C321.961395,159.408768 321.617126,162.796082 321.272858,166.183411 
	C320.666321,166.107910 320.059784,166.032410 319.453247,165.956909 
	C319.453247,158.513306 319.453247,151.069687 319.453247,143.334747 
	C323.031250,143.334747 326.840698,143.334747 330.650177,143.334747 
	C330.699615,143.784622 330.749084,144.234497 330.798553,144.684372 
	C328.110321,144.963089 325.422119,145.241806 322.302063,145.565292 
	C322.302063,147.802322 322.302063,150.155228 322.302063,153.134491 
	C324.171692,153.134491 326.126984,152.974869 328.016907,153.255585 
	C328.447113,153.319473 328.651001,154.907089 328.516968,155.829346 
z"/>
<path fill="#F3F3F3" opacity="1.000000" stroke="none" 
	d="
M287.484802,145.722260 
	C287.190674,152.670044 287.190674,159.274780 287.190674,165.879517 
	C286.659119,165.948456 286.127533,166.017395 285.595978,166.086319 
	C282.692749,163.570801 284.499420,159.810135 284.213715,156.689011 
	C283.884094,153.088013 284.137085,149.433685 284.137085,145.629868 
	C281.797638,145.288391 279.851624,145.004349 277.905640,144.720306 
	C277.933929,144.325333 277.962189,143.930374 277.990479,143.535400 
	C283.196075,143.535400 288.401703,143.535400 293.607300,143.535400 
	C293.678345,143.868027 293.749420,144.200668 293.820465,144.533295 
	C291.806610,144.815277 289.792755,145.097244 287.484802,145.722260 
z"/>
<path fill="#F0F0F0" opacity="1.000000" stroke="none" 
	d="
M303.998474,164.584869 
	C303.968170,157.110504 303.968170,150.098648 303.968170,143.086792 
	C304.396423,142.953705 304.824677,142.820618 305.252930,142.687546 
	C305.789490,143.427704 306.776581,144.158783 306.791748,144.909485 
	C306.918396,151.181061 306.895813,157.456436 306.852142,163.730209 
	C306.836578,165.962967 305.954956,166.720490 303.998474,164.584869 
z"/>
<path fill="#F0F0F0" opacity="1.000000" stroke="none" 
	d="
M344.877319,157.917206 
	C344.708405,160.971329 344.539490,163.540405 344.370575,166.109467 
	C343.726318,166.053833 343.082062,165.998184 342.437805,165.942551 
	C342.437805,158.386215 342.437805,150.829895 342.437805,143.274155 
	C344.877350,144.067505 344.877350,144.067505 344.877319,157.917206 
z"/>
<path fill="#F5F5F5" opacity="1.000000" stroke="none" 
	d="
M247.181702,89.991341 
	C248.725723,91.430923 249.878189,92.874611 251.030655,94.318298 
	C249.822067,95.215904 248.626175,96.798218 247.401337,96.820938 
	C246.145248,96.844246 244.860840,95.342033 243.588837,94.507500 
	C244.655945,93.003487 245.723038,91.499474 247.181702,89.991341 
z"/>
<path fill="#2E2E2E" opacity="1.000000" stroke="none" 
	d="
M386.530212,321.284973 
	C386.530914,315.699707 386.530914,310.581879 386.530914,305.235260 
	C389.142059,305.431213 390.745300,305.551514 392.166504,305.658142 
	C392.166504,318.170807 392.166504,330.514801 392.166504,342.587463 
	C387.058105,344.084198 384.303772,342.770325 382.074310,338.691498 
	C377.614075,330.531219 372.609070,322.668671 366.866638,314.673920 
	C366.474243,323.609680 366.081848,332.545441 365.670044,341.923615 
	C363.877319,342.023651 362.153839,342.119812 360.617493,342.205536 
	C360.617493,329.580322 360.617493,317.210541 360.617493,305.083832 
	C366.321381,303.440399 369.210175,305.282928 371.594421,309.818481 
	C375.743378,317.711090 380.597382,325.233063 385.837036,334.057800 
	C386.114594,329.125519 386.322021,325.438965 386.530212,321.284973 
z"/>
<path fill="#303030" opacity="1.000000" stroke="none" 
	d="
M124.117859,318.977753 
	C128.762009,326.227783 129.992889,333.652954 126.001175,341.018799 
	C120.217560,351.691193 109.427612,351.215118 98.665588,352.355896 
	C97.211273,339.996429 95.783379,327.861511 94.261459,314.927551 
	C104.536140,314.046722 114.868950,309.847687 124.117859,318.977753 
M119.999901,324.772705 
	C115.791573,318.527313 111.517136,317.356110 101.150620,319.819611 
	C102.190697,328.560974 103.236221,337.348114 104.273727,346.067841 
	C119.048828,345.837585 124.221153,338.933105 119.999901,324.772705 
z"/>
<path fill="#333333" opacity="1.000000" stroke="none" 
	d="
M317.849609,260.940338 
	C317.849396,262.926971 317.881836,264.425873 317.843842,265.922974 
	C317.541321,277.839508 310.471100,283.532806 298.789246,281.280182 
	C292.427338,280.053436 288.832336,276.422821 288.404388,269.117737 
	C287.910828,260.692413 288.289673,252.215973 288.289673,243.383011 
	C290.300018,243.290955 292.052643,243.210693 294.491882,243.098984 
	C294.491882,249.481873 294.440674,255.574280 294.515686,261.665131 
	C294.548309,264.317719 294.588013,267.014069 295.070648,269.607483 
	C295.882477,273.969574 298.755280,276.154083 303.204132,276.106232 
	C307.703674,276.057800 310.674072,273.719849 310.968292,269.309082 
	C311.454651,262.018555 311.350372,254.689026 311.516083,247.376404 
	C311.545654,246.071564 311.677399,244.769028 311.767365,243.382935 
	C313.779785,243.382935 315.548309,243.382935 317.849640,243.382935 
	C317.849640,249.221069 317.849640,254.836411 317.849609,260.940338 
z"/>
<path fill="#2E2E2E" opacity="1.000000" stroke="none" 
	d="
M352.967224,255.764801 
	C350.769379,259.443298 348.607208,262.722382 346.365021,266.122864 
	C349.242645,270.536530 352.812866,276.012512 356.717133,282.000854 
	C352.111115,282.985138 348.862762,282.961731 347.030823,278.337128 
	C346.003632,275.744019 344.298645,273.415741 342.865326,270.988037 
	C340.979462,267.793915 338.360382,266.198975 334.133240,267.422852 
	C334.133240,272.073700 334.133240,276.850677 334.133240,281.904846 
	C331.980103,281.904846 330.244598,281.904846 328.226135,281.904846 
	C328.226135,269.511963 328.226135,257.175446 328.226135,243.999283 
	C334.387665,244.432892 340.201996,244.307236 345.779388,245.395645 
	C350.665283,246.349121 353.174591,250.164749 352.967224,255.764801 
M341.597260,249.804779 
	C339.355042,249.678558 337.112793,249.552338 334.557251,249.408478 
	C334.557251,253.912735 334.557251,257.771637 334.557251,261.730865 
	C339.176819,261.757568 344.054230,263.155396 345.909302,257.552338 
	C346.985809,254.300827 346.274506,251.223450 341.597260,249.804779 
z"/>
<path fill="#313131" opacity="1.000000" stroke="none" 
	d="
M218.717285,337.377014 
	C217.804214,333.982849 216.168762,332.773590 212.809814,333.372192 
	C209.419861,333.976288 205.894867,333.822510 202.577545,333.993134 
	C199.741943,337.747498 202.075958,346.168396 192.632858,343.466309 
	C193.946014,339.395905 195.283432,335.234711 196.631012,331.076752 
	C198.982437,323.821411 201.574707,316.632416 203.589203,309.284882 
	C204.500305,305.961792 206.495300,304.766113 209.231140,305.344543 
	C210.868500,305.690765 212.810211,307.372925 213.506897,308.945526 
	C218.271164,319.699921 222.741714,330.584442 227.553970,342.013733 
	C225.298050,342.305176 223.288559,342.564789 220.985199,342.862366 
	C220.237503,341.063629 219.546097,339.400330 218.717285,337.377014 
M214.302017,326.187622 
	C212.477692,321.620575 210.653366,317.053558 208.512039,311.692932 
	C206.752518,317.822632 205.248230,323.063141 203.385849,329.551208 
	C207.888016,328.488464 211.272400,327.689606 214.302017,326.187622 
z"/>
<path fill="#303030" opacity="1.000000" stroke="none" 
	d="
M214.824905,278.907532 
	C218.324493,268.422241 221.793411,258.368103 225.024200,248.238037 
	C225.854279,245.635300 227.028488,244.536285 229.848801,244.423141 
	C232.714020,244.308197 233.923218,245.456787 234.911087,247.937164 
	C239.319672,259.006317 243.897568,270.008057 248.465286,281.158630 
	C243.740662,283.030670 240.916550,282.101746 239.914200,277.156372 
	C239.192703,273.596680 237.392410,271.826233 233.241669,272.698120 
	C230.223541,273.332031 226.965118,272.821991 223.904938,272.821991 
	C220.746170,276.545410 222.976807,285.417480 213.797348,282.566162 
	C214.099014,281.484863 214.402313,280.397614 214.824905,278.907532 
M235.376389,265.136322 
	C233.669189,260.784607 231.961990,256.432922 229.811600,250.951508 
	C227.886475,257.333344 226.372894,262.350891 224.772720,267.655518 
	C227.405182,267.655518 229.567474,267.873993 231.657379,267.579254 
	C233.066971,267.380463 234.374435,266.457611 235.376389,265.136322 
z"/>
<path fill="#2F2F2F" opacity="1.000000" stroke="none" 
	d="
M141.088608,341.103333 
	C140.207291,345.942322 139.431854,350.403717 132.614731,348.403076 
	C136.183960,335.740692 139.767944,323.026031 143.268753,310.606384 
	C148.723602,308.508514 151.266235,310.450043 153.322983,315.365204 
	C157.594208,325.572418 162.601776,335.471527 167.309906,345.504150 
	C162.557709,347.560364 159.670944,346.291687 158.449844,341.607117 
	C157.537460,338.106934 155.534576,336.837708 151.872192,337.723358 
	C149.641006,338.262909 147.177658,337.819641 144.928421,338.315796 
	C143.565460,338.616425 142.412247,339.868042 141.088608,341.103333 
M145.797699,333.049530 
	C148.511932,332.864166 151.226166,332.678772 154.472595,332.457031 
	C151.968460,326.749542 149.796936,321.800171 147.347321,316.216980 
	C145.947662,321.547241 144.644485,326.252472 143.552673,331.006256 
	C143.421738,331.576294 144.438660,332.409973 145.797699,333.049530 
z"/>
<path fill="#2F2F2F" opacity="1.000000" stroke="none" 
	d="
M269.889618,249.201477 
	C264.195526,249.197876 258.890320,249.197876 253.287994,249.197876 
	C253.287994,247.615585 253.287994,246.065536 253.287994,244.157867 
	C262.485687,244.157867 271.547089,244.157867 282.199890,244.157867 
	C274.936523,255.159256 268.243286,265.297089 261.144440,276.049255 
	C267.917908,276.049255 274.070557,276.049255 280.733704,276.049255 
	C280.920624,277.816864 281.081726,279.340515 281.306244,281.463867 
	C271.414642,281.463867 261.995300,281.463867 251.628784,281.463867 
	C252.396729,279.666748 252.908493,277.730347 253.954361,276.146698 
	C259.089600,268.371002 264.412292,260.718994 269.536743,252.936386 
	C270.182800,251.955215 270.050293,250.461380 269.889618,249.201477 
z"/>
<path fill="#2E2E2E" opacity="1.000000" stroke="none" 
	d="
M343.671600,341.193359 
	C339.583069,341.193298 335.955994,341.193298 332.099487,341.193298 
	C332.099487,328.442719 332.099487,316.212585 332.099487,303.691101 
	C339.078186,303.691101 345.754730,303.691101 352.629333,303.691101 
	C352.629333,305.647217 352.629333,307.081848 352.629333,308.956543 
	C347.956268,308.956543 343.382507,308.956543 338.627136,308.956543 
	C338.627136,312.511871 338.627136,315.631317 338.627136,319.247589 
	C342.564331,319.440887 346.643066,319.641083 350.953308,319.852692 
	C351.054230,321.542908 351.141205,322.999969 351.249939,324.821533 
	C346.967926,324.821533 342.880707,324.821533 338.403687,324.821533 
	C338.403687,328.570496 338.403687,331.980865 338.403687,335.941406 
	C342.958710,335.941406 347.699158,335.941406 352.719696,335.941406 
	C352.719696,338.016754 352.719696,339.553467 352.719696,341.193420 
	C349.725494,341.193420 346.929260,341.193420 343.671600,341.193359 
z"/>
<path fill="#323232" opacity="1.000000" stroke="none" 
	d="
M469.330078,345.446747 
	C463.731415,348.782379 458.227234,348.155029 452.579315,346.818085 
	C448.070312,345.750763 447.121674,343.330933 448.781403,339.672363 
	C452.401917,340.731781 455.804504,342.346832 459.278015,342.517426 
	C461.448853,342.623993 464.892487,341.036530 465.606354,339.314423 
	C466.235382,337.797058 464.352173,334.539795 462.710480,332.943329 
	C460.250854,330.551544 456.897675,329.110168 454.170898,326.953156 
	C451.108826,324.530884 449.688171,321.310944 450.553162,317.252991 
	C451.425781,313.159271 454.119659,310.530701 457.915131,310.060669 
	C462.268585,309.521484 466.843445,309.690460 471.146362,310.493500 
	C472.404022,310.728149 473.061920,314.176666 474.003967,316.171722 
	C468.951233,315.603149 465.114960,314.853943 461.290192,314.908447 
	C459.898651,314.928284 457.628204,316.694183 457.389252,317.969055 
	C457.096924,319.528595 458.045197,321.951935 459.294617,323.039734 
	C462.028229,325.419800 465.480255,326.960388 468.297485,329.261780 
	C474.123962,334.021393 474.471130,339.574036 469.330078,345.446747 
z"/>
<path fill="#2C2C2C" opacity="1.000000" stroke="none" 
	d="
M369.438934,282.450928 
	C366.817108,282.308960 364.658173,282.174835 362.549835,282.043884 
	C362.549835,269.657654 362.549835,257.285950 362.549835,244.849243 
	C369.711029,244.849243 376.130585,244.849243 382.866089,244.849243 
	C382.866089,246.737213 382.866089,248.263428 382.866089,250.054657 
	C378.363037,250.054657 373.945282,250.054657 369.183533,250.054657 
	C369.183533,253.550552 369.183533,256.805908 369.183533,260.551392 
	C373.163727,260.752319 377.238159,260.958008 381.775055,261.187042 
	C381.581360,262.924225 381.411865,264.444305 381.225006,266.119843 
	C376.855774,266.119843 372.884888,266.119843 368.572540,266.119843 
	C368.407135,269.601074 368.250366,272.900360 368.063873,276.825195 
	C372.957581,277.132996 377.679596,277.429993 382.755341,277.749268 
	C382.850861,279.370911 382.942963,280.934357 383.032776,282.458771 
	C378.478302,282.458771 374.190063,282.458771 369.438934,282.450928 
z"/>
<path fill="#313131" opacity="1.000000" stroke="none" 
	d="
M254.674927,304.371338 
	C259.734650,303.851379 264.434784,303.500854 269.530029,303.120850 
	C269.530029,306.063782 269.530029,307.816528 269.530029,309.380737 
	C266.212524,309.160156 262.762665,308.386688 259.526123,308.916382 
	C257.533630,309.242493 254.969513,311.261597 254.365952,313.084686 
	C253.956238,314.322205 256.160522,317.004913 257.804901,318.210388 
	C260.446320,320.146759 263.700500,321.222168 266.498505,322.976044 
	C270.641144,325.572723 272.964264,329.323944 271.700592,334.345673 
	C270.496338,339.131195 266.742523,341.303406 262.188354,341.901123 
	C259.261902,342.285217 256.244354,342.074066 253.271881,341.986115 
	C248.590363,341.847595 246.611145,339.666718 248.024719,335.544495 
	C252.235229,336.017670 256.289551,336.873383 260.308075,336.729614 
	C261.934967,336.671448 264.618469,334.565430 264.783630,333.153046 
	C264.994263,331.351471 263.606140,328.722382 262.070709,327.504578 
	C259.660248,325.592834 256.536652,324.589722 253.740204,323.152863 
	C249.748154,321.101685 247.092636,317.964386 247.299454,313.336823 
	C247.497360,308.908478 250.230408,306.083344 254.674927,304.371338 
z"/>
<path fill="#2F2F2F" opacity="1.000000" stroke="none" 
	d="
M285.256775,338.911957 
	C276.616425,331.706024 274.627014,320.433685 280.109955,311.403748 
	C285.049316,303.269012 295.617035,300.251831 305.788788,304.167358 
	C305.857178,304.744598 305.979950,305.390442 306.000366,306.039520 
	C306.036560,307.188629 306.010529,308.339722 306.010529,309.207275 
	C302.096313,308.848633 298.207733,307.619415 294.807861,308.432831 
	C291.578033,309.205536 288.159149,311.562042 286.070679,314.207001 
	C282.413055,318.839203 283.147614,327.074493 286.651947,331.496826 
	C290.581665,336.455963 296.510712,337.286560 305.388733,334.121674 
	C306.502197,339.528809 306.223846,340.654053 301.073273,340.838654 
	C295.936707,341.022766 290.747406,339.736847 285.256775,338.911957 
z"/>
<path fill="#303030" opacity="1.000000" stroke="none" 
	d="
M417.196655,324.343628 
	C416.816162,331.410797 416.439392,338.007904 416.054230,344.751465 
	C413.959656,344.751465 412.207764,344.751465 409.867035,344.751465 
	C410.416412,333.844543 410.952789,323.195984 411.501953,312.293121 
	C407.826508,312.044678 404.725861,311.835114 401.220093,311.598145 
	C401.126923,309.902405 401.041138,308.340881 400.927002,306.263000 
	C410.310608,306.782532 419.356110,307.283356 428.701111,307.800751 
	C428.701111,309.466644 428.701111,311.001617 428.701111,312.798462 
	C425.095856,312.798462 421.700562,312.798462 418.061829,312.798462 
	C417.762695,316.644196 417.481537,320.258881 417.196655,324.343628 
z"/>
<path fill="#2F2F2F" opacity="1.000000" stroke="none" 
	d="
M490.481934,312.703247 
	C496.517883,313.393921 502.110962,314.028625 507.964844,314.692932 
	C507.875031,316.471161 507.802399,317.909637 507.702271,319.892426 
	C504.094666,319.566193 500.724091,319.261414 496.810852,318.907562 
	C495.523132,329.615295 494.262909,340.094391 492.940582,351.089844 
	C490.867920,350.812897 488.995178,350.562683 486.773529,350.265869 
	C488.005341,339.498230 489.192505,329.121124 490.445221,318.170654 
	C486.993195,317.682709 483.621002,317.206055 479.913391,316.681976 
	C480.064728,314.983093 480.203491,313.425323 480.372772,311.524872 
	C483.839081,311.927368 486.939087,312.287354 490.481934,312.703247 
z"/>
<path fill="#2D2D2D" opacity="1.000000" stroke="none" 
	d="
M181.999207,326.953369 
	C182.341156,333.047638 182.675293,338.666656 183.043869,344.864716 
	C181.034943,344.963501 179.166519,345.055359 176.848846,345.169312 
	C176.119125,334.325897 175.411392,323.809265 174.693848,313.146973 
	C171.059677,313.146973 167.787888,313.146973 164.080093,313.146973 
	C163.975601,311.639984 163.867340,310.078461 163.732101,308.127747 
	C173.038956,307.561035 182.067276,307.011261 191.425171,306.441437 
	C191.609314,308.389618 191.743195,309.805969 191.913025,311.602783 
	C188.220764,311.895203 184.814148,312.164978 181.010742,312.466187 
	C181.348969,317.298859 181.670181,321.888489 181.999207,326.953369 
z"/>
<path fill="#2E2E2E" opacity="1.000000" stroke="none" 
	d="
M434.270935,345.411652 
	C433.498749,344.844238 432.849274,344.302673 432.880676,343.804047 
	C433.628540,331.928528 434.449585,320.057648 435.284851,307.780121 
	C437.588318,307.929932 439.488770,308.053528 441.741882,308.200043 
	C440.840759,320.745148 439.966217,332.920105 439.065613,345.457520 
	C437.497803,345.457520 436.104340,345.457520 434.270935,345.411652 
z"/>
<path fill="#2A2A2A" opacity="1.000000" stroke="none" 
	d="
M321.179688,326.993622 
	C321.179688,331.792603 321.179688,336.093262 321.179688,340.754791 
	C319.046356,340.862366 317.299469,340.950470 315.179291,341.057373 
	C315.179291,328.514069 315.179291,316.152435 315.179291,303.485657 
	C317.178223,303.485657 319.050232,303.485657 321.179688,303.485657 
	C321.179688,311.287140 321.179688,318.891235 321.179688,326.993622 
z"/>
<path fill="#FBFDFE" opacity="1.000000" stroke="none" 
	d="
M341.529022,509.862427 
	C334.625488,514.818787 328.060974,519.566162 321.496490,524.313599 
	C321.193512,524.110046 320.890564,523.906494 320.587585,523.702942 
	C322.775421,516.810974 324.772919,509.850067 327.234985,503.057587 
	C328.388153,499.876160 328.098755,498.033264 325.124268,496.050598 
	C318.899109,491.901093 312.972870,487.303162 305.696411,481.993774 
	C314.300018,481.993774 321.656128,481.656860 328.961060,482.122528 
	C333.216278,482.393799 334.765717,480.723877 335.813934,477.013306 
	C337.752869,470.149628 340.091614,463.398865 342.668884,455.333435 
	C345.828217,464.853363 348.622803,473.274261 351.530212,482.035095 
	C360.529205,482.035095 369.429077,482.035095 379.695953,482.035095 
	C371.444580,488.073883 364.282928,493.315186 356.929596,498.696747 
	C359.682617,507.276031 362.403625,515.755554 365.494537,525.387817 
	C358.377747,520.256531 352.275604,515.787781 346.081848,511.449890 
	C344.858124,510.592834 343.281799,510.239227 341.529022,509.862427 
z"/>
<path fill="#FBFDFE" opacity="1.000000" stroke="none" 
	d="
M237.088974,523.514587 
	C239.756042,515.113892 242.393600,507.070953 245.132233,498.719788 
	C237.843567,493.406311 230.635391,488.151489 222.480484,482.206482 
	C232.426697,482.206482 241.287888,482.206482 250.423096,482.206482 
	C253.320221,473.430298 256.104980,464.994507 259.262177,455.430481 
	C262.437592,465.052582 265.214233,473.466522 268.012848,481.946899 
	C277.153107,481.946899 285.971802,481.946899 296.305847,481.946899 
	C289.463013,486.954102 283.816376,491.391602 277.845154,495.337921 
	C274.402557,497.613037 273.321228,499.721893 274.938751,503.819946 
	C277.473175,510.240906 279.278992,516.949402 280.509766,524.244934 
	C273.578613,519.279480 266.647430,514.314026 259.318634,509.063690 
	C252.143204,514.141724 244.867874,519.291321 237.584839,524.430054 
	C237.521317,524.474854 237.308121,524.409851 237.246414,524.331726 
	C237.147980,524.207092 237.118256,524.028259 237.088974,523.514587 
z"/>
<path fill="#F3F8FC" opacity="1.000000" stroke="none" 
	d="
M283.880615,434.033813 
	C274.980438,435.377960 268.634857,431.601257 267.093872,424.331085 
	C265.284271,415.793671 269.081909,408.654083 276.554596,406.544739 
	C283.782898,404.504333 290.731995,407.897156 293.064636,414.605591 
	C295.959229,422.930054 292.521332,430.499786 283.880615,434.033813 
M286.979950,418.813049 
	C286.812744,418.006104 286.726593,417.171814 286.464783,416.396820 
	C285.111786,412.392242 282.241638,410.980011 278.288910,412.071930 
	C274.502838,413.117828 272.601593,418.449890 274.005035,423.501190 
	C275.070770,427.337006 278.519684,429.848358 281.750824,428.620697 
	C283.438660,427.979431 285.115753,426.465424 286.036774,424.898346 
	C286.883942,423.456909 286.711609,421.416290 286.979950,418.813049 
z"/>
<path fill="#F3F8FC" opacity="1.000000" stroke="none" 
	d="
M343.951752,424.895844 
	C346.038361,419.591064 347.850128,414.574707 350.121796,409.776093 
	C350.705719,408.542633 352.718628,407.343384 354.111389,407.300201 
	C355.792694,407.248077 358.627380,408.037170 359.037964,409.163757 
	C362.085968,417.526062 364.655731,426.062683 367.491882,434.907013 
	C364.861664,434.907013 362.909363,434.907013 360.293243,434.907013 
	C360.692627,428.123962 355.946289,428.455353 351.373444,428.783295 
	C350.471924,428.847961 349.023346,429.719696 348.871246,430.439789 
	C347.829437,435.372009 344.515320,434.966858 340.421844,434.174316 
	C341.613068,431.076782 342.730530,428.171021 343.951752,424.895844 
M356.032227,418.702667 
	C355.588928,417.301636 355.145660,415.900604 354.458710,413.729401 
	C353.121796,417.417206 352.036133,420.411987 350.883179,423.592407 
	C353.340729,423.592407 355.100525,423.592407 357.268677,423.592407 
	C356.841583,421.970947 356.512543,420.721771 356.032227,418.702667 
z"/>
<path fill="#F3F8FC" opacity="1.000000" stroke="none" 
	d="
M184.404633,433.123230 
	C186.548004,426.101593 188.732788,419.480804 190.494156,412.749207 
	C191.257446,409.832092 192.977737,409.338196 195.486633,409.082184 
	C198.208771,408.804443 199.654922,409.644409 200.686996,412.307892 
	C203.672943,420.013702 206.970291,427.598816 210.313950,435.636505 
	C206.583923,436.172729 203.272797,437.620056 201.748672,432.580902 
	C201.453857,431.606140 198.843613,430.763702 197.361465,430.853302 
	C195.298599,430.977936 191.652008,431.824310 191.532913,432.734589 
	C190.853317,437.929138 187.422638,437.399628 183.531265,437.289032 
	C183.797363,435.924622 184.035828,434.701874 184.404633,433.123230 
M198.576538,425.306519 
	C197.739594,422.316986 196.902634,419.327484 196.065689,416.337952 
	C195.778748,416.413971 195.491806,416.489990 195.204865,416.566040 
	C194.449005,419.520966 193.693161,422.475891 192.871750,425.687103 
	C194.959061,425.687103 196.422287,425.687103 198.576538,425.306519 
z"/>
<path fill="#F1F6FB" opacity="1.000000" stroke="none" 
	d="
M215.901245,430.315552 
	C217.329285,430.028168 218.759552,430.306061 220.181656,430.269226 
	C222.722183,430.203461 225.257782,429.947754 227.795425,429.771484 
	C227.929260,429.035492 228.063080,428.299500 228.196915,427.563507 
	C226.364960,426.418457 224.650909,424.979370 222.677155,424.187897 
	C218.205368,422.394684 214.434143,420.168793 215.131561,414.535675 
	C215.674866,410.147247 219.491806,407.635895 225.724243,407.436890 
	C227.856064,407.368866 229.999451,407.662781 232.557571,407.816559 
	C232.750092,409.832214 232.915176,411.560730 233.085220,413.341064 
	C230.094009,413.179047 227.396729,412.861145 224.719894,412.984955 
	C223.832672,413.025970 222.418854,414.114655 222.300674,414.885956 
	C222.180237,415.672058 223.164459,416.973694 224.007614,417.488068 
	C225.693176,418.516388 227.644257,419.097260 229.429047,419.977753 
	C232.835480,421.658295 235.055740,424.302338 234.719681,428.243011 
	C234.359985,432.460846 231.620544,434.759094 227.571243,435.383881 
	C225.291473,435.735657 222.956177,435.803101 220.643082,435.845612 
	C217.233276,435.908295 215.304703,434.461578 215.901245,430.315552 
z"/>
<path fill="#F2F7FB" opacity="1.000000" stroke="none" 
	d="
M261.094177,425.355164 
	C261.438965,429.442566 260.333862,432.941956 256.630463,433.654327 
	C252.387009,434.470581 247.860062,434.203430 243.524689,433.751190 
	C242.835556,433.679321 242.505753,430.163086 242.011002,428.243805 
	C245.357224,428.846771 248.073288,429.619843 250.807068,429.688751 
	C251.896072,429.716187 253.024323,428.186401 254.134735,427.365479 
	C253.374405,426.362122 252.810715,425.037872 251.810944,424.425262 
	C249.987762,423.308075 247.326263,423.105408 246.068756,421.625397 
	C244.201141,419.427490 241.955948,416.280090 242.274704,413.852325 
	C242.592850,411.429291 245.525681,408.808502 247.960449,407.376831 
	C249.882950,406.246399 252.785248,406.704926 255.258377,406.605011 
	C259.781250,406.422150 260.490753,408.950317 259.572021,412.681213 
	C257.147614,412.396484 254.884521,411.863281 252.653305,411.973755 
	C251.410980,412.035217 250.221725,413.168579 249.008575,413.818909 
	C249.827286,414.917084 250.445694,416.290802 251.503662,417.059875 
	C254.271683,419.072052 257.275635,420.757568 260.078461,422.725769 
	C260.643127,423.122284 260.735382,424.191498 261.094177,425.355164 
z"/>
<path fill="#F3F8FC" opacity="1.000000" stroke="none" 
	d="
M400.454742,436.870789 
	C398.862823,435.897919 396.694061,434.905457 396.714996,433.961548 
	C396.894623,425.862701 397.470306,417.772644 397.962463,409.064850 
	C403.352448,409.414307 408.400818,409.741608 413.728455,410.087006 
	C413.728455,411.655579 413.728455,413.053925 413.728455,414.866577 
	C410.600983,414.866577 407.549072,414.866577 404.253052,414.866577 
	C404.253052,416.857208 404.253052,418.439911 404.253052,420.360138 
	C407.041962,420.645355 409.788116,420.926208 412.820465,421.236328 
	C412.614502,422.969025 412.447388,424.374573 412.258331,425.964966 
	C409.414490,425.964966 406.801514,425.964966 403.714874,425.964966 
	C403.525940,427.830719 403.353729,429.531281 403.142151,431.620728 
	C406.586487,431.846130 409.524048,432.038330 412.811218,432.253448 
	C412.811218,433.946320 412.811218,435.478851 412.811218,436.873718 
	C408.732391,436.873718 404.812714,436.873718 400.454742,436.870789 
z"/>
<path fill="#F2F7FB" opacity="1.000000" stroke="none" 
	d="
M308.369446,407.015808 
	C311.043732,406.610504 313.338745,406.024475 315.622192,406.066559 
	C321.236572,406.170044 321.585358,406.742493 320.684753,412.745453 
	C315.979706,411.585876 310.673523,410.121124 307.961395,415.424133 
	C306.614502,418.057770 306.610199,422.500427 307.943481,425.143646 
	C310.544159,430.299469 315.647369,429.195770 320.270264,427.719940 
	C321.630127,433.257233 321.490082,433.496368 316.568573,434.192200 
	C308.418457,435.344452 302.486237,432.369324 300.311920,426.039124 
	C297.689484,418.404327 300.466888,411.556488 308.369446,407.015808 
z"/>
<path fill="#F1F6FB" opacity="1.000000" stroke="none" 
	d="
M387.933289,413.945557 
	C383.994049,413.305176 382.907745,414.770569 382.940460,418.251251 
	C382.994385,423.998505 382.501831,429.750854 382.221405,435.900330 
	C379.892822,435.762054 378.148315,435.658478 376.335815,435.550842 
	C376.335815,428.120728 376.335815,421.068848 376.335815,413.479767 
	C374.226562,413.306824 371.849030,413.111847 369.232300,412.897308 
	C369.232300,411.294189 369.232300,409.877563 369.232300,408.599548 
	C376.427460,408.599548 383.597198,408.599548 391.167389,408.599548 
	C390.834778,411.281525 392.686218,414.178802 387.933289,413.945557 
z"/>
<path fill="#F8FBFD" opacity="1.000000" stroke="none" 
	d="
M335.179077,420.280823 
	C335.178894,425.048004 335.178894,429.344299 335.178894,433.901825 
	C332.903076,433.901825 331.166046,433.901825 328.843994,433.901825 
	C328.843994,429.419128 328.843994,424.981567 328.843994,420.544006 
	C328.843994,416.089661 328.843994,411.635284 328.843994,407.006714 
	C331.239532,407.006714 333.016998,407.006714 335.179230,407.006714 
	C335.179230,411.345001 335.179230,415.577515 335.179077,420.280823 
z"/>
<path fill="#585858" opacity="1.000000" stroke="none" 
	d="
M347.973450,114.932770 
	C347.723450,113.915977 347.269501,113.146629 347.476746,112.657288 
	C348.545044,110.134644 349.481384,107.438812 351.161957,105.370712 
	C351.612823,104.815788 355.863464,105.967430 356.041779,106.821609 
	C356.667358,109.818474 357.069916,113.316589 356.061249,116.078011 
	C354.948822,119.123604 351.273010,118.556030 347.973450,114.932770 
z"/>
<path fill="#585858" opacity="1.000000" stroke="none" 
	d="
M307.680481,105.097855 
	C312.682526,107.648972 312.071198,111.649857 310.622650,115.442345 
	C309.359802,118.748734 304.516479,118.916039 302.475830,116.010963 
	C299.411438,111.648491 301.908691,105.956993 307.680481,105.097855 
z"/>
<path fill="#575757" opacity="1.000000" stroke="none" 
	d="
M384.934967,145.213867 
	C392.807129,145.896332 395.434692,147.956024 395.796173,153.378174 
	C396.279663,160.629761 391.596375,164.286407 382.908386,163.006729 
	C382.908386,157.641083 382.865173,152.197495 382.977997,146.757172 
	C382.988800,146.236542 383.972565,145.736084 384.934967,145.213867 
z"/>
<path fill="#5C5C5C" opacity="1.000000" stroke="none" 
	d="
M257.821747,148.183197 
	C259.011597,146.902985 260.490662,145.146667 261.326599,145.412552 
	C263.059662,145.963745 265.043121,147.316895 265.759857,148.875504 
	C266.186462,149.803207 264.748718,152.274506 263.513763,153.091507 
	C262.217010,153.949432 260.161591,153.660645 258.061829,153.919281 
	C257.966217,151.827820 257.892975,150.225281 257.821747,148.183197 
z"/>
<path fill="#F9F9F9" opacity="1.000000" stroke="none" 
	d="
M120.156563,325.129211 
	C124.221153,338.933105 119.048828,345.837585 104.273727,346.067841 
	C103.236221,337.348114 102.190697,328.560974 101.150620,319.819611 
	C111.517136,317.356110 115.791573,318.527313 120.156563,325.129211 
z"/>
<path fill="#EEEEEE" opacity="1.000000" stroke="none" 
	d="
M341.995056,249.872772 
	C346.274506,251.223450 346.985809,254.300827 345.909302,257.552338 
	C344.054230,263.155396 339.176819,261.757568 334.557251,261.730865 
	C334.557251,257.771637 334.557251,253.912735 334.557251,249.408478 
	C337.112793,249.552338 339.355042,249.678558 341.995056,249.872772 
z"/>
<path fill="#F0F0F0" opacity="1.000000" stroke="none" 
	d="
M214.479401,326.539185 
	C211.272400,327.689606 207.888016,328.488464 203.385849,329.551208 
	C205.248230,323.063141 206.752518,317.822632 208.512039,311.692932 
	C210.653366,317.053558 212.477692,321.620575 214.479401,326.539185 
z"/>
<path fill="#ECECEC" opacity="1.000000" stroke="none" 
	d="
M235.551987,265.497498 
	C234.374435,266.457611 233.066971,267.380463 231.657379,267.579254 
	C229.567474,267.873993 227.405182,267.655518 224.772720,267.655518 
	C226.372894,262.350891 227.886475,257.333344 229.811600,250.951508 
	C231.961990,256.432922 233.669189,260.784607 235.551987,265.497498 
z"/>
<path fill="#F0F0F0" opacity="1.000000" stroke="none" 
	d="
M145.360626,333.085510 
	C144.438660,332.409973 143.421738,331.576294 143.552673,331.006256 
	C144.644485,326.252472 145.947662,321.547241 147.347321,316.216980 
	C149.796936,321.800171 151.968460,326.749542 154.472595,332.457031 
	C151.226166,332.678772 148.511932,332.864166 145.360626,333.085510 
z"/>
<path fill="#0668B7" opacity="1.000000" stroke="none" 
	d="
M286.984192,419.226318 
	C286.711609,421.416290 286.883942,423.456909 286.036774,424.898346 
	C285.115753,426.465424 283.438660,427.979431 281.750824,428.620697 
	C278.519684,429.848358 275.070770,427.337006 274.005035,423.501190 
	C272.601593,418.449890 274.502838,413.117828 278.288910,412.071930 
	C282.241638,410.980011 285.111786,412.392242 286.464783,416.396820 
	C286.726593,417.171814 286.812744,418.006104 286.984192,419.226318 
z"/>
<path fill="#1E76BE" opacity="1.000000" stroke="none" 
	d="
M356.107849,419.087646 
	C356.512543,420.721771 356.841583,421.970947 357.268677,423.592407 
	C355.100525,423.592407 353.340729,423.592407 350.883179,423.592407 
	C352.036133,420.411987 353.121796,417.417206 354.458710,413.729401 
	C355.145660,415.900604 355.588928,417.301636 356.107849,419.087646 
z"/>
<path fill="#1E76BE" opacity="1.000000" stroke="none" 
	d="
M198.231033,425.496826 
	C196.422287,425.687103 194.959061,425.687103 192.871750,425.687103 
	C193.693161,422.475891 194.449005,419.520966 195.204865,416.566040 
	C195.491806,416.489990 195.778748,416.413971 196.065689,416.337952 
	C196.902634,419.327484 197.739594,422.316986 198.231033,425.496826 
z"/>
</svg>